%TF.GenerationSoftware,KiCad,Pcbnew,8.0.4*%
%TF.CreationDate,2024-08-04T00:04:10+10:00*%
%TF.ProjectId,EVQWKL001-breadboard,45565157-4b4c-4303-9031-2d6272656164,rev?*%
%TF.SameCoordinates,Original*%
%TF.FileFunction,Legend,Top*%
%TF.FilePolarity,Positive*%
%FSLAX46Y46*%
G04 Gerber Fmt 4.6, Leading zero omitted, Abs format (unit mm)*
G04 Created by KiCad (PCBNEW 8.0.4) date 2024-08-04 00:04:10*
%MOMM*%
%LPD*%
G01*
G04 APERTURE LIST*
G04 Aperture macros list*
%AMRoundRect*
0 Rectangle with rounded corners*
0 $1 Rounding radius*
0 $2 $3 $4 $5 $6 $7 $8 $9 X,Y pos of 4 corners*
0 Add a 4 corners polygon primitive as box body*
4,1,4,$2,$3,$4,$5,$6,$7,$8,$9,$2,$3,0*
0 Add four circle primitives for the rounded corners*
1,1,$1+$1,$2,$3*
1,1,$1+$1,$4,$5*
1,1,$1+$1,$6,$7*
1,1,$1+$1,$8,$9*
0 Add four rect primitives between the rounded corners*
20,1,$1+$1,$2,$3,$4,$5,0*
20,1,$1+$1,$4,$5,$6,$7,0*
20,1,$1+$1,$6,$7,$8,$9,0*
20,1,$1+$1,$8,$9,$2,$3,0*%
G04 Aperture macros list end*
%ADD10C,0.150000*%
%ADD11C,0.120000*%
%ADD12C,0.000000*%
%ADD13RoundRect,0.250000X0.475000X-0.250000X0.475000X0.250000X-0.475000X0.250000X-0.475000X-0.250000X0*%
%ADD14RoundRect,0.250000X-0.475000X0.250000X-0.475000X-0.250000X0.475000X-0.250000X0.475000X0.250000X0*%
%ADD15RoundRect,0.250000X0.450000X-0.262500X0.450000X0.262500X-0.450000X0.262500X-0.450000X-0.262500X0*%
%ADD16R,0.800000X1.600000*%
%ADD17O,1.600000X2.200000*%
%ADD18O,1.800000X1.600000*%
%ADD19R,1.700000X1.700000*%
%ADD20O,1.700000X1.700000*%
G04 APERTURE END LIST*
D10*
X82909580Y-59729666D02*
X82957200Y-59777285D01*
X82957200Y-59777285D02*
X83004819Y-59920142D01*
X83004819Y-59920142D02*
X83004819Y-60015380D01*
X83004819Y-60015380D02*
X82957200Y-60158237D01*
X82957200Y-60158237D02*
X82861961Y-60253475D01*
X82861961Y-60253475D02*
X82766723Y-60301094D01*
X82766723Y-60301094D02*
X82576247Y-60348713D01*
X82576247Y-60348713D02*
X82433390Y-60348713D01*
X82433390Y-60348713D02*
X82242914Y-60301094D01*
X82242914Y-60301094D02*
X82147676Y-60253475D01*
X82147676Y-60253475D02*
X82052438Y-60158237D01*
X82052438Y-60158237D02*
X82004819Y-60015380D01*
X82004819Y-60015380D02*
X82004819Y-59920142D01*
X82004819Y-59920142D02*
X82052438Y-59777285D01*
X82052438Y-59777285D02*
X82100057Y-59729666D01*
X83004819Y-58777285D02*
X83004819Y-59348713D01*
X83004819Y-59062999D02*
X82004819Y-59062999D01*
X82004819Y-59062999D02*
X82147676Y-59158237D01*
X82147676Y-59158237D02*
X82242914Y-59253475D01*
X82242914Y-59253475D02*
X82290533Y-59348713D01*
X90529580Y-59729666D02*
X90577200Y-59777285D01*
X90577200Y-59777285D02*
X90624819Y-59920142D01*
X90624819Y-59920142D02*
X90624819Y-60015380D01*
X90624819Y-60015380D02*
X90577200Y-60158237D01*
X90577200Y-60158237D02*
X90481961Y-60253475D01*
X90481961Y-60253475D02*
X90386723Y-60301094D01*
X90386723Y-60301094D02*
X90196247Y-60348713D01*
X90196247Y-60348713D02*
X90053390Y-60348713D01*
X90053390Y-60348713D02*
X89862914Y-60301094D01*
X89862914Y-60301094D02*
X89767676Y-60253475D01*
X89767676Y-60253475D02*
X89672438Y-60158237D01*
X89672438Y-60158237D02*
X89624819Y-60015380D01*
X89624819Y-60015380D02*
X89624819Y-59920142D01*
X89624819Y-59920142D02*
X89672438Y-59777285D01*
X89672438Y-59777285D02*
X89720057Y-59729666D01*
X89720057Y-59348713D02*
X89672438Y-59301094D01*
X89672438Y-59301094D02*
X89624819Y-59205856D01*
X89624819Y-59205856D02*
X89624819Y-58967761D01*
X89624819Y-58967761D02*
X89672438Y-58872523D01*
X89672438Y-58872523D02*
X89720057Y-58824904D01*
X89720057Y-58824904D02*
X89815295Y-58777285D01*
X89815295Y-58777285D02*
X89910533Y-58777285D01*
X89910533Y-58777285D02*
X90053390Y-58824904D01*
X90053390Y-58824904D02*
X90624819Y-59396332D01*
X90624819Y-59396332D02*
X90624819Y-58777285D01*
X80494819Y-59729666D02*
X80018628Y-60062999D01*
X80494819Y-60301094D02*
X79494819Y-60301094D01*
X79494819Y-60301094D02*
X79494819Y-59920142D01*
X79494819Y-59920142D02*
X79542438Y-59824904D01*
X79542438Y-59824904D02*
X79590057Y-59777285D01*
X79590057Y-59777285D02*
X79685295Y-59729666D01*
X79685295Y-59729666D02*
X79828152Y-59729666D01*
X79828152Y-59729666D02*
X79923390Y-59777285D01*
X79923390Y-59777285D02*
X79971009Y-59824904D01*
X79971009Y-59824904D02*
X80018628Y-59920142D01*
X80018628Y-59920142D02*
X80018628Y-60301094D01*
X80494819Y-58777285D02*
X80494819Y-59348713D01*
X80494819Y-59062999D02*
X79494819Y-59062999D01*
X79494819Y-59062999D02*
X79637676Y-59158237D01*
X79637676Y-59158237D02*
X79732914Y-59253475D01*
X79732914Y-59253475D02*
X79780533Y-59348713D01*
X84670714Y-46201009D02*
X85004047Y-46201009D01*
X85146904Y-46724819D02*
X84670714Y-46724819D01*
X84670714Y-46724819D02*
X84670714Y-45724819D01*
X84670714Y-45724819D02*
X85146904Y-45724819D01*
X85575476Y-46724819D02*
X85575476Y-45724819D01*
X85575476Y-45724819D02*
X86146904Y-46724819D01*
X86146904Y-46724819D02*
X86146904Y-45724819D01*
X87194523Y-46629580D02*
X87146904Y-46677200D01*
X87146904Y-46677200D02*
X87004047Y-46724819D01*
X87004047Y-46724819D02*
X86908809Y-46724819D01*
X86908809Y-46724819D02*
X86765952Y-46677200D01*
X86765952Y-46677200D02*
X86670714Y-46581961D01*
X86670714Y-46581961D02*
X86623095Y-46486723D01*
X86623095Y-46486723D02*
X86575476Y-46296247D01*
X86575476Y-46296247D02*
X86575476Y-46153390D01*
X86575476Y-46153390D02*
X86623095Y-45962914D01*
X86623095Y-45962914D02*
X86670714Y-45867676D01*
X86670714Y-45867676D02*
X86765952Y-45772438D01*
X86765952Y-45772438D02*
X86908809Y-45724819D01*
X86908809Y-45724819D02*
X87004047Y-45724819D01*
X87004047Y-45724819D02*
X87146904Y-45772438D01*
X87146904Y-45772438D02*
X87194523Y-45820057D01*
X88146904Y-46724819D02*
X87575476Y-46724819D01*
X87861190Y-46724819D02*
X87861190Y-45724819D01*
X87861190Y-45724819D02*
X87765952Y-45867676D01*
X87765952Y-45867676D02*
X87670714Y-45962914D01*
X87670714Y-45962914D02*
X87575476Y-46010533D01*
X77134819Y-69548333D02*
X77849104Y-69548333D01*
X77849104Y-69548333D02*
X77991961Y-69595952D01*
X77991961Y-69595952D02*
X78087200Y-69691190D01*
X78087200Y-69691190D02*
X78134819Y-69834047D01*
X78134819Y-69834047D02*
X78134819Y-69929285D01*
X78134819Y-68548333D02*
X78134819Y-69119761D01*
X78134819Y-68834047D02*
X77134819Y-68834047D01*
X77134819Y-68834047D02*
X77277676Y-68929285D01*
X77277676Y-68929285D02*
X77372914Y-69024523D01*
X77372914Y-69024523D02*
X77420533Y-69119761D01*
X93164819Y-59729666D02*
X92688628Y-60062999D01*
X93164819Y-60301094D02*
X92164819Y-60301094D01*
X92164819Y-60301094D02*
X92164819Y-59920142D01*
X92164819Y-59920142D02*
X92212438Y-59824904D01*
X92212438Y-59824904D02*
X92260057Y-59777285D01*
X92260057Y-59777285D02*
X92355295Y-59729666D01*
X92355295Y-59729666D02*
X92498152Y-59729666D01*
X92498152Y-59729666D02*
X92593390Y-59777285D01*
X92593390Y-59777285D02*
X92641009Y-59824904D01*
X92641009Y-59824904D02*
X92688628Y-59920142D01*
X92688628Y-59920142D02*
X92688628Y-60301094D01*
X92260057Y-59348713D02*
X92212438Y-59301094D01*
X92212438Y-59301094D02*
X92164819Y-59205856D01*
X92164819Y-59205856D02*
X92164819Y-58967761D01*
X92164819Y-58967761D02*
X92212438Y-58872523D01*
X92212438Y-58872523D02*
X92260057Y-58824904D01*
X92260057Y-58824904D02*
X92355295Y-58777285D01*
X92355295Y-58777285D02*
X92450533Y-58777285D01*
X92450533Y-58777285D02*
X92593390Y-58824904D01*
X92593390Y-58824904D02*
X93164819Y-59396332D01*
X93164819Y-59396332D02*
X93164819Y-58777285D01*
D11*
%TO.C,C1*%
X81815000Y-62491252D02*
X81815000Y-61968748D01*
X83285000Y-62491252D02*
X83285000Y-61968748D01*
%TO.C,C2*%
X89435000Y-61968748D02*
X89435000Y-62491252D01*
X90905000Y-61968748D02*
X90905000Y-62491252D01*
D12*
%TO.C,kibuzzard-66AE0B98*%
G36*
X85234658Y-64722438D02*
G01*
X84670822Y-64610658D01*
X84670822Y-64609014D01*
X85234658Y-64497233D01*
X85234658Y-64722438D01*
G37*
G36*
X85843425Y-65348740D02*
G01*
X85843425Y-66561890D01*
X85843425Y-66780521D01*
X85843425Y-67355863D01*
X85843425Y-67698329D01*
X84336575Y-67698329D01*
X84336575Y-67355863D01*
X84336575Y-66780521D01*
X84490000Y-66780521D01*
X84490000Y-67355863D01*
X85690000Y-67355863D01*
X85690000Y-66780521D01*
X85546986Y-66780521D01*
X85546986Y-67171753D01*
X85114658Y-67171753D01*
X85114658Y-66796959D01*
X84974932Y-66796959D01*
X84974932Y-67171753D01*
X84633014Y-67171753D01*
X84633014Y-66780521D01*
X84490000Y-66780521D01*
X84336575Y-66780521D01*
X84336575Y-65937233D01*
X84490000Y-65937233D01*
X84490000Y-66109836D01*
X85361233Y-66109836D01*
X85361233Y-66114767D01*
X84490000Y-66371205D01*
X84490000Y-66561890D01*
X85690000Y-66561890D01*
X85690000Y-66381068D01*
X84818767Y-66381068D01*
X84818767Y-66377781D01*
X85690000Y-66121342D01*
X85690000Y-65937233D01*
X84490000Y-65937233D01*
X84336575Y-65937233D01*
X84336575Y-65353671D01*
X84473562Y-65353671D01*
X84482937Y-65449990D01*
X84511062Y-65533466D01*
X84557937Y-65604099D01*
X84623562Y-65661890D01*
X84707937Y-65706839D01*
X84811062Y-65738945D01*
X84932937Y-65758209D01*
X85073562Y-65764630D01*
X85221892Y-65758132D01*
X85350445Y-65738637D01*
X85459221Y-65706146D01*
X85548219Y-65660658D01*
X85617440Y-65602173D01*
X85666884Y-65530692D01*
X85696550Y-65446214D01*
X85706438Y-65348740D01*
X85696164Y-65239014D01*
X85665342Y-65139973D01*
X85514110Y-65139973D01*
X85552329Y-65233671D01*
X85565068Y-65320795D01*
X85551416Y-65401160D01*
X85510457Y-65466913D01*
X85442192Y-65518055D01*
X85346621Y-65554584D01*
X85223744Y-65576502D01*
X85073562Y-65583808D01*
X84934429Y-65577187D01*
X84820594Y-65557324D01*
X84732055Y-65524219D01*
X84668813Y-65477872D01*
X84630868Y-65418283D01*
X84618219Y-65345452D01*
X84624795Y-65307644D01*
X84881233Y-65307644D01*
X84881233Y-65131753D01*
X84509726Y-65131753D01*
X84482603Y-65236548D01*
X84473562Y-65353671D01*
X84336575Y-65353671D01*
X84336575Y-64500521D01*
X84490000Y-64500521D01*
X84490000Y-64714219D01*
X85690000Y-64996959D01*
X85690000Y-64812849D01*
X85374384Y-64750384D01*
X85374384Y-64469288D01*
X85690000Y-64406822D01*
X85690000Y-64216137D01*
X84490000Y-64500521D01*
X84336575Y-64500521D01*
X84336575Y-64216137D01*
X84336575Y-63873671D01*
X85843425Y-63873671D01*
X85843425Y-64216137D01*
X85843425Y-64996959D01*
X85843425Y-65348740D01*
G37*
D11*
%TO.C,R1*%
X79275000Y-62457064D02*
X79275000Y-62002936D01*
X80745000Y-62457064D02*
X80745000Y-62002936D01*
D12*
%TO.C,kibuzzard-66AE0BAD*%
G36*
X90923425Y-65933945D02*
G01*
X90923425Y-67068192D01*
X90923425Y-67355863D01*
X90923425Y-67698329D01*
X89416575Y-67698329D01*
X89416575Y-67355863D01*
X89416575Y-67023808D01*
X89553562Y-67023808D01*
X89562694Y-67121982D01*
X89590091Y-67203900D01*
X89635753Y-67269562D01*
X89734384Y-67334288D01*
X89865890Y-67355863D01*
X89982603Y-67338808D01*
X90079589Y-67287644D01*
X90136575Y-67231114D01*
X90191370Y-67152484D01*
X90243973Y-67051754D01*
X90286301Y-66981274D01*
X90334384Y-66934219D01*
X90392740Y-66907713D01*
X90465890Y-66898877D01*
X90542534Y-66910384D01*
X90598219Y-66944904D01*
X90632123Y-66999973D01*
X90643425Y-67073124D01*
X90631553Y-67169379D01*
X90595936Y-67260886D01*
X90536575Y-67347644D01*
X90707534Y-67347644D01*
X90751370Y-67263260D01*
X90777671Y-67170110D01*
X90786438Y-67068192D01*
X90773288Y-66940959D01*
X90733836Y-66842000D01*
X90668082Y-66771315D01*
X90576027Y-66728904D01*
X90457671Y-66714767D01*
X90330685Y-66732439D01*
X90229178Y-66785452D01*
X90170548Y-66845544D01*
X90113014Y-66931571D01*
X90056575Y-67043534D01*
X90007443Y-67116594D01*
X89941142Y-67160429D01*
X89857671Y-67175041D01*
X89790274Y-67163534D01*
X89739315Y-67129014D01*
X89707260Y-67074356D01*
X89696575Y-67002439D01*
X89714247Y-66874630D01*
X89767260Y-66747644D01*
X89602877Y-66747644D01*
X89575479Y-66836046D01*
X89559041Y-66928101D01*
X89553562Y-67023808D01*
X89416575Y-67023808D01*
X89416575Y-65827096D01*
X89570000Y-65827096D01*
X89570000Y-65991480D01*
X90597397Y-66052302D01*
X90597397Y-66055589D01*
X89767260Y-66142713D01*
X89767260Y-66289014D01*
X90482329Y-66379425D01*
X90482329Y-66382713D01*
X89570000Y-66440247D01*
X89570000Y-66616137D01*
X90770000Y-66509288D01*
X90770000Y-66331754D01*
X89964521Y-66234767D01*
X89964521Y-66229836D01*
X90770000Y-66147644D01*
X90770000Y-65933945D01*
X89570000Y-65827096D01*
X89416575Y-65827096D01*
X89416575Y-65220521D01*
X89570000Y-65220521D01*
X89570000Y-65402987D01*
X89737671Y-65690658D01*
X89898767Y-65690658D01*
X89740959Y-65407918D01*
X89742603Y-65404630D01*
X90770000Y-65404630D01*
X90770000Y-65220521D01*
X89570000Y-65220521D01*
X89416575Y-65220521D01*
X89416575Y-64878055D01*
X90923425Y-64878055D01*
X90923425Y-65220521D01*
X90923425Y-65404630D01*
X90923425Y-65933945D01*
G37*
%TO.C,kibuzzard-66AE0B80*%
G36*
X82701416Y-65179516D02*
G01*
X82830183Y-65199516D01*
X82919863Y-65232849D01*
X82998767Y-65311137D01*
X83025068Y-65426000D01*
X83010274Y-65499972D01*
X82091370Y-65499972D01*
X82076575Y-65426000D01*
X82102055Y-65312164D01*
X82178493Y-65233671D01*
X82263242Y-65199881D01*
X82381598Y-65179607D01*
X82533562Y-65172849D01*
X82701416Y-65179516D01*
G37*
G36*
X83303425Y-66492849D02*
G01*
X83303425Y-66944904D01*
X83303425Y-67355863D01*
X83303425Y-67698329D01*
X81796575Y-67698329D01*
X81796575Y-67355863D01*
X81796575Y-66912027D01*
X81933562Y-66912027D01*
X81949817Y-67047644D01*
X81998584Y-67158603D01*
X82079863Y-67244904D01*
X82163596Y-67293449D01*
X82268493Y-67328123D01*
X82394555Y-67348928D01*
X82541781Y-67355863D01*
X82688185Y-67349442D01*
X82815068Y-67330178D01*
X82922432Y-67298072D01*
X83010274Y-67253123D01*
X83078596Y-67195332D01*
X83127397Y-67124699D01*
X83156678Y-67041222D01*
X83166438Y-66944904D01*
X83160046Y-66846639D01*
X83140868Y-66753488D01*
X83108904Y-66665452D01*
X82434932Y-66665452D01*
X82434932Y-67048466D01*
X82574658Y-67048466D01*
X82574658Y-66841342D01*
X83005342Y-66841342D01*
X83025068Y-66939972D01*
X82997123Y-67040246D01*
X82913288Y-67114219D01*
X82822329Y-67148009D01*
X82698493Y-67168283D01*
X82541781Y-67175041D01*
X82388630Y-67167918D01*
X82268904Y-67146548D01*
X82182603Y-67110931D01*
X82104315Y-67029151D01*
X82078219Y-66912027D01*
X82088082Y-66811342D01*
X82117671Y-66706548D01*
X81969726Y-66706548D01*
X81942603Y-66807233D01*
X81933562Y-66912027D01*
X81796575Y-66912027D01*
X81796575Y-65868192D01*
X81950000Y-65868192D01*
X81950000Y-66040794D01*
X82821233Y-66040794D01*
X82821233Y-66045726D01*
X81950000Y-66302164D01*
X81950000Y-66492849D01*
X83150000Y-66492849D01*
X83150000Y-66312027D01*
X82278767Y-66312027D01*
X82278767Y-66308740D01*
X83150000Y-66052301D01*
X83150000Y-65868192D01*
X81950000Y-65868192D01*
X81796575Y-65868192D01*
X81796575Y-65426000D01*
X81933562Y-65426000D01*
X81941781Y-65555452D01*
X81966438Y-65684082D01*
X83133562Y-65684082D01*
X83158219Y-65560383D01*
X83166438Y-65426000D01*
X83152260Y-65289562D01*
X83109726Y-65182712D01*
X83032260Y-65101548D01*
X82913288Y-65042164D01*
X82808995Y-65015224D01*
X82682420Y-64999059D01*
X82533562Y-64993671D01*
X82379914Y-64999990D01*
X82251027Y-65018945D01*
X82146901Y-65050538D01*
X82067534Y-65094767D01*
X81993105Y-65176502D01*
X81948447Y-65286913D01*
X81933562Y-65426000D01*
X81796575Y-65426000D01*
X81796575Y-64993671D01*
X81796575Y-64651205D01*
X83303425Y-64651205D01*
X83303425Y-64993671D01*
X83303425Y-65426000D01*
X83303425Y-66492849D01*
G37*
%TO.C,kibuzzard-66AE0BA5*%
G36*
X87410753Y-64479151D02*
G01*
X87469726Y-64518603D01*
X87503630Y-64586000D01*
X87514932Y-64682986D01*
X87514932Y-64730658D01*
X87168082Y-64730658D01*
X87154932Y-64648466D01*
X87173744Y-64547096D01*
X87230183Y-64486274D01*
X87324247Y-64466000D01*
X87410753Y-64479151D01*
G37*
G36*
X87982397Y-64448945D02*
G01*
X88051644Y-64486548D01*
X88091712Y-64549630D01*
X88105068Y-64638603D01*
X88091918Y-64730658D01*
X87654658Y-64730658D01*
X87654658Y-64661616D01*
X87668219Y-64560521D01*
X87708904Y-64490658D01*
X87779178Y-64449973D01*
X87881507Y-64436411D01*
X87982397Y-64448945D01*
G37*
G36*
X88383425Y-65348740D02*
G01*
X88383425Y-66561890D01*
X88383425Y-66780521D01*
X88383425Y-67355863D01*
X88383425Y-67698329D01*
X86876575Y-67698329D01*
X86876575Y-67355863D01*
X86876575Y-66780521D01*
X87030000Y-66780521D01*
X87030000Y-67355863D01*
X88230000Y-67355863D01*
X88230000Y-66780521D01*
X88086986Y-66780521D01*
X88086986Y-67171753D01*
X87654658Y-67171753D01*
X87654658Y-66796959D01*
X87514932Y-66796959D01*
X87514932Y-67171753D01*
X87173014Y-67171753D01*
X87173014Y-66780521D01*
X87030000Y-66780521D01*
X86876575Y-66780521D01*
X86876575Y-65937233D01*
X87030000Y-65937233D01*
X87030000Y-66109836D01*
X87901233Y-66109836D01*
X87901233Y-66114767D01*
X87030000Y-66371206D01*
X87030000Y-66561890D01*
X88230000Y-66561890D01*
X88230000Y-66381069D01*
X87358767Y-66381069D01*
X87358767Y-66377781D01*
X88230000Y-66121343D01*
X88230000Y-65937233D01*
X87030000Y-65937233D01*
X86876575Y-65937233D01*
X86876575Y-65353671D01*
X87013562Y-65353671D01*
X87022937Y-65449990D01*
X87051062Y-65533466D01*
X87097937Y-65604099D01*
X87163562Y-65661890D01*
X87247937Y-65706839D01*
X87351062Y-65738945D01*
X87472937Y-65758209D01*
X87613562Y-65764630D01*
X87761892Y-65758132D01*
X87890445Y-65738637D01*
X87999221Y-65706146D01*
X88088219Y-65660658D01*
X88157440Y-65602173D01*
X88206884Y-65530692D01*
X88236550Y-65446214D01*
X88246438Y-65348740D01*
X88236164Y-65239014D01*
X88205342Y-65139973D01*
X88054110Y-65139973D01*
X88092329Y-65233671D01*
X88105068Y-65320795D01*
X88091416Y-65401160D01*
X88050457Y-65466913D01*
X87982192Y-65518055D01*
X87886621Y-65554585D01*
X87763744Y-65576502D01*
X87613562Y-65583808D01*
X87474429Y-65577187D01*
X87360594Y-65557324D01*
X87272055Y-65524219D01*
X87208813Y-65477872D01*
X87170868Y-65418283D01*
X87158219Y-65345452D01*
X87164795Y-65307644D01*
X87421233Y-65307644D01*
X87421233Y-65131753D01*
X87049726Y-65131753D01*
X87022603Y-65236548D01*
X87013562Y-65353671D01*
X86876575Y-65353671D01*
X86876575Y-64648466D01*
X87013562Y-64648466D01*
X87021781Y-64784082D01*
X87046438Y-64914767D01*
X88213562Y-64914767D01*
X88231826Y-64824174D01*
X88242785Y-64732119D01*
X88246438Y-64638603D01*
X88236393Y-64522073D01*
X88206256Y-64426731D01*
X88156027Y-64352575D01*
X88085708Y-64299607D01*
X87995297Y-64267827D01*
X87884795Y-64257233D01*
X87774658Y-64273055D01*
X87680959Y-64320521D01*
X87612329Y-64391822D01*
X87577397Y-64479151D01*
X87575753Y-64479151D01*
X87542055Y-64402096D01*
X87483699Y-64341890D01*
X87405616Y-64303055D01*
X87312740Y-64290110D01*
X87205036Y-64304444D01*
X87121266Y-64347447D01*
X87061430Y-64419118D01*
X87025529Y-64519458D01*
X87013562Y-64648466D01*
X86876575Y-64648466D01*
X86876575Y-64257233D01*
X86876575Y-63914767D01*
X88383425Y-63914767D01*
X88383425Y-64257233D01*
X88383425Y-64638603D01*
X88383425Y-65348740D01*
G37*
%TO.C,kibuzzard-66AE0B89*%
G36*
X80763425Y-66080247D02*
G01*
X80763425Y-66875863D01*
X80763425Y-67355863D01*
X80763425Y-67698329D01*
X79256575Y-67698329D01*
X79256575Y-67355863D01*
X79256575Y-66607918D01*
X79410000Y-66607918D01*
X79410000Y-66790384D01*
X80445616Y-66977781D01*
X80445616Y-66979425D01*
X79410000Y-67166822D01*
X79410000Y-67355863D01*
X80610000Y-67089562D01*
X80610000Y-66875863D01*
X79410000Y-66607918D01*
X79256575Y-66607918D01*
X79256575Y-66085178D01*
X79393562Y-66085178D01*
X79402937Y-66181497D01*
X79431062Y-66264973D01*
X79477937Y-66335606D01*
X79543562Y-66393398D01*
X79627937Y-66438346D01*
X79731062Y-66470452D01*
X79852937Y-66489716D01*
X79993562Y-66496137D01*
X80141892Y-66489639D01*
X80270445Y-66470144D01*
X80379221Y-66437653D01*
X80468219Y-66392165D01*
X80537440Y-66333680D01*
X80586884Y-66262199D01*
X80616550Y-66177721D01*
X80626438Y-66080247D01*
X80616164Y-65970521D01*
X80585342Y-65871480D01*
X80434110Y-65871480D01*
X80472329Y-65965178D01*
X80485068Y-66052302D01*
X80471416Y-66132667D01*
X80430457Y-66198420D01*
X80362192Y-66249562D01*
X80266621Y-66286092D01*
X80143744Y-66308009D01*
X79993562Y-66315315D01*
X79854429Y-66308694D01*
X79740594Y-66288831D01*
X79652055Y-66255726D01*
X79588813Y-66209379D01*
X79550868Y-66149790D01*
X79538219Y-66076959D01*
X79544795Y-66039151D01*
X79801233Y-66039151D01*
X79801233Y-65863261D01*
X79429726Y-65863261D01*
X79402603Y-65968055D01*
X79393562Y-66085178D01*
X79256575Y-66085178D01*
X79256575Y-65263261D01*
X79393562Y-65263261D01*
X79402937Y-65359579D01*
X79431062Y-65443055D01*
X79477937Y-65513689D01*
X79543562Y-65571480D01*
X79627937Y-65616428D01*
X79731062Y-65648535D01*
X79852937Y-65667798D01*
X79993562Y-65674219D01*
X80141892Y-65667721D01*
X80270445Y-65648226D01*
X80379221Y-65615735D01*
X80468219Y-65570247D01*
X80537440Y-65511762D01*
X80586884Y-65440281D01*
X80616550Y-65355803D01*
X80626438Y-65258329D01*
X80616164Y-65148603D01*
X80585342Y-65049562D01*
X80434110Y-65049562D01*
X80472329Y-65143261D01*
X80485068Y-65230384D01*
X80471416Y-65310749D01*
X80430457Y-65376503D01*
X80362192Y-65427644D01*
X80266621Y-65464174D01*
X80143744Y-65486092D01*
X79993562Y-65493398D01*
X79854429Y-65486777D01*
X79740594Y-65466914D01*
X79652055Y-65433808D01*
X79588813Y-65387461D01*
X79550868Y-65327872D01*
X79538219Y-65255041D01*
X79544795Y-65217233D01*
X79801233Y-65217233D01*
X79801233Y-65041343D01*
X79429726Y-65041343D01*
X79402603Y-65146137D01*
X79393562Y-65263261D01*
X79256575Y-65263261D01*
X79256575Y-65041343D01*
X79256575Y-64698877D01*
X80763425Y-64698877D01*
X80763425Y-65041343D01*
X80763425Y-65258329D01*
X80763425Y-66080247D01*
G37*
D10*
%TO.C,ENC1*%
X81035000Y-53540000D02*
X81035000Y-56520000D01*
X81035000Y-56520000D02*
X90935000Y-56520000D01*
X90935000Y-56520000D02*
X90935000Y-54610000D01*
X95235000Y-47220000D02*
G75*
G02*
X78235000Y-47220000I-8500000J0D01*
G01*
X78235000Y-47220000D02*
G75*
G02*
X95235000Y-47220000I8500000J0D01*
G01*
D11*
%TO.C,J1*%
X78680000Y-70545000D02*
X78680000Y-69215000D01*
X80010000Y-70545000D02*
X78680000Y-70545000D01*
X81280000Y-67885000D02*
X94040000Y-67885000D01*
X81280000Y-70545000D02*
X81280000Y-67885000D01*
X81280000Y-70545000D02*
X94040000Y-70545000D01*
X94040000Y-70545000D02*
X94040000Y-67885000D01*
%TO.C,R2*%
X91975000Y-62457064D02*
X91975000Y-62002936D01*
X93445000Y-62457064D02*
X93445000Y-62002936D01*
D12*
%TO.C,kibuzzard-66AE0BB5*%
G36*
X93463425Y-65933946D02*
G01*
X93463425Y-67068192D01*
X93463425Y-67355863D01*
X93463425Y-67698329D01*
X91956575Y-67698329D01*
X91956575Y-67355863D01*
X91956575Y-67023809D01*
X92093562Y-67023809D01*
X92102694Y-67121982D01*
X92130091Y-67203900D01*
X92175753Y-67269562D01*
X92274384Y-67334288D01*
X92405890Y-67355863D01*
X92522603Y-67338809D01*
X92619589Y-67287644D01*
X92676575Y-67231115D01*
X92731370Y-67152484D01*
X92783973Y-67051754D01*
X92826301Y-66981274D01*
X92874384Y-66934220D01*
X92932740Y-66907713D01*
X93005890Y-66898877D01*
X93082534Y-66910384D01*
X93138219Y-66944904D01*
X93172123Y-66999973D01*
X93183425Y-67073124D01*
X93171553Y-67169379D01*
X93135936Y-67260886D01*
X93076575Y-67347644D01*
X93247534Y-67347644D01*
X93291370Y-67263261D01*
X93317671Y-67170110D01*
X93326438Y-67068192D01*
X93313288Y-66940959D01*
X93273836Y-66842000D01*
X93208082Y-66771315D01*
X93116027Y-66728904D01*
X92997671Y-66714768D01*
X92870685Y-66732439D01*
X92769178Y-66785452D01*
X92710548Y-66845544D01*
X92653014Y-66931571D01*
X92596575Y-67043535D01*
X92547443Y-67116594D01*
X92481142Y-67160430D01*
X92397671Y-67175041D01*
X92330274Y-67163535D01*
X92279315Y-67129014D01*
X92247260Y-67074357D01*
X92236575Y-67002439D01*
X92254247Y-66874631D01*
X92307260Y-66747644D01*
X92142877Y-66747644D01*
X92115479Y-66836046D01*
X92099041Y-66928101D01*
X92093562Y-67023809D01*
X91956575Y-67023809D01*
X91956575Y-65827096D01*
X92110000Y-65827096D01*
X92110000Y-65991480D01*
X93137397Y-66052302D01*
X93137397Y-66055589D01*
X92307260Y-66142713D01*
X92307260Y-66289014D01*
X93022329Y-66379425D01*
X93022329Y-66382713D01*
X92110000Y-66440247D01*
X92110000Y-66616137D01*
X93310000Y-66509288D01*
X93310000Y-66331754D01*
X92504521Y-66234768D01*
X92504521Y-66229836D01*
X93310000Y-66147644D01*
X93310000Y-65933946D01*
X92110000Y-65827096D01*
X91956575Y-65827096D01*
X91956575Y-65402987D01*
X92093562Y-65402987D01*
X92103059Y-65507096D01*
X92131553Y-65604631D01*
X92179041Y-65695589D01*
X92333562Y-65695589D01*
X92279680Y-65602987D01*
X92247352Y-65518055D01*
X92236575Y-65440795D01*
X92280959Y-65333124D01*
X92338493Y-65306617D01*
X92422329Y-65297781D01*
X92512404Y-65305900D01*
X92607914Y-65330255D01*
X92708859Y-65370848D01*
X92815239Y-65427678D01*
X92927053Y-65500745D01*
X93044302Y-65590048D01*
X93166986Y-65695589D01*
X93310000Y-65695589D01*
X93310000Y-65103809D01*
X93166986Y-65103809D01*
X93166986Y-65504904D01*
X93163699Y-65504904D01*
X93048836Y-65408483D01*
X92940959Y-65326343D01*
X92840068Y-65258483D01*
X92746164Y-65204904D01*
X92628904Y-65153306D01*
X92518219Y-65122347D01*
X92414110Y-65112028D01*
X92275411Y-65130726D01*
X92174932Y-65186822D01*
X92113904Y-65278261D01*
X92093562Y-65402987D01*
X91956575Y-65402987D01*
X91956575Y-65103809D01*
X91956575Y-64761343D01*
X93463425Y-64761343D01*
X93463425Y-65103809D01*
X93463425Y-65933946D01*
G37*
%TD*%
%LPC*%
D13*
%TO.C,C1*%
X82550000Y-63180000D03*
X82550000Y-61280000D03*
%TD*%
D14*
%TO.C,C2*%
X90170000Y-61280000D03*
X90170000Y-63180000D03*
%TD*%
D15*
%TO.C,R1*%
X80010000Y-63142500D03*
X80010000Y-61317500D03*
%TD*%
D16*
%TO.C,ENC1*%
X81485000Y-57420000D03*
X90235000Y-57420000D03*
X83235000Y-57420000D03*
D17*
X80335000Y-55220000D03*
D18*
X86735000Y-43120000D03*
D17*
X91735000Y-55220000D03*
D16*
X84985000Y-57420000D03*
X88485000Y-57420000D03*
X86735000Y-57420000D03*
%TD*%
D19*
%TO.C,J1*%
X80010000Y-69215000D03*
D20*
X82550000Y-69215000D03*
X85090000Y-69215000D03*
X87630000Y-69215000D03*
X90170000Y-69215000D03*
X92710000Y-69215000D03*
%TD*%
D15*
%TO.C,R2*%
X92710000Y-63142500D03*
X92710000Y-61317500D03*
%TD*%
%LPD*%
M02*
