%TF.GenerationSoftware,KiCad,Pcbnew,8.0.4*%
%TF.CreationDate,2024-08-04T00:04:10+10:00*%
%TF.ProjectId,EVQWKL001-breadboard,45565157-4b4c-4303-9031-2d6272656164,rev?*%
%TF.SameCoordinates,Original*%
%TF.FileFunction,Copper,L1,Top*%
%TF.FilePolarity,Positive*%
%FSLAX46Y46*%
G04 Gerber Fmt 4.6, Leading zero omitted, Abs format (unit mm)*
G04 Created by KiCad (PCBNEW 8.0.4) date 2024-08-04 00:04:10*
%MOMM*%
%LPD*%
G01*
G04 APERTURE LIST*
G04 Aperture macros list*
%AMRoundRect*
0 Rectangle with rounded corners*
0 $1 Rounding radius*
0 $2 $3 $4 $5 $6 $7 $8 $9 X,Y pos of 4 corners*
0 Add a 4 corners polygon primitive as box body*
4,1,4,$2,$3,$4,$5,$6,$7,$8,$9,$2,$3,0*
0 Add four circle primitives for the rounded corners*
1,1,$1+$1,$2,$3*
1,1,$1+$1,$4,$5*
1,1,$1+$1,$6,$7*
1,1,$1+$1,$8,$9*
0 Add four rect primitives between the rounded corners*
20,1,$1+$1,$2,$3,$4,$5,0*
20,1,$1+$1,$4,$5,$6,$7,0*
20,1,$1+$1,$6,$7,$8,$9,0*
20,1,$1+$1,$8,$9,$2,$3,0*%
G04 Aperture macros list end*
%TA.AperFunction,SMDPad,CuDef*%
%ADD10RoundRect,0.250000X0.475000X-0.250000X0.475000X0.250000X-0.475000X0.250000X-0.475000X-0.250000X0*%
%TD*%
%TA.AperFunction,SMDPad,CuDef*%
%ADD11RoundRect,0.250000X-0.475000X0.250000X-0.475000X-0.250000X0.475000X-0.250000X0.475000X0.250000X0*%
%TD*%
%TA.AperFunction,SMDPad,CuDef*%
%ADD12RoundRect,0.250000X0.450000X-0.262500X0.450000X0.262500X-0.450000X0.262500X-0.450000X-0.262500X0*%
%TD*%
%TA.AperFunction,SMDPad,CuDef*%
%ADD13R,0.800000X1.600000*%
%TD*%
%TA.AperFunction,ComponentPad*%
%ADD14O,1.600000X2.200000*%
%TD*%
%TA.AperFunction,ComponentPad*%
%ADD15O,1.800000X1.600000*%
%TD*%
%TA.AperFunction,ComponentPad*%
%ADD16R,1.700000X1.700000*%
%TD*%
%TA.AperFunction,ComponentPad*%
%ADD17O,1.700000X1.700000*%
%TD*%
%TA.AperFunction,ViaPad*%
%ADD18C,0.600000*%
%TD*%
%TA.AperFunction,Conductor*%
%ADD19C,0.130000*%
%TD*%
G04 APERTURE END LIST*
D10*
%TO.P,C1,1*%
%TO.N,ENC_A*%
X82550000Y-63180000D03*
%TO.P,C1,2*%
%TO.N,GND*%
X82550000Y-61280000D03*
%TD*%
D11*
%TO.P,C2,1*%
%TO.N,GND*%
X90170000Y-61280000D03*
%TO.P,C2,2*%
%TO.N,ENC_B*%
X90170000Y-63180000D03*
%TD*%
D12*
%TO.P,R1,1*%
%TO.N,ENC_A*%
X80010000Y-63142500D03*
%TO.P,R1,2*%
%TO.N,+3.3V*%
X80010000Y-61317500D03*
%TD*%
D13*
%TO.P,ENC1,A,A*%
%TO.N,ENC_A*%
X81485000Y-57420000D03*
%TO.P,ENC1,B,B*%
%TO.N,ENC_B*%
X90235000Y-57420000D03*
%TO.P,ENC1,C,C*%
%TO.N,GND*%
X83235000Y-57420000D03*
D14*
%TO.P,ENC1,GND*%
%TO.N,N/C*%
X80335000Y-55220000D03*
D15*
X86735000Y-43120000D03*
D14*
X91735000Y-55220000D03*
D13*
%TO.P,ENC1,S1,S1*%
%TO.N,SW1*%
X84985000Y-57420000D03*
X88485000Y-57420000D03*
%TO.P,ENC1,S2,S2*%
%TO.N,SW2*%
X86735000Y-57420000D03*
%TD*%
D16*
%TO.P,J1,1,Pin_1*%
%TO.N,+3.3V*%
X80010000Y-69215000D03*
D17*
%TO.P,J1,2,Pin_2*%
%TO.N,GND*%
X82550000Y-69215000D03*
%TO.P,J1,3,Pin_3*%
%TO.N,ENC_A*%
X85090000Y-69215000D03*
%TO.P,J1,4,Pin_4*%
%TO.N,ENC_B*%
X87630000Y-69215000D03*
%TO.P,J1,5,Pin_5*%
%TO.N,SW1*%
X90170000Y-69215000D03*
%TO.P,J1,6,Pin_6*%
%TO.N,SW2*%
X92710000Y-69215000D03*
%TD*%
D12*
%TO.P,R2,1*%
%TO.N,ENC_B*%
X92710000Y-63142500D03*
%TO.P,R2,2*%
%TO.N,+3.3V*%
X92710000Y-61317500D03*
%TD*%
D18*
%TO.N,ENC_B*%
X88900000Y-63180000D03*
%TD*%
D19*
%TO.N,GND*%
X86360000Y-69850000D02*
X86360000Y-67310000D01*
X82550000Y-69215000D02*
X83595000Y-70260000D01*
X83595000Y-70260000D02*
X85950000Y-70260000D01*
X85950000Y-70260000D02*
X86360000Y-69850000D01*
%TO.N,ENC_A*%
X82512500Y-63142500D02*
X82550000Y-63180000D01*
X82550000Y-63180000D02*
X81485000Y-62115000D01*
X85090000Y-65720000D02*
X82550000Y-63180000D01*
X80010000Y-63142500D02*
X82512500Y-63142500D01*
X81485000Y-62115000D02*
X81485000Y-57420000D01*
X85090000Y-69215000D02*
X85090000Y-65720000D01*
%TO.N,ENC_B*%
X91090000Y-62260000D02*
X91090000Y-58275000D01*
X88900000Y-63180000D02*
X90170000Y-63180000D01*
X91090000Y-58275000D02*
X90235000Y-57420000D01*
X90170000Y-63180000D02*
X91090000Y-62260000D01*
X92710000Y-63142500D02*
X90207500Y-63142500D01*
X90207500Y-63142500D02*
X90170000Y-63180000D01*
%TO.N,SW1*%
X87490000Y-56425000D02*
X88485000Y-57420000D01*
X85980000Y-56425000D02*
X87490000Y-56425000D01*
X90170000Y-67879964D02*
X84985000Y-62694964D01*
X84985000Y-57420000D02*
X85980000Y-56425000D01*
X90170000Y-69215000D02*
X90170000Y-67879964D01*
X84985000Y-62694964D02*
X84985000Y-57420000D01*
%TO.N,SW2*%
X92710000Y-69215000D02*
X92644964Y-69215000D01*
X92644964Y-69215000D02*
X86735000Y-63305036D01*
X86735000Y-63305036D02*
X86735000Y-57420000D01*
%TD*%
%TA.AperFunction,Conductor*%
%TO.N,GND*%
G36*
X83904549Y-69881110D02*
G01*
X83921269Y-69900405D01*
X84051505Y-70086401D01*
X84051506Y-70086402D01*
X84197923Y-70232819D01*
X84231408Y-70294142D01*
X84226424Y-70363834D01*
X84184552Y-70419767D01*
X84119088Y-70444184D01*
X84110242Y-70444500D01*
X83529050Y-70444500D01*
X83462011Y-70424815D01*
X83416256Y-70372011D01*
X83406312Y-70302853D01*
X83435337Y-70239297D01*
X83441369Y-70232819D01*
X83588105Y-70086082D01*
X83718119Y-69900405D01*
X83772696Y-69856781D01*
X83842195Y-69849588D01*
X83904549Y-69881110D01*
G37*
%TD.AperFunction*%
%TA.AperFunction,Conductor*%
G36*
X86444855Y-69881546D02*
G01*
X86461575Y-69900842D01*
X86591501Y-70086396D01*
X86591506Y-70086402D01*
X86737923Y-70232819D01*
X86771408Y-70294142D01*
X86766424Y-70363834D01*
X86724552Y-70419767D01*
X86659088Y-70444184D01*
X86650242Y-70444500D01*
X86069758Y-70444500D01*
X86002719Y-70424815D01*
X85956964Y-70372011D01*
X85947020Y-70302853D01*
X85976045Y-70239297D01*
X85982077Y-70232819D01*
X86042413Y-70172483D01*
X86128495Y-70086401D01*
X86258425Y-69900842D01*
X86313002Y-69857217D01*
X86382500Y-69850023D01*
X86444855Y-69881546D01*
G37*
%TD.AperFunction*%
%TA.AperFunction,Conductor*%
G36*
X81362523Y-63727685D02*
G01*
X81401021Y-63766901D01*
X81482288Y-63898656D01*
X81606344Y-64022712D01*
X81755666Y-64114814D01*
X81922203Y-64169999D01*
X82024991Y-64180500D01*
X82699399Y-64180499D01*
X82766438Y-64200183D01*
X82787080Y-64216818D01*
X84488181Y-65917919D01*
X84521666Y-65979242D01*
X84524500Y-66005600D01*
X84524500Y-67909587D01*
X84504815Y-67976626D01*
X84452907Y-68021968D01*
X84412173Y-68040963D01*
X84412169Y-68040965D01*
X84218597Y-68176505D01*
X84051508Y-68343594D01*
X83921269Y-68529595D01*
X83866692Y-68573219D01*
X83797193Y-68580412D01*
X83734839Y-68548890D01*
X83718119Y-68529594D01*
X83588113Y-68343926D01*
X83588108Y-68343920D01*
X83421082Y-68176894D01*
X83227578Y-68041399D01*
X83013492Y-67941570D01*
X83013486Y-67941567D01*
X82800000Y-67884364D01*
X82800000Y-68781988D01*
X82742993Y-68749075D01*
X82615826Y-68715000D01*
X82484174Y-68715000D01*
X82357007Y-68749075D01*
X82300000Y-68781988D01*
X82300000Y-67884364D01*
X82299999Y-67884364D01*
X82086513Y-67941567D01*
X82086507Y-67941570D01*
X81872422Y-68041399D01*
X81872420Y-68041400D01*
X81678926Y-68176886D01*
X81556865Y-68298947D01*
X81495542Y-68332431D01*
X81425850Y-68327447D01*
X81369917Y-68285575D01*
X81353002Y-68254598D01*
X81303797Y-68122671D01*
X81303793Y-68122664D01*
X81217547Y-68007455D01*
X81217544Y-68007452D01*
X81102335Y-67921206D01*
X81102328Y-67921202D01*
X80967482Y-67870908D01*
X80967483Y-67870908D01*
X80907883Y-67864501D01*
X80907881Y-67864500D01*
X80907873Y-67864500D01*
X80907864Y-67864500D01*
X79112129Y-67864500D01*
X79112123Y-67864501D01*
X79052517Y-67870908D01*
X79007831Y-67887575D01*
X78938140Y-67892558D01*
X78876817Y-67859072D01*
X78843333Y-67797748D01*
X78840500Y-67771392D01*
X78840500Y-64046230D01*
X78860185Y-63979191D01*
X78912989Y-63933436D01*
X78982147Y-63923492D01*
X79045703Y-63952517D01*
X79052181Y-63958549D01*
X79091344Y-63997712D01*
X79240666Y-64089814D01*
X79407203Y-64144999D01*
X79509991Y-64155500D01*
X80510008Y-64155499D01*
X80510016Y-64155498D01*
X80510019Y-64155498D01*
X80566302Y-64149748D01*
X80612797Y-64144999D01*
X80779334Y-64089814D01*
X80928656Y-63997712D01*
X81052712Y-63873656D01*
X81118557Y-63766902D01*
X81170505Y-63720179D01*
X81224096Y-63708000D01*
X81295484Y-63708000D01*
X81362523Y-63727685D01*
G37*
%TD.AperFunction*%
%TA.AperFunction,Conductor*%
G36*
X89509049Y-41395185D02*
G01*
X89529691Y-41411819D01*
X93843181Y-45725309D01*
X93876666Y-45786632D01*
X93879500Y-45812990D01*
X93879500Y-60413770D01*
X93859815Y-60480809D01*
X93807011Y-60526564D01*
X93737853Y-60536508D01*
X93674297Y-60507483D01*
X93667819Y-60501451D01*
X93628657Y-60462289D01*
X93628656Y-60462288D01*
X93484407Y-60373315D01*
X93479336Y-60370187D01*
X93479331Y-60370185D01*
X93456495Y-60362618D01*
X93312797Y-60315001D01*
X93312795Y-60315000D01*
X93210010Y-60304500D01*
X92209998Y-60304500D01*
X92209980Y-60304501D01*
X92107203Y-60315000D01*
X92107200Y-60315001D01*
X91940668Y-60370185D01*
X91940659Y-60370190D01*
X91844596Y-60429441D01*
X91777203Y-60447881D01*
X91710540Y-60426958D01*
X91665771Y-60373315D01*
X91655500Y-60323902D01*
X91655500Y-58200552D01*
X91655500Y-58200550D01*
X91616962Y-58056725D01*
X91542513Y-57927775D01*
X91437225Y-57822487D01*
X91437224Y-57822486D01*
X91432894Y-57818156D01*
X91432883Y-57818146D01*
X91171818Y-57557081D01*
X91138333Y-57495758D01*
X91135499Y-57469400D01*
X91135499Y-56863307D01*
X91155184Y-56796268D01*
X91207988Y-56750513D01*
X91277146Y-56740569D01*
X91297806Y-56745373D01*
X91399027Y-56778262D01*
X91430465Y-56788477D01*
X91531557Y-56804488D01*
X91632648Y-56820500D01*
X91632649Y-56820500D01*
X91837351Y-56820500D01*
X91837352Y-56820500D01*
X92039534Y-56788477D01*
X92234219Y-56725220D01*
X92416610Y-56632287D01*
X92581461Y-56512517D01*
X92582213Y-56511971D01*
X92582215Y-56511968D01*
X92582219Y-56511966D01*
X92726966Y-56367219D01*
X92726968Y-56367215D01*
X92726971Y-56367213D01*
X92802823Y-56262810D01*
X92847287Y-56201610D01*
X92940220Y-56019219D01*
X93003477Y-55824534D01*
X93035500Y-55622352D01*
X93035500Y-54817648D01*
X93003477Y-54615466D01*
X92940220Y-54420781D01*
X92940218Y-54420778D01*
X92940218Y-54420776D01*
X92906503Y-54354607D01*
X92847287Y-54238390D01*
X92839556Y-54227749D01*
X92726971Y-54072786D01*
X92582213Y-53928028D01*
X92416613Y-53807715D01*
X92416612Y-53807714D01*
X92416610Y-53807713D01*
X92359653Y-53778691D01*
X92234223Y-53714781D01*
X92039534Y-53651522D01*
X91864995Y-53623878D01*
X91837352Y-53619500D01*
X91632648Y-53619500D01*
X91608329Y-53623351D01*
X91430465Y-53651522D01*
X91235776Y-53714781D01*
X91053386Y-53807715D01*
X90887786Y-53928028D01*
X90743028Y-54072786D01*
X90622715Y-54238386D01*
X90529781Y-54420776D01*
X90466522Y-54615465D01*
X90434500Y-54817648D01*
X90434500Y-55622351D01*
X90466523Y-55824535D01*
X90466523Y-55824538D01*
X90509622Y-55957182D01*
X90511617Y-56027023D01*
X90475537Y-56086856D01*
X90412836Y-56117684D01*
X90391691Y-56119500D01*
X89787129Y-56119500D01*
X89787123Y-56119501D01*
X89727516Y-56125908D01*
X89592671Y-56176202D01*
X89592664Y-56176206D01*
X89477455Y-56262452D01*
X89459266Y-56286750D01*
X89403332Y-56328620D01*
X89333640Y-56333604D01*
X89272317Y-56300118D01*
X89260734Y-56286750D01*
X89260603Y-56286575D01*
X89242546Y-56262454D01*
X89242544Y-56262453D01*
X89242544Y-56262452D01*
X89127335Y-56176206D01*
X89127328Y-56176202D01*
X88992482Y-56125908D01*
X88992483Y-56125908D01*
X88932883Y-56119501D01*
X88932881Y-56119500D01*
X88932873Y-56119500D01*
X88932865Y-56119500D01*
X88035600Y-56119500D01*
X87968561Y-56099815D01*
X87947919Y-56083181D01*
X87837226Y-55972488D01*
X87837221Y-55972484D01*
X87708277Y-55898039D01*
X87708276Y-55898038D01*
X87672318Y-55888403D01*
X87564450Y-55859500D01*
X86054450Y-55859500D01*
X85905550Y-55859500D01*
X85819255Y-55882622D01*
X85761723Y-55898038D01*
X85761722Y-55898039D01*
X85632778Y-55972484D01*
X85632773Y-55972488D01*
X85522078Y-56083182D01*
X85460755Y-56116666D01*
X85434398Y-56119500D01*
X84537129Y-56119500D01*
X84537123Y-56119501D01*
X84477516Y-56125908D01*
X84342671Y-56176202D01*
X84342664Y-56176206D01*
X84227456Y-56262452D01*
X84227455Y-56262453D01*
X84227454Y-56262454D01*
X84216417Y-56277196D01*
X84208952Y-56287169D01*
X84153017Y-56329038D01*
X84083325Y-56334020D01*
X84022003Y-56300533D01*
X84010420Y-56287165D01*
X83992188Y-56262810D01*
X83992187Y-56262809D01*
X83877093Y-56176649D01*
X83877086Y-56176645D01*
X83742379Y-56126403D01*
X83742372Y-56126401D01*
X83682844Y-56120000D01*
X83485000Y-56120000D01*
X83485000Y-58720000D01*
X83682828Y-58720000D01*
X83682844Y-58719999D01*
X83742372Y-58713598D01*
X83742379Y-58713596D01*
X83877086Y-58663354D01*
X83877093Y-58663350D01*
X83992185Y-58577192D01*
X84010418Y-58552835D01*
X84066351Y-58510963D01*
X84136043Y-58505977D01*
X84197367Y-58539461D01*
X84208953Y-58552832D01*
X84227455Y-58577547D01*
X84342664Y-58663793D01*
X84350454Y-58668047D01*
X84349283Y-58670191D01*
X84394757Y-58704223D01*
X84419183Y-58769684D01*
X84419500Y-58778547D01*
X84419500Y-62620514D01*
X84419500Y-62769414D01*
X84435862Y-62830476D01*
X84458038Y-62913240D01*
X84458039Y-62913241D01*
X84532484Y-63042185D01*
X84532488Y-63042190D01*
X89410668Y-67920370D01*
X89444153Y-67981693D01*
X89439169Y-68051385D01*
X89397297Y-68107318D01*
X89394111Y-68109625D01*
X89298598Y-68176504D01*
X89131505Y-68343597D01*
X89001575Y-68529158D01*
X88946998Y-68572783D01*
X88877500Y-68579977D01*
X88815145Y-68548454D01*
X88798425Y-68529158D01*
X88668494Y-68343597D01*
X88501402Y-68176506D01*
X88501399Y-68176504D01*
X88424518Y-68122671D01*
X88307834Y-68040967D01*
X88307830Y-68040965D01*
X88307821Y-68040961D01*
X88093663Y-67941097D01*
X88093659Y-67941096D01*
X88093655Y-67941094D01*
X87865413Y-67879938D01*
X87865403Y-67879936D01*
X87630001Y-67859341D01*
X87629999Y-67859341D01*
X87394596Y-67879936D01*
X87394586Y-67879938D01*
X87166344Y-67941094D01*
X87166335Y-67941098D01*
X86952171Y-68040964D01*
X86952169Y-68040965D01*
X86758597Y-68176505D01*
X86591505Y-68343597D01*
X86461575Y-68529158D01*
X86406998Y-68572783D01*
X86337500Y-68579977D01*
X86275145Y-68548454D01*
X86258425Y-68529158D01*
X86128494Y-68343597D01*
X85961402Y-68176506D01*
X85961399Y-68176504D01*
X85884518Y-68122671D01*
X85767831Y-68040965D01*
X85767824Y-68040961D01*
X85727094Y-68021968D01*
X85674655Y-67975795D01*
X85655500Y-67909587D01*
X85655500Y-65645552D01*
X85655500Y-65645550D01*
X85616962Y-65501725D01*
X85542513Y-65372775D01*
X85437225Y-65267487D01*
X83805509Y-63635771D01*
X83772024Y-63574448D01*
X83769832Y-63535487D01*
X83775500Y-63480009D01*
X83775499Y-62879992D01*
X83764999Y-62777203D01*
X83709814Y-62610666D01*
X83617712Y-62461344D01*
X83493656Y-62337288D01*
X83490342Y-62335243D01*
X83488546Y-62333248D01*
X83487989Y-62332807D01*
X83488064Y-62332711D01*
X83443618Y-62283297D01*
X83432397Y-62214334D01*
X83460240Y-62150252D01*
X83490348Y-62124165D01*
X83493342Y-62122318D01*
X83617315Y-61998345D01*
X83709356Y-61849124D01*
X83709358Y-61849119D01*
X83764505Y-61682697D01*
X83764506Y-61682690D01*
X83774999Y-61579986D01*
X83775000Y-61579973D01*
X83775000Y-61530000D01*
X82424000Y-61530000D01*
X82356961Y-61510315D01*
X82311206Y-61457511D01*
X82300000Y-61406000D01*
X82300000Y-61030000D01*
X82800000Y-61030000D01*
X83774999Y-61030000D01*
X83774999Y-60980028D01*
X83774998Y-60980013D01*
X83764505Y-60877302D01*
X83709358Y-60710880D01*
X83709356Y-60710875D01*
X83617315Y-60561654D01*
X83493345Y-60437684D01*
X83344124Y-60345643D01*
X83344119Y-60345641D01*
X83177697Y-60290494D01*
X83177690Y-60290493D01*
X83074986Y-60280000D01*
X82800000Y-60280000D01*
X82800000Y-61030000D01*
X82300000Y-61030000D01*
X82300000Y-60280000D01*
X82174500Y-60280000D01*
X82107461Y-60260315D01*
X82061706Y-60207511D01*
X82050500Y-60156000D01*
X82050500Y-58778547D01*
X82070185Y-58711508D01*
X82119801Y-58668514D01*
X82119546Y-58668047D01*
X82121697Y-58666872D01*
X82122989Y-58665753D01*
X82126128Y-58664452D01*
X82127326Y-58663797D01*
X82127331Y-58663796D01*
X82242546Y-58577546D01*
X82261045Y-58552833D01*
X82316978Y-58510962D01*
X82386670Y-58505978D01*
X82447993Y-58539462D01*
X82459579Y-58552833D01*
X82477813Y-58577191D01*
X82592906Y-58663350D01*
X82592913Y-58663354D01*
X82727620Y-58713596D01*
X82727627Y-58713598D01*
X82787155Y-58719999D01*
X82787172Y-58720000D01*
X82985000Y-58720000D01*
X82985000Y-56120000D01*
X82787155Y-56120000D01*
X82727627Y-56126401D01*
X82727620Y-56126403D01*
X82592913Y-56176645D01*
X82592906Y-56176649D01*
X82477812Y-56262809D01*
X82459578Y-56287167D01*
X82403644Y-56329037D01*
X82333952Y-56334021D01*
X82272629Y-56300535D01*
X82261046Y-56287167D01*
X82260734Y-56286750D01*
X82242546Y-56262454D01*
X82242544Y-56262453D01*
X82242544Y-56262452D01*
X82127335Y-56176206D01*
X82127328Y-56176202D01*
X81992482Y-56125908D01*
X81992483Y-56125908D01*
X81932883Y-56119501D01*
X81932881Y-56119500D01*
X81932873Y-56119500D01*
X81932865Y-56119500D01*
X81678308Y-56119500D01*
X81611269Y-56099815D01*
X81565514Y-56047011D01*
X81555570Y-55977853D01*
X81560377Y-55957181D01*
X81575119Y-55911812D01*
X81603477Y-55824534D01*
X81635500Y-55622352D01*
X81635500Y-54817648D01*
X81603477Y-54615466D01*
X81540220Y-54420781D01*
X81540218Y-54420778D01*
X81540218Y-54420776D01*
X81506503Y-54354607D01*
X81447287Y-54238390D01*
X81439556Y-54227749D01*
X81326971Y-54072786D01*
X81182213Y-53928028D01*
X81016613Y-53807715D01*
X81016612Y-53807714D01*
X81016610Y-53807713D01*
X80959653Y-53778691D01*
X80834223Y-53714781D01*
X80639534Y-53651522D01*
X80464995Y-53623878D01*
X80437352Y-53619500D01*
X80232648Y-53619500D01*
X80208329Y-53623351D01*
X80030465Y-53651522D01*
X79835776Y-53714781D01*
X79653386Y-53807715D01*
X79487786Y-53928028D01*
X79343028Y-54072786D01*
X79222715Y-54238386D01*
X79129781Y-54420776D01*
X79082431Y-54566506D01*
X79042993Y-54624181D01*
X78978634Y-54651379D01*
X78909788Y-54639464D01*
X78858312Y-54592220D01*
X78840500Y-54528187D01*
X78840500Y-53535834D01*
X85880500Y-53535834D01*
X85880500Y-53704165D01*
X85913336Y-53869241D01*
X85913338Y-53869249D01*
X85977750Y-54024755D01*
X85977755Y-54024764D01*
X86071265Y-54164711D01*
X86071268Y-54164715D01*
X86190284Y-54283731D01*
X86190288Y-54283734D01*
X86330235Y-54377244D01*
X86330241Y-54377247D01*
X86330242Y-54377248D01*
X86485751Y-54441662D01*
X86650834Y-54474499D01*
X86650838Y-54474500D01*
X86650839Y-54474500D01*
X86819162Y-54474500D01*
X86819163Y-54474499D01*
X86984249Y-54441662D01*
X87139758Y-54377248D01*
X87279712Y-54283734D01*
X87398734Y-54164712D01*
X87492248Y-54024758D01*
X87556662Y-53869249D01*
X87589500Y-53704161D01*
X87589500Y-53535839D01*
X87556662Y-53370751D01*
X87492248Y-53215242D01*
X87492247Y-53215241D01*
X87492244Y-53215235D01*
X87398734Y-53075288D01*
X87398731Y-53075284D01*
X87279715Y-52956268D01*
X87279711Y-52956265D01*
X87139764Y-52862755D01*
X87139755Y-52862750D01*
X86984249Y-52798338D01*
X86984241Y-52798336D01*
X86819165Y-52765500D01*
X86819161Y-52765500D01*
X86650839Y-52765500D01*
X86650834Y-52765500D01*
X86485758Y-52798336D01*
X86485750Y-52798338D01*
X86330244Y-52862750D01*
X86330235Y-52862755D01*
X86190288Y-52956265D01*
X86190284Y-52956268D01*
X86071268Y-53075284D01*
X86071265Y-53075288D01*
X85977755Y-53215235D01*
X85977750Y-53215244D01*
X85913338Y-53370750D01*
X85913336Y-53370758D01*
X85880500Y-53535834D01*
X78840500Y-53535834D01*
X78840500Y-45812990D01*
X78860185Y-45745951D01*
X78876819Y-45725309D01*
X81584481Y-43017648D01*
X85334500Y-43017648D01*
X85334500Y-43222351D01*
X85366522Y-43424534D01*
X85429781Y-43619223D01*
X85522715Y-43801613D01*
X85643028Y-43967213D01*
X85787786Y-44111971D01*
X85942749Y-44224556D01*
X85953390Y-44232287D01*
X86069607Y-44291503D01*
X86135776Y-44325218D01*
X86135778Y-44325218D01*
X86135781Y-44325220D01*
X86240137Y-44359127D01*
X86330465Y-44388477D01*
X86431557Y-44404488D01*
X86532648Y-44420500D01*
X86532649Y-44420500D01*
X86937351Y-44420500D01*
X86937352Y-44420500D01*
X87139534Y-44388477D01*
X87334219Y-44325220D01*
X87516610Y-44232287D01*
X87609590Y-44164732D01*
X87682213Y-44111971D01*
X87682215Y-44111968D01*
X87682219Y-44111966D01*
X87826966Y-43967219D01*
X87826968Y-43967215D01*
X87826971Y-43967213D01*
X87879732Y-43894590D01*
X87947287Y-43801610D01*
X88040220Y-43619219D01*
X88103477Y-43424534D01*
X88135500Y-43222352D01*
X88135500Y-43017648D01*
X88103477Y-42815466D01*
X88040220Y-42620781D01*
X88040218Y-42620778D01*
X88040218Y-42620776D01*
X88006503Y-42554607D01*
X87947287Y-42438390D01*
X87939556Y-42427749D01*
X87826971Y-42272786D01*
X87682213Y-42128028D01*
X87516613Y-42007715D01*
X87516612Y-42007714D01*
X87516610Y-42007713D01*
X87459653Y-41978691D01*
X87334223Y-41914781D01*
X87139534Y-41851522D01*
X86964995Y-41823878D01*
X86937352Y-41819500D01*
X86532648Y-41819500D01*
X86508329Y-41823351D01*
X86330465Y-41851522D01*
X86135776Y-41914781D01*
X85953386Y-42007715D01*
X85787786Y-42128028D01*
X85643028Y-42272786D01*
X85522715Y-42438386D01*
X85429781Y-42620776D01*
X85366522Y-42815465D01*
X85334500Y-43017648D01*
X81584481Y-43017648D01*
X83190310Y-41411819D01*
X83251633Y-41378334D01*
X83277991Y-41375500D01*
X89442010Y-41375500D01*
X89509049Y-41395185D01*
G37*
%TD.AperFunction*%
%TA.AperFunction,Conductor*%
G36*
X89447681Y-58539880D02*
G01*
X89459267Y-58553251D01*
X89477454Y-58577546D01*
X89477455Y-58577547D01*
X89592664Y-58663793D01*
X89592671Y-58663797D01*
X89637618Y-58680561D01*
X89727517Y-58714091D01*
X89787127Y-58720500D01*
X90400500Y-58720499D01*
X90467539Y-58740183D01*
X90513294Y-58792987D01*
X90524500Y-58844499D01*
X90524500Y-60156000D01*
X90504815Y-60223039D01*
X90452011Y-60268794D01*
X90425421Y-60274578D01*
X90420000Y-60280000D01*
X90420000Y-61406000D01*
X90400315Y-61473039D01*
X90347511Y-61518794D01*
X90296000Y-61530000D01*
X88945001Y-61530000D01*
X88945001Y-61579986D01*
X88955494Y-61682697D01*
X89010641Y-61849119D01*
X89010643Y-61849124D01*
X89102684Y-61998345D01*
X89226657Y-62122318D01*
X89229652Y-62124165D01*
X89231275Y-62125969D01*
X89232323Y-62126798D01*
X89232181Y-62126976D01*
X89276379Y-62176110D01*
X89287604Y-62245073D01*
X89259764Y-62309156D01*
X89229662Y-62335241D01*
X89226344Y-62337287D01*
X89226343Y-62337287D01*
X89200780Y-62362851D01*
X89139456Y-62396335D01*
X89085503Y-62396058D01*
X89079250Y-62394630D01*
X88900004Y-62374435D01*
X88899996Y-62374435D01*
X88720750Y-62394630D01*
X88720745Y-62394631D01*
X88550476Y-62454211D01*
X88397737Y-62550184D01*
X88270184Y-62677737D01*
X88174211Y-62830476D01*
X88114631Y-63000745D01*
X88114630Y-63000750D01*
X88094435Y-63179996D01*
X88094435Y-63180003D01*
X88114630Y-63359249D01*
X88114631Y-63359254D01*
X88174211Y-63529523D01*
X88230847Y-63619658D01*
X88270184Y-63682262D01*
X88397738Y-63809816D01*
X88550478Y-63905789D01*
X88716670Y-63963942D01*
X88720745Y-63965368D01*
X88720750Y-63965369D01*
X88899996Y-63985565D01*
X88900000Y-63985565D01*
X88900004Y-63985565D01*
X89079242Y-63965370D01*
X89079246Y-63965368D01*
X89079255Y-63965368D01*
X89079262Y-63965365D01*
X89085497Y-63963942D01*
X89155237Y-63968209D01*
X89200782Y-63997150D01*
X89226344Y-64022712D01*
X89375666Y-64114814D01*
X89542203Y-64169999D01*
X89644991Y-64180500D01*
X90695008Y-64180499D01*
X90695016Y-64180498D01*
X90695019Y-64180498D01*
X90751302Y-64174748D01*
X90797797Y-64169999D01*
X90964334Y-64114814D01*
X91113656Y-64022712D01*
X91237712Y-63898656D01*
X91318977Y-63766902D01*
X91370925Y-63720179D01*
X91424516Y-63708000D01*
X91495904Y-63708000D01*
X91562943Y-63727685D01*
X91601441Y-63766901D01*
X91667288Y-63873656D01*
X91791344Y-63997712D01*
X91940666Y-64089814D01*
X92107203Y-64144999D01*
X92209991Y-64155500D01*
X93210008Y-64155499D01*
X93210016Y-64155498D01*
X93210019Y-64155498D01*
X93266302Y-64149748D01*
X93312797Y-64144999D01*
X93479334Y-64089814D01*
X93628656Y-63997712D01*
X93667819Y-63958549D01*
X93729142Y-63925064D01*
X93798834Y-63930048D01*
X93854767Y-63971920D01*
X93879184Y-64037384D01*
X93879500Y-64046230D01*
X93879500Y-68175241D01*
X93859815Y-68242280D01*
X93807011Y-68288035D01*
X93737853Y-68297979D01*
X93674297Y-68268954D01*
X93667819Y-68262923D01*
X93647176Y-68242280D01*
X93581401Y-68176505D01*
X93581397Y-68176502D01*
X93581396Y-68176501D01*
X93387834Y-68040967D01*
X93387830Y-68040965D01*
X93387821Y-68040961D01*
X93173663Y-67941097D01*
X93173659Y-67941096D01*
X93173655Y-67941094D01*
X92945413Y-67879938D01*
X92945403Y-67879936D01*
X92710001Y-67859341D01*
X92709999Y-67859341D01*
X92474596Y-67879936D01*
X92474583Y-67879939D01*
X92255911Y-67938530D01*
X92186062Y-67936867D01*
X92136138Y-67906436D01*
X87336819Y-63107117D01*
X87303334Y-63045794D01*
X87300500Y-63019436D01*
X87300500Y-60980013D01*
X88945000Y-60980013D01*
X88945000Y-61030000D01*
X89920000Y-61030000D01*
X89920000Y-60280000D01*
X89645029Y-60280000D01*
X89645012Y-60280001D01*
X89542302Y-60290494D01*
X89375880Y-60345641D01*
X89375875Y-60345643D01*
X89226654Y-60437684D01*
X89102684Y-60561654D01*
X89010643Y-60710875D01*
X89010641Y-60710880D01*
X88955494Y-60877302D01*
X88955493Y-60877309D01*
X88945000Y-60980013D01*
X87300500Y-60980013D01*
X87300500Y-58778547D01*
X87320185Y-58711508D01*
X87369801Y-58668514D01*
X87369546Y-58668047D01*
X87371697Y-58666872D01*
X87372989Y-58665753D01*
X87376128Y-58664452D01*
X87377326Y-58663797D01*
X87377331Y-58663796D01*
X87492546Y-58577546D01*
X87510733Y-58553250D01*
X87566666Y-58511379D01*
X87636358Y-58506395D01*
X87697681Y-58539880D01*
X87709267Y-58553251D01*
X87727454Y-58577546D01*
X87727455Y-58577547D01*
X87842664Y-58663793D01*
X87842671Y-58663797D01*
X87977517Y-58714091D01*
X87977516Y-58714091D01*
X87984444Y-58714835D01*
X88037127Y-58720500D01*
X88932872Y-58720499D01*
X88992483Y-58714091D01*
X89127331Y-58663796D01*
X89242546Y-58577546D01*
X89260733Y-58553250D01*
X89316666Y-58511379D01*
X89386358Y-58506395D01*
X89447681Y-58539880D01*
G37*
%TD.AperFunction*%
%TD*%
M02*
