%TF.GenerationSoftware,KiCad,Pcbnew,8.0.4*%
%TF.CreationDate,2024-08-21T15:33:42+10:00*%
%TF.ProjectId,micromod-reset,6d696372-6f6d-46f6-942d-72657365742e,rev?*%
%TF.SameCoordinates,Original*%
%TF.FileFunction,Soldermask,Bot*%
%TF.FilePolarity,Negative*%
%FSLAX46Y46*%
G04 Gerber Fmt 4.6, Leading zero omitted, Abs format (unit mm)*
G04 Created by KiCad (PCBNEW 8.0.4) date 2024-08-21 15:33:42*
%MOMM*%
%LPD*%
G01*
G04 APERTURE LIST*
%ADD10C,0.150000*%
%ADD11C,2.800000*%
%ADD12C,2.000000*%
%ADD13R,1.700000X1.700000*%
%ADD14O,1.700000X1.700000*%
G04 APERTURE END LIST*
D10*
X147500000Y-48500000D02*
X150500000Y-48500000D01*
X150500000Y-51500000D01*
X147500000Y-51500000D01*
X147500000Y-48500000D01*
G36*
X147500000Y-48500000D02*
G01*
X150500000Y-48500000D01*
X150500000Y-51500000D01*
X147500000Y-51500000D01*
X147500000Y-48500000D01*
G37*
D11*
%TO.C,TP14*%
X149000000Y-51500000D03*
%TD*%
%TO.C,TP5*%
X153000000Y-86000000D03*
%TD*%
D12*
%TO.C,SW1*%
X136995000Y-66020000D03*
X143495000Y-66020000D03*
X136995000Y-70520000D03*
X143495000Y-70520000D03*
%TD*%
%TO.C,SW3*%
X136995000Y-82530000D03*
X143495000Y-82530000D03*
X136995000Y-87030000D03*
X143495000Y-87030000D03*
%TD*%
%TO.C,SW4*%
X114770000Y-50145000D03*
X121270000Y-50145000D03*
X114770000Y-54645000D03*
X121270000Y-54645000D03*
%TD*%
D11*
%TO.C,TP8*%
X162750000Y-81000000D03*
%TD*%
%TO.C,TP2*%
X153000000Y-71000000D03*
%TD*%
%TO.C,TP12*%
X164500000Y-60500000D03*
%TD*%
%TO.C,TP3*%
X153000000Y-76000000D03*
%TD*%
%TO.C,TP10*%
X158750000Y-51500000D03*
%TD*%
D12*
%TO.C,SW5*%
X114695000Y-58055000D03*
X121195000Y-58055000D03*
X114695000Y-62555000D03*
X121195000Y-62555000D03*
%TD*%
D11*
%TO.C,TP6*%
X159000000Y-78500000D03*
%TD*%
D13*
%TO.C,J1*%
X106590000Y-54935000D03*
D14*
X106590000Y-57475000D03*
X106590000Y-60015000D03*
X106590000Y-62555000D03*
X106590000Y-65095000D03*
X106590000Y-67635000D03*
X106590000Y-70175000D03*
X106590000Y-72715000D03*
X106590000Y-75255000D03*
X106590000Y-77795000D03*
%TD*%
D11*
%TO.C,TP1*%
X153000000Y-66000000D03*
%TD*%
%TO.C,TP11*%
X164500000Y-54500000D03*
%TD*%
%TO.C,TP9*%
X164500000Y-76000000D03*
%TD*%
D12*
%TO.C,SW6*%
X114770000Y-66020000D03*
X121270000Y-66020000D03*
X114770000Y-70520000D03*
X121270000Y-70520000D03*
%TD*%
D11*
%TO.C,TP13*%
X158750000Y-57500000D03*
%TD*%
%TO.C,TP7*%
X159000000Y-68500000D03*
%TD*%
%TO.C,TP15*%
X149000000Y-57500000D03*
%TD*%
D12*
%TO.C,SW2*%
X136995000Y-74275000D03*
X143495000Y-74275000D03*
X136995000Y-78775000D03*
X143495000Y-78775000D03*
%TD*%
%TO.C,SW8*%
X114770000Y-82530000D03*
X121270000Y-82530000D03*
X114770000Y-87030000D03*
X121270000Y-87030000D03*
%TD*%
%TO.C,SW7*%
X114770000Y-74275000D03*
X121270000Y-74275000D03*
X114770000Y-78775000D03*
X121270000Y-78775000D03*
%TD*%
D11*
%TO.C,TP4*%
X153000000Y-81000000D03*
%TD*%
M02*
