%TF.GenerationSoftware,KiCad,Pcbnew,8.0.4*%
%TF.CreationDate,2024-08-03T23:58:15+10:00*%
%TF.ProjectId,micromod-reset,6d696372-6f6d-46f6-942d-72657365742e,rev?*%
%TF.SameCoordinates,Original*%
%TF.FileFunction,Soldermask,Bot*%
%TF.FilePolarity,Negative*%
%FSLAX46Y46*%
G04 Gerber Fmt 4.6, Leading zero omitted, Abs format (unit mm)*
G04 Created by KiCad (PCBNEW 8.0.4) date 2024-08-03 23:58:15*
%MOMM*%
%LPD*%
G01*
G04 APERTURE LIST*
%ADD10C,2.000000*%
%ADD11R,1.700000X1.700000*%
%ADD12O,1.700000X1.700000*%
G04 APERTURE END LIST*
D10*
%TO.C,SW1*%
X139625000Y-66965000D03*
X146125000Y-66965000D03*
X139625000Y-71465000D03*
X146125000Y-71465000D03*
%TD*%
%TO.C,SW3*%
X139625000Y-83475000D03*
X146125000Y-83475000D03*
X139625000Y-87975000D03*
X146125000Y-87975000D03*
%TD*%
%TO.C,SW4*%
X117400000Y-51090000D03*
X123900000Y-51090000D03*
X117400000Y-55590000D03*
X123900000Y-55590000D03*
%TD*%
%TO.C,SW5*%
X117325000Y-59000000D03*
X123825000Y-59000000D03*
X117325000Y-63500000D03*
X123825000Y-63500000D03*
%TD*%
D11*
%TO.C,J1*%
X109220000Y-55880000D03*
D12*
X109220000Y-58420000D03*
X109220000Y-60960000D03*
X109220000Y-63500000D03*
X109220000Y-66040000D03*
X109220000Y-68580000D03*
X109220000Y-71120000D03*
X109220000Y-73660000D03*
X109220000Y-76200000D03*
X109220000Y-78740000D03*
%TD*%
D10*
%TO.C,SW6*%
X117400000Y-66965000D03*
X123900000Y-66965000D03*
X117400000Y-71465000D03*
X123900000Y-71465000D03*
%TD*%
%TO.C,SW2*%
X139625000Y-75220000D03*
X146125000Y-75220000D03*
X139625000Y-79720000D03*
X146125000Y-79720000D03*
%TD*%
%TO.C,SW8*%
X117400000Y-83475000D03*
X123900000Y-83475000D03*
X117400000Y-87975000D03*
X123900000Y-87975000D03*
%TD*%
%TO.C,SW7*%
X117400000Y-75220000D03*
X123900000Y-75220000D03*
X117400000Y-79720000D03*
X123900000Y-79720000D03*
%TD*%
M02*
