%TF.GenerationSoftware,KiCad,Pcbnew,8.0.4*%
%TF.CreationDate,2024-08-21T15:33:42+10:00*%
%TF.ProjectId,micromod-reset,6d696372-6f6d-46f6-942d-72657365742e,rev?*%
%TF.SameCoordinates,Original*%
%TF.FileFunction,Paste,Top*%
%TF.FilePolarity,Positive*%
%FSLAX46Y46*%
G04 Gerber Fmt 4.6, Leading zero omitted, Abs format (unit mm)*
G04 Created by KiCad (PCBNEW 8.0.4) date 2024-08-21 15:33:42*
%MOMM*%
%LPD*%
G01*
G04 APERTURE LIST*
G04 Aperture macros list*
%AMRoundRect*
0 Rectangle with rounded corners*
0 $1 Rounding radius*
0 $2 $3 $4 $5 $6 $7 $8 $9 X,Y pos of 4 corners*
0 Add a 4 corners polygon primitive as box body*
4,1,4,$2,$3,$4,$5,$6,$7,$8,$9,$2,$3,0*
0 Add four circle primitives for the rounded corners*
1,1,$1+$1,$2,$3*
1,1,$1+$1,$4,$5*
1,1,$1+$1,$6,$7*
1,1,$1+$1,$8,$9*
0 Add four rect primitives between the rounded corners*
20,1,$1+$1,$2,$3,$4,$5,0*
20,1,$1+$1,$4,$5,$6,$7,0*
20,1,$1+$1,$6,$7,$8,$9,0*
20,1,$1+$1,$8,$9,$2,$3,0*%
G04 Aperture macros list end*
%ADD10RoundRect,0.135000X-0.135000X-0.185000X0.135000X-0.185000X0.135000X0.185000X-0.135000X0.185000X0*%
%ADD11RoundRect,0.135000X0.185000X-0.135000X0.185000X0.135000X-0.185000X0.135000X-0.185000X-0.135000X0*%
%ADD12RoundRect,0.150000X-0.825000X-0.150000X0.825000X-0.150000X0.825000X0.150000X-0.825000X0.150000X0*%
%ADD13RoundRect,0.140000X-0.140000X-0.170000X0.140000X-0.170000X0.140000X0.170000X-0.140000X0.170000X0*%
%ADD14RoundRect,0.135000X0.135000X0.185000X-0.135000X0.185000X-0.135000X-0.185000X0.135000X-0.185000X0*%
%ADD15RoundRect,0.250000X-0.300000X0.300000X-0.300000X-0.300000X0.300000X-0.300000X0.300000X0.300000X0*%
%ADD16RoundRect,0.140000X0.140000X0.170000X-0.140000X0.170000X-0.140000X-0.170000X0.140000X-0.170000X0*%
G04 APERTURE END LIST*
D10*
%TO.C,R5*%
X135290000Y-58700000D03*
X136310000Y-58700000D03*
%TD*%
D11*
%TO.C,R11*%
X123735000Y-68780000D03*
X123735000Y-67760000D03*
%TD*%
D12*
%TO.C,U2*%
X127610000Y-51125000D03*
X127610000Y-52395000D03*
X127610000Y-53665000D03*
X127610000Y-54935000D03*
X127610000Y-56205000D03*
X127610000Y-57475000D03*
X127610000Y-58745000D03*
X132560000Y-58745000D03*
X132560000Y-57475000D03*
X132560000Y-56205000D03*
X132560000Y-54935000D03*
X132560000Y-53665000D03*
X132560000Y-52395000D03*
X132560000Y-51125000D03*
%TD*%
D11*
%TO.C,R10*%
X123735000Y-61160000D03*
X123735000Y-60140000D03*
%TD*%
D10*
%TO.C,R2*%
X137290000Y-60100000D03*
X138310000Y-60100000D03*
%TD*%
D11*
%TO.C,R13*%
X123735000Y-85290000D03*
X123735000Y-84270000D03*
%TD*%
D10*
%TO.C,R3*%
X139290000Y-56250000D03*
X140310000Y-56250000D03*
%TD*%
%TO.C,R7*%
X139290000Y-58700000D03*
X140310000Y-58700000D03*
%TD*%
D13*
%TO.C,C3*%
X132145000Y-75255000D03*
X133105000Y-75255000D03*
%TD*%
D10*
%TO.C,R8*%
X135290000Y-60100000D03*
X136310000Y-60100000D03*
%TD*%
D14*
%TO.C,R4*%
X126785000Y-86050000D03*
X125765000Y-86050000D03*
%TD*%
D11*
%TO.C,R12*%
X123735000Y-77035000D03*
X123735000Y-76015000D03*
%TD*%
D12*
%TO.C,U1*%
X127610000Y-63190000D03*
X127610000Y-64460000D03*
X127610000Y-65730000D03*
X127610000Y-67000000D03*
X127610000Y-68270000D03*
X127610000Y-69540000D03*
X127610000Y-70810000D03*
X132560000Y-70810000D03*
X132560000Y-69540000D03*
X132560000Y-68270000D03*
X132560000Y-67000000D03*
X132560000Y-65730000D03*
X132560000Y-64460000D03*
X132560000Y-63190000D03*
%TD*%
D10*
%TO.C,R6*%
X139290000Y-57600000D03*
X140310000Y-57600000D03*
%TD*%
D11*
%TO.C,R9*%
X123735000Y-52905000D03*
X123735000Y-51885000D03*
%TD*%
D13*
%TO.C,C5*%
X132145000Y-49855000D03*
X133105000Y-49855000D03*
%TD*%
D10*
%TO.C,R1*%
X137290000Y-58700000D03*
X138310000Y-58700000D03*
%TD*%
D13*
%TO.C,C4*%
X139320000Y-60100000D03*
X140280000Y-60100000D03*
%TD*%
D15*
%TO.C,D1*%
X135990000Y-53690000D03*
X135990000Y-56490000D03*
%TD*%
D13*
%TO.C,C2*%
X132145000Y-61920000D03*
X133105000Y-61920000D03*
%TD*%
D16*
%TO.C,C1*%
X140280000Y-55250000D03*
X139320000Y-55250000D03*
%TD*%
D12*
%TO.C,U3*%
X127675000Y-76525000D03*
X127675000Y-77795000D03*
X127675000Y-79065000D03*
X127675000Y-80335000D03*
X127675000Y-81605000D03*
X127675000Y-82875000D03*
X127675000Y-84145000D03*
X132625000Y-84145000D03*
X132625000Y-82875000D03*
X132625000Y-81605000D03*
X132625000Y-80335000D03*
X132625000Y-79065000D03*
X132625000Y-77795000D03*
X132625000Y-76525000D03*
%TD*%
M02*
