M48
; DRILL file {KiCad 8.0.4} date 2024-08-21T15:33:42+1000
; FORMAT={-:-/ absolute / inch / decimal}
; #@! TF.CreationDate,2024-08-21T15:33:42+10:00
; #@! TF.GenerationSoftware,Kicad,Pcbnew,8.0.4
; #@! TF.FileFunction,Plated,1,2,PTH
FMAT,2
INCH
; #@! TA.AperFunction,Plated,PTH,ViaDrill
T1C0.0157
; #@! TA.AperFunction,Plated,PTH,ComponentDrill
T2C0.0394
; #@! TA.AperFunction,Plated,PTH,ComponentDrill
T3C0.0433
; #@! TA.AperFunction,Plated,PTH,ComponentDrill
T4C0.0551
%
G90
G05
T1
X4.3715Y-2.8343
X4.4179Y-2.7628
X4.4215Y-2.5378
X4.4465Y-2.3378
X4.4465Y-2.6878
X4.6752Y-3.0118
X4.8524Y-2.2244
X4.8622Y-2.9331
X4.8679Y-2.7878
X4.8965Y-1.9628
X4.8965Y-2.1128
X4.8965Y-2.4378
X4.8965Y-2.7378
X4.8965Y-2.9628
X4.8965Y-3.0628
X4.8965Y-3.3878
X4.925Y-2.0628
X4.925Y-2.3878
X4.925Y-2.8378
X4.925Y-3.2717
X4.9331Y-3.3307
X4.9465Y-2.5878
X4.9535Y-2.4878
X4.9535Y-2.5479
X4.9535Y-3.0378
X4.9715Y-2.6378
X4.9821Y-2.9913
X5.0285Y-2.8343
X5.0295Y-2.3819
X5.0888Y-2.7051
X5.0894Y-3.1378
X5.0965Y-2.2628
X5.0984Y-2.5492
X5.1179Y-3.1878
X5.1378Y-2.4016
X5.1465Y-2.1093
X5.1465Y-2.2128
X5.1465Y-3.2628
X5.1569Y-2.2696
X5.1575Y-3.3268
X5.1587Y-2.8
X5.1673Y-3.4449
X5.1688Y-2.7082
X5.1969Y-2.852
X5.2465Y-2.8628
X5.2657Y-2.4311
X5.2679Y-3.1448
X5.2765Y-2.1343
X5.281Y-2.0812
X5.293Y-2.2816
X5.2947Y-2.861
X5.2953Y-3.0118
X5.2965Y-2.5128
X5.2965Y-3.0628
X5.2965Y-3.3128
X5.3051Y-3.3858
X5.3145Y-2.1445
X5.325Y-2.9222
X5.3346Y-3.4646
X5.4134Y-2.1752
X5.4343Y-2.2873
X5.4488Y-2.2302
X5.4528Y-2.4409
X5.4626Y-3.4646
X5.5118Y-3.0906
X5.5215Y-2.4508
X5.5217Y-2.8346
X5.5217Y-2.9626
X5.6004Y-2.4016
X5.7087Y-2.2539
X5.8465Y-3.0906
X5.8563Y-2.9331
X5.8661Y-2.4606
X5.9055Y-2.8445
X5.9252Y-3.3661
X5.935Y-2.6969
X6.0728Y-2.0768
T2
X4.1965Y-2.1628
X4.1965Y-2.2628
X4.1965Y-2.3628
X4.1965Y-2.4628
X4.1965Y-2.5628
X4.1965Y-2.6628
X4.1965Y-2.7628
X4.1965Y-2.8628
X4.1965Y-2.9628
X4.1965Y-3.0628
T3
X4.5156Y-2.2856
X4.5156Y-2.4628
X4.5185Y-1.9742
X4.5185Y-2.1514
X4.5185Y-2.5992
X4.5185Y-2.7764
X4.5185Y-2.9242
X4.5185Y-3.1014
X4.5185Y-3.2492
X4.5185Y-3.4264
X4.7715Y-2.2856
X4.7715Y-2.4628
X4.7744Y-1.9742
X4.7744Y-2.1514
X4.7744Y-2.5992
X4.7744Y-2.7764
X4.7744Y-2.9242
X4.7744Y-3.1014
X4.7744Y-3.2492
X4.7744Y-3.4264
X5.3935Y-2.5992
X5.3935Y-2.7764
X5.3935Y-2.9242
X5.3935Y-3.1014
X5.3935Y-3.2492
X5.3935Y-3.4264
X5.6494Y-2.5992
X5.6494Y-2.7764
X5.6494Y-2.9242
X5.6494Y-3.1014
X5.6494Y-3.2492
X5.6494Y-3.4264
T4
X5.8661Y-2.0276
X5.8661Y-2.2638
X6.0236Y-2.5984
X6.0236Y-2.7953
X6.0236Y-2.9921
X6.0236Y-3.189
X6.0236Y-3.3858
X6.25Y-2.0276
X6.25Y-2.2638
X6.2598Y-2.6969
X6.2598Y-3.0906
X6.4075Y-3.189
X6.4764Y-2.1457
X6.4764Y-2.3819
X6.4764Y-2.9921
M30
