M48
; DRILL file {KiCad 8.0.4} date 2024-08-03T23:58:15+1000
; FORMAT={-:-/ absolute / inch / decimal}
; #@! TF.CreationDate,2024-08-03T23:58:15+10:00
; #@! TF.GenerationSoftware,Kicad,Pcbnew,8.0.4
; #@! TF.FileFunction,Plated,1,2,PTH
FMAT,2
INCH
; #@! TA.AperFunction,Plated,PTH,ViaDrill
T1C0.0157
; #@! TA.AperFunction,Plated,PTH,ComponentDrill
T2C0.0394
; #@! TA.AperFunction,Plated,PTH,ComponentDrill
T3C0.0433
%
G90
G05
T1
X4.475Y-2.8715
X4.5215Y-2.8
X4.525Y-2.575
X4.55Y-2.375
X4.55Y-2.725
X4.9715Y-2.825
X5.0Y-2.0
X5.0Y-2.15
X5.0Y-2.475
X5.0Y-2.775
X5.0Y-3.0
X5.0Y-3.1
X5.0Y-3.425
X5.0285Y-2.1
X5.0285Y-2.425
X5.0285Y-2.875
X5.0285Y-3.35
X5.05Y-2.625
X5.0571Y-2.525
X5.0571Y-2.5851
X5.0571Y-3.075
X5.075Y-2.675
X5.0856Y-3.0285
X5.1321Y-2.8715
X5.1923Y-2.7423
X5.1929Y-3.175
X5.2Y-2.3
X5.2215Y-3.225
X5.25Y-2.1465
X5.25Y-2.25
X5.25Y-3.3
X5.2604Y-2.3068
X5.2622Y-2.8372
X5.2723Y-2.7454
X5.35Y-2.9
X5.3715Y-3.182
X5.3982Y-2.8982
X5.4Y-2.1469
X5.4Y-2.3
X5.4Y-2.55
X5.4Y-3.1
X5.4Y-3.35
X5.4285Y-2.2215
X5.4285Y-2.99
X5.525Y-2.2711
X5.6Y-2.175
X5.625Y-2.4
T2
X4.3Y-2.2
X4.3Y-2.3
X4.3Y-2.4
X4.3Y-2.5
X4.3Y-2.6
X4.3Y-2.7
X4.3Y-2.8
X4.3Y-2.9
X4.3Y-3.0
X4.3Y-3.1
T3
X4.6191Y-2.3228
X4.6191Y-2.5
X4.622Y-2.0114
X4.622Y-2.1886
X4.622Y-2.6364
X4.622Y-2.8136
X4.622Y-2.9614
X4.622Y-3.1386
X4.622Y-3.2864
X4.622Y-3.4636
X4.875Y-2.3228
X4.875Y-2.5
X4.878Y-2.0114
X4.878Y-2.1886
X4.878Y-2.6364
X4.878Y-2.8136
X4.878Y-2.9614
X4.878Y-3.1386
X4.878Y-3.2864
X4.878Y-3.4636
X5.497Y-2.6364
X5.497Y-2.8136
X5.497Y-2.9614
X5.497Y-3.1386
X5.497Y-3.2864
X5.497Y-3.4636
X5.753Y-2.6364
X5.753Y-2.8136
X5.753Y-2.9614
X5.753Y-3.1386
X5.753Y-3.2864
X5.753Y-3.4636
M30
