%TF.GenerationSoftware,KiCad,Pcbnew,8.0.4*%
%TF.CreationDate,2024-08-03T23:58:15+10:00*%
%TF.ProjectId,micromod-reset,6d696372-6f6d-46f6-942d-72657365742e,rev?*%
%TF.SameCoordinates,Original*%
%TF.FileFunction,Legend,Top*%
%TF.FilePolarity,Positive*%
%FSLAX46Y46*%
G04 Gerber Fmt 4.6, Leading zero omitted, Abs format (unit mm)*
G04 Created by KiCad (PCBNEW 8.0.4) date 2024-08-03 23:58:15*
%MOMM*%
%LPD*%
G01*
G04 APERTURE LIST*
G04 Aperture macros list*
%AMRoundRect*
0 Rectangle with rounded corners*
0 $1 Rounding radius*
0 $2 $3 $4 $5 $6 $7 $8 $9 X,Y pos of 4 corners*
0 Add a 4 corners polygon primitive as box body*
4,1,4,$2,$3,$4,$5,$6,$7,$8,$9,$2,$3,0*
0 Add four circle primitives for the rounded corners*
1,1,$1+$1,$2,$3*
1,1,$1+$1,$4,$5*
1,1,$1+$1,$6,$7*
1,1,$1+$1,$8,$9*
0 Add four rect primitives between the rounded corners*
20,1,$1+$1,$2,$3,$4,$5,0*
20,1,$1+$1,$4,$5,$6,$7,0*
20,1,$1+$1,$6,$7,$8,$9,0*
20,1,$1+$1,$8,$9,$2,$3,0*%
G04 Aperture macros list end*
%ADD10C,0.150000*%
%ADD11C,0.000000*%
%ADD12C,0.120000*%
%ADD13RoundRect,0.135000X-0.135000X-0.185000X0.135000X-0.185000X0.135000X0.185000X-0.135000X0.185000X0*%
%ADD14RoundRect,0.135000X0.185000X-0.135000X0.185000X0.135000X-0.185000X0.135000X-0.185000X-0.135000X0*%
%ADD15RoundRect,0.150000X-0.825000X-0.150000X0.825000X-0.150000X0.825000X0.150000X-0.825000X0.150000X0*%
%ADD16C,2.000000*%
%ADD17RoundRect,0.140000X-0.140000X-0.170000X0.140000X-0.170000X0.140000X0.170000X-0.140000X0.170000X0*%
%ADD18RoundRect,0.135000X0.135000X0.185000X-0.135000X0.185000X-0.135000X-0.185000X0.135000X-0.185000X0*%
%ADD19R,1.700000X1.700000*%
%ADD20O,1.700000X1.700000*%
%ADD21RoundRect,0.250000X-0.300000X0.300000X-0.300000X-0.300000X0.300000X-0.300000X0.300000X0.300000X0*%
G04 APERTURE END LIST*
D10*
X138263333Y-58339819D02*
X137930000Y-57863628D01*
X137691905Y-58339819D02*
X137691905Y-57339819D01*
X137691905Y-57339819D02*
X138072857Y-57339819D01*
X138072857Y-57339819D02*
X138168095Y-57387438D01*
X138168095Y-57387438D02*
X138215714Y-57435057D01*
X138215714Y-57435057D02*
X138263333Y-57530295D01*
X138263333Y-57530295D02*
X138263333Y-57673152D01*
X138263333Y-57673152D02*
X138215714Y-57768390D01*
X138215714Y-57768390D02*
X138168095Y-57816009D01*
X138168095Y-57816009D02*
X138072857Y-57863628D01*
X138072857Y-57863628D02*
X137691905Y-57863628D01*
X138834762Y-57768390D02*
X138739524Y-57720771D01*
X138739524Y-57720771D02*
X138691905Y-57673152D01*
X138691905Y-57673152D02*
X138644286Y-57577914D01*
X138644286Y-57577914D02*
X138644286Y-57530295D01*
X138644286Y-57530295D02*
X138691905Y-57435057D01*
X138691905Y-57435057D02*
X138739524Y-57387438D01*
X138739524Y-57387438D02*
X138834762Y-57339819D01*
X138834762Y-57339819D02*
X139025238Y-57339819D01*
X139025238Y-57339819D02*
X139120476Y-57387438D01*
X139120476Y-57387438D02*
X139168095Y-57435057D01*
X139168095Y-57435057D02*
X139215714Y-57530295D01*
X139215714Y-57530295D02*
X139215714Y-57577914D01*
X139215714Y-57577914D02*
X139168095Y-57673152D01*
X139168095Y-57673152D02*
X139120476Y-57720771D01*
X139120476Y-57720771D02*
X139025238Y-57768390D01*
X139025238Y-57768390D02*
X138834762Y-57768390D01*
X138834762Y-57768390D02*
X138739524Y-57816009D01*
X138739524Y-57816009D02*
X138691905Y-57863628D01*
X138691905Y-57863628D02*
X138644286Y-57958866D01*
X138644286Y-57958866D02*
X138644286Y-58149342D01*
X138644286Y-58149342D02*
X138691905Y-58244580D01*
X138691905Y-58244580D02*
X138739524Y-58292200D01*
X138739524Y-58292200D02*
X138834762Y-58339819D01*
X138834762Y-58339819D02*
X139025238Y-58339819D01*
X139025238Y-58339819D02*
X139120476Y-58292200D01*
X139120476Y-58292200D02*
X139168095Y-58244580D01*
X139168095Y-58244580D02*
X139215714Y-58149342D01*
X139215714Y-58149342D02*
X139215714Y-57958866D01*
X139215714Y-57958866D02*
X139168095Y-57863628D01*
X139168095Y-57863628D02*
X139120476Y-57816009D01*
X139120476Y-57816009D02*
X139025238Y-57768390D01*
X125649819Y-69857857D02*
X125173628Y-70191190D01*
X125649819Y-70429285D02*
X124649819Y-70429285D01*
X124649819Y-70429285D02*
X124649819Y-70048333D01*
X124649819Y-70048333D02*
X124697438Y-69953095D01*
X124697438Y-69953095D02*
X124745057Y-69905476D01*
X124745057Y-69905476D02*
X124840295Y-69857857D01*
X124840295Y-69857857D02*
X124983152Y-69857857D01*
X124983152Y-69857857D02*
X125078390Y-69905476D01*
X125078390Y-69905476D02*
X125126009Y-69953095D01*
X125126009Y-69953095D02*
X125173628Y-70048333D01*
X125173628Y-70048333D02*
X125173628Y-70429285D01*
X125649819Y-68905476D02*
X125649819Y-69476904D01*
X125649819Y-69191190D02*
X124649819Y-69191190D01*
X124649819Y-69191190D02*
X124792676Y-69286428D01*
X124792676Y-69286428D02*
X124887914Y-69381666D01*
X124887914Y-69381666D02*
X124935533Y-69476904D01*
X124745057Y-68524523D02*
X124697438Y-68476904D01*
X124697438Y-68476904D02*
X124649819Y-68381666D01*
X124649819Y-68381666D02*
X124649819Y-68143571D01*
X124649819Y-68143571D02*
X124697438Y-68048333D01*
X124697438Y-68048333D02*
X124745057Y-68000714D01*
X124745057Y-68000714D02*
X124840295Y-67953095D01*
X124840295Y-67953095D02*
X124935533Y-67953095D01*
X124935533Y-67953095D02*
X125078390Y-68000714D01*
X125078390Y-68000714D02*
X125649819Y-68572142D01*
X125649819Y-68572142D02*
X125649819Y-67953095D01*
X131953095Y-50054819D02*
X131953095Y-50864342D01*
X131953095Y-50864342D02*
X132000714Y-50959580D01*
X132000714Y-50959580D02*
X132048333Y-51007200D01*
X132048333Y-51007200D02*
X132143571Y-51054819D01*
X132143571Y-51054819D02*
X132334047Y-51054819D01*
X132334047Y-51054819D02*
X132429285Y-51007200D01*
X132429285Y-51007200D02*
X132476904Y-50959580D01*
X132476904Y-50959580D02*
X132524523Y-50864342D01*
X132524523Y-50864342D02*
X132524523Y-50054819D01*
X132953095Y-50150057D02*
X133000714Y-50102438D01*
X133000714Y-50102438D02*
X133095952Y-50054819D01*
X133095952Y-50054819D02*
X133334047Y-50054819D01*
X133334047Y-50054819D02*
X133429285Y-50102438D01*
X133429285Y-50102438D02*
X133476904Y-50150057D01*
X133476904Y-50150057D02*
X133524523Y-50245295D01*
X133524523Y-50245295D02*
X133524523Y-50340533D01*
X133524523Y-50340533D02*
X133476904Y-50483390D01*
X133476904Y-50483390D02*
X132905476Y-51054819D01*
X132905476Y-51054819D02*
X133524523Y-51054819D01*
X125649819Y-62237857D02*
X125173628Y-62571190D01*
X125649819Y-62809285D02*
X124649819Y-62809285D01*
X124649819Y-62809285D02*
X124649819Y-62428333D01*
X124649819Y-62428333D02*
X124697438Y-62333095D01*
X124697438Y-62333095D02*
X124745057Y-62285476D01*
X124745057Y-62285476D02*
X124840295Y-62237857D01*
X124840295Y-62237857D02*
X124983152Y-62237857D01*
X124983152Y-62237857D02*
X125078390Y-62285476D01*
X125078390Y-62285476D02*
X125126009Y-62333095D01*
X125126009Y-62333095D02*
X125173628Y-62428333D01*
X125173628Y-62428333D02*
X125173628Y-62809285D01*
X125649819Y-61285476D02*
X125649819Y-61856904D01*
X125649819Y-61571190D02*
X124649819Y-61571190D01*
X124649819Y-61571190D02*
X124792676Y-61666428D01*
X124792676Y-61666428D02*
X124887914Y-61761666D01*
X124887914Y-61761666D02*
X124935533Y-61856904D01*
X125649819Y-60333095D02*
X125649819Y-60904523D01*
X125649819Y-60618809D02*
X124649819Y-60618809D01*
X124649819Y-60618809D02*
X124792676Y-60714047D01*
X124792676Y-60714047D02*
X124887914Y-60809285D01*
X124887914Y-60809285D02*
X124935533Y-60904523D01*
X141438333Y-60879819D02*
X141105000Y-60403628D01*
X140866905Y-60879819D02*
X140866905Y-59879819D01*
X140866905Y-59879819D02*
X141247857Y-59879819D01*
X141247857Y-59879819D02*
X141343095Y-59927438D01*
X141343095Y-59927438D02*
X141390714Y-59975057D01*
X141390714Y-59975057D02*
X141438333Y-60070295D01*
X141438333Y-60070295D02*
X141438333Y-60213152D01*
X141438333Y-60213152D02*
X141390714Y-60308390D01*
X141390714Y-60308390D02*
X141343095Y-60356009D01*
X141343095Y-60356009D02*
X141247857Y-60403628D01*
X141247857Y-60403628D02*
X140866905Y-60403628D01*
X142295476Y-60213152D02*
X142295476Y-60879819D01*
X142057381Y-59832200D02*
X141819286Y-60546485D01*
X141819286Y-60546485D02*
X142438333Y-60546485D01*
X125649819Y-86367857D02*
X125173628Y-86701190D01*
X125649819Y-86939285D02*
X124649819Y-86939285D01*
X124649819Y-86939285D02*
X124649819Y-86558333D01*
X124649819Y-86558333D02*
X124697438Y-86463095D01*
X124697438Y-86463095D02*
X124745057Y-86415476D01*
X124745057Y-86415476D02*
X124840295Y-86367857D01*
X124840295Y-86367857D02*
X124983152Y-86367857D01*
X124983152Y-86367857D02*
X125078390Y-86415476D01*
X125078390Y-86415476D02*
X125126009Y-86463095D01*
X125126009Y-86463095D02*
X125173628Y-86558333D01*
X125173628Y-86558333D02*
X125173628Y-86939285D01*
X125649819Y-85415476D02*
X125649819Y-85986904D01*
X125649819Y-85701190D02*
X124649819Y-85701190D01*
X124649819Y-85701190D02*
X124792676Y-85796428D01*
X124792676Y-85796428D02*
X124887914Y-85891666D01*
X124887914Y-85891666D02*
X124935533Y-85986904D01*
X124983152Y-84558333D02*
X125649819Y-84558333D01*
X124602200Y-84796428D02*
X125316485Y-85034523D01*
X125316485Y-85034523D02*
X125316485Y-84415476D01*
X144613333Y-53259819D02*
X144280000Y-52783628D01*
X144041905Y-53259819D02*
X144041905Y-52259819D01*
X144041905Y-52259819D02*
X144422857Y-52259819D01*
X144422857Y-52259819D02*
X144518095Y-52307438D01*
X144518095Y-52307438D02*
X144565714Y-52355057D01*
X144565714Y-52355057D02*
X144613333Y-52450295D01*
X144613333Y-52450295D02*
X144613333Y-52593152D01*
X144613333Y-52593152D02*
X144565714Y-52688390D01*
X144565714Y-52688390D02*
X144518095Y-52736009D01*
X144518095Y-52736009D02*
X144422857Y-52783628D01*
X144422857Y-52783628D02*
X144041905Y-52783628D01*
X145518095Y-52259819D02*
X145041905Y-52259819D01*
X145041905Y-52259819D02*
X144994286Y-52736009D01*
X144994286Y-52736009D02*
X145041905Y-52688390D01*
X145041905Y-52688390D02*
X145137143Y-52640771D01*
X145137143Y-52640771D02*
X145375238Y-52640771D01*
X145375238Y-52640771D02*
X145470476Y-52688390D01*
X145470476Y-52688390D02*
X145518095Y-52736009D01*
X145518095Y-52736009D02*
X145565714Y-52831247D01*
X145565714Y-52831247D02*
X145565714Y-53069342D01*
X145565714Y-53069342D02*
X145518095Y-53164580D01*
X145518095Y-53164580D02*
X145470476Y-53212200D01*
X145470476Y-53212200D02*
X145375238Y-53259819D01*
X145375238Y-53259819D02*
X145137143Y-53259819D01*
X145137143Y-53259819D02*
X145041905Y-53212200D01*
X145041905Y-53212200D02*
X144994286Y-53164580D01*
X144613333Y-58339819D02*
X144280000Y-57863628D01*
X144041905Y-58339819D02*
X144041905Y-57339819D01*
X144041905Y-57339819D02*
X144422857Y-57339819D01*
X144422857Y-57339819D02*
X144518095Y-57387438D01*
X144518095Y-57387438D02*
X144565714Y-57435057D01*
X144565714Y-57435057D02*
X144613333Y-57530295D01*
X144613333Y-57530295D02*
X144613333Y-57673152D01*
X144613333Y-57673152D02*
X144565714Y-57768390D01*
X144565714Y-57768390D02*
X144518095Y-57816009D01*
X144518095Y-57816009D02*
X144422857Y-57863628D01*
X144422857Y-57863628D02*
X144041905Y-57863628D01*
X144946667Y-57339819D02*
X145565714Y-57339819D01*
X145565714Y-57339819D02*
X145232381Y-57720771D01*
X145232381Y-57720771D02*
X145375238Y-57720771D01*
X145375238Y-57720771D02*
X145470476Y-57768390D01*
X145470476Y-57768390D02*
X145518095Y-57816009D01*
X145518095Y-57816009D02*
X145565714Y-57911247D01*
X145565714Y-57911247D02*
X145565714Y-58149342D01*
X145565714Y-58149342D02*
X145518095Y-58244580D01*
X145518095Y-58244580D02*
X145470476Y-58292200D01*
X145470476Y-58292200D02*
X145375238Y-58339819D01*
X145375238Y-58339819D02*
X145089524Y-58339819D01*
X145089524Y-58339819D02*
X144994286Y-58292200D01*
X144994286Y-58292200D02*
X144946667Y-58244580D01*
X135088333Y-75399580D02*
X135040714Y-75447200D01*
X135040714Y-75447200D02*
X134897857Y-75494819D01*
X134897857Y-75494819D02*
X134802619Y-75494819D01*
X134802619Y-75494819D02*
X134659762Y-75447200D01*
X134659762Y-75447200D02*
X134564524Y-75351961D01*
X134564524Y-75351961D02*
X134516905Y-75256723D01*
X134516905Y-75256723D02*
X134469286Y-75066247D01*
X134469286Y-75066247D02*
X134469286Y-74923390D01*
X134469286Y-74923390D02*
X134516905Y-74732914D01*
X134516905Y-74732914D02*
X134564524Y-74637676D01*
X134564524Y-74637676D02*
X134659762Y-74542438D01*
X134659762Y-74542438D02*
X134802619Y-74494819D01*
X134802619Y-74494819D02*
X134897857Y-74494819D01*
X134897857Y-74494819D02*
X135040714Y-74542438D01*
X135040714Y-74542438D02*
X135088333Y-74590057D01*
X135945476Y-74828152D02*
X135945476Y-75494819D01*
X135707381Y-74447200D02*
X135469286Y-75161485D01*
X135469286Y-75161485D02*
X136088333Y-75161485D01*
X138263333Y-60879819D02*
X137930000Y-60403628D01*
X137691905Y-60879819D02*
X137691905Y-59879819D01*
X137691905Y-59879819D02*
X138072857Y-59879819D01*
X138072857Y-59879819D02*
X138168095Y-59927438D01*
X138168095Y-59927438D02*
X138215714Y-59975057D01*
X138215714Y-59975057D02*
X138263333Y-60070295D01*
X138263333Y-60070295D02*
X138263333Y-60213152D01*
X138263333Y-60213152D02*
X138215714Y-60308390D01*
X138215714Y-60308390D02*
X138168095Y-60356009D01*
X138168095Y-60356009D02*
X138072857Y-60403628D01*
X138072857Y-60403628D02*
X137691905Y-60403628D01*
X138739524Y-60879819D02*
X138930000Y-60879819D01*
X138930000Y-60879819D02*
X139025238Y-60832200D01*
X139025238Y-60832200D02*
X139072857Y-60784580D01*
X139072857Y-60784580D02*
X139168095Y-60641723D01*
X139168095Y-60641723D02*
X139215714Y-60451247D01*
X139215714Y-60451247D02*
X139215714Y-60070295D01*
X139215714Y-60070295D02*
X139168095Y-59975057D01*
X139168095Y-59975057D02*
X139120476Y-59927438D01*
X139120476Y-59927438D02*
X139025238Y-59879819D01*
X139025238Y-59879819D02*
X138834762Y-59879819D01*
X138834762Y-59879819D02*
X138739524Y-59927438D01*
X138739524Y-59927438D02*
X138691905Y-59975057D01*
X138691905Y-59975057D02*
X138644286Y-60070295D01*
X138644286Y-60070295D02*
X138644286Y-60308390D01*
X138644286Y-60308390D02*
X138691905Y-60403628D01*
X138691905Y-60403628D02*
X138739524Y-60451247D01*
X138739524Y-60451247D02*
X138834762Y-60498866D01*
X138834762Y-60498866D02*
X139025238Y-60498866D01*
X139025238Y-60498866D02*
X139120476Y-60451247D01*
X139120476Y-60451247D02*
X139168095Y-60403628D01*
X139168095Y-60403628D02*
X139215714Y-60308390D01*
X128738333Y-88619819D02*
X128405000Y-88143628D01*
X128166905Y-88619819D02*
X128166905Y-87619819D01*
X128166905Y-87619819D02*
X128547857Y-87619819D01*
X128547857Y-87619819D02*
X128643095Y-87667438D01*
X128643095Y-87667438D02*
X128690714Y-87715057D01*
X128690714Y-87715057D02*
X128738333Y-87810295D01*
X128738333Y-87810295D02*
X128738333Y-87953152D01*
X128738333Y-87953152D02*
X128690714Y-88048390D01*
X128690714Y-88048390D02*
X128643095Y-88096009D01*
X128643095Y-88096009D02*
X128547857Y-88143628D01*
X128547857Y-88143628D02*
X128166905Y-88143628D01*
X129595476Y-87619819D02*
X129405000Y-87619819D01*
X129405000Y-87619819D02*
X129309762Y-87667438D01*
X129309762Y-87667438D02*
X129262143Y-87715057D01*
X129262143Y-87715057D02*
X129166905Y-87857914D01*
X129166905Y-87857914D02*
X129119286Y-88048390D01*
X129119286Y-88048390D02*
X129119286Y-88429342D01*
X129119286Y-88429342D02*
X129166905Y-88524580D01*
X129166905Y-88524580D02*
X129214524Y-88572200D01*
X129214524Y-88572200D02*
X129309762Y-88619819D01*
X129309762Y-88619819D02*
X129500238Y-88619819D01*
X129500238Y-88619819D02*
X129595476Y-88572200D01*
X129595476Y-88572200D02*
X129643095Y-88524580D01*
X129643095Y-88524580D02*
X129690714Y-88429342D01*
X129690714Y-88429342D02*
X129690714Y-88191247D01*
X129690714Y-88191247D02*
X129643095Y-88096009D01*
X129643095Y-88096009D02*
X129595476Y-88048390D01*
X129595476Y-88048390D02*
X129500238Y-88000771D01*
X129500238Y-88000771D02*
X129309762Y-88000771D01*
X129309762Y-88000771D02*
X129214524Y-88048390D01*
X129214524Y-88048390D02*
X129166905Y-88096009D01*
X129166905Y-88096009D02*
X129119286Y-88191247D01*
X125649819Y-78112857D02*
X125173628Y-78446190D01*
X125649819Y-78684285D02*
X124649819Y-78684285D01*
X124649819Y-78684285D02*
X124649819Y-78303333D01*
X124649819Y-78303333D02*
X124697438Y-78208095D01*
X124697438Y-78208095D02*
X124745057Y-78160476D01*
X124745057Y-78160476D02*
X124840295Y-78112857D01*
X124840295Y-78112857D02*
X124983152Y-78112857D01*
X124983152Y-78112857D02*
X125078390Y-78160476D01*
X125078390Y-78160476D02*
X125126009Y-78208095D01*
X125126009Y-78208095D02*
X125173628Y-78303333D01*
X125173628Y-78303333D02*
X125173628Y-78684285D01*
X125649819Y-77160476D02*
X125649819Y-77731904D01*
X125649819Y-77446190D02*
X124649819Y-77446190D01*
X124649819Y-77446190D02*
X124792676Y-77541428D01*
X124792676Y-77541428D02*
X124887914Y-77636666D01*
X124887914Y-77636666D02*
X124935533Y-77731904D01*
X124649819Y-76827142D02*
X124649819Y-76208095D01*
X124649819Y-76208095D02*
X125030771Y-76541428D01*
X125030771Y-76541428D02*
X125030771Y-76398571D01*
X125030771Y-76398571D02*
X125078390Y-76303333D01*
X125078390Y-76303333D02*
X125126009Y-76255714D01*
X125126009Y-76255714D02*
X125221247Y-76208095D01*
X125221247Y-76208095D02*
X125459342Y-76208095D01*
X125459342Y-76208095D02*
X125554580Y-76255714D01*
X125554580Y-76255714D02*
X125602200Y-76303333D01*
X125602200Y-76303333D02*
X125649819Y-76398571D01*
X125649819Y-76398571D02*
X125649819Y-76684285D01*
X125649819Y-76684285D02*
X125602200Y-76779523D01*
X125602200Y-76779523D02*
X125554580Y-76827142D01*
X131953095Y-62119819D02*
X131953095Y-62929342D01*
X131953095Y-62929342D02*
X132000714Y-63024580D01*
X132000714Y-63024580D02*
X132048333Y-63072200D01*
X132048333Y-63072200D02*
X132143571Y-63119819D01*
X132143571Y-63119819D02*
X132334047Y-63119819D01*
X132334047Y-63119819D02*
X132429285Y-63072200D01*
X132429285Y-63072200D02*
X132476904Y-63024580D01*
X132476904Y-63024580D02*
X132524523Y-62929342D01*
X132524523Y-62929342D02*
X132524523Y-62119819D01*
X133524523Y-63119819D02*
X132953095Y-63119819D01*
X133238809Y-63119819D02*
X133238809Y-62119819D01*
X133238809Y-62119819D02*
X133143571Y-62262676D01*
X133143571Y-62262676D02*
X133048333Y-62357914D01*
X133048333Y-62357914D02*
X132953095Y-62405533D01*
X144613333Y-55799819D02*
X144280000Y-55323628D01*
X144041905Y-55799819D02*
X144041905Y-54799819D01*
X144041905Y-54799819D02*
X144422857Y-54799819D01*
X144422857Y-54799819D02*
X144518095Y-54847438D01*
X144518095Y-54847438D02*
X144565714Y-54895057D01*
X144565714Y-54895057D02*
X144613333Y-54990295D01*
X144613333Y-54990295D02*
X144613333Y-55133152D01*
X144613333Y-55133152D02*
X144565714Y-55228390D01*
X144565714Y-55228390D02*
X144518095Y-55276009D01*
X144518095Y-55276009D02*
X144422857Y-55323628D01*
X144422857Y-55323628D02*
X144041905Y-55323628D01*
X144994286Y-54895057D02*
X145041905Y-54847438D01*
X145041905Y-54847438D02*
X145137143Y-54799819D01*
X145137143Y-54799819D02*
X145375238Y-54799819D01*
X145375238Y-54799819D02*
X145470476Y-54847438D01*
X145470476Y-54847438D02*
X145518095Y-54895057D01*
X145518095Y-54895057D02*
X145565714Y-54990295D01*
X145565714Y-54990295D02*
X145565714Y-55085533D01*
X145565714Y-55085533D02*
X145518095Y-55228390D01*
X145518095Y-55228390D02*
X144946667Y-55799819D01*
X144946667Y-55799819D02*
X145565714Y-55799819D01*
X108886666Y-53004819D02*
X108886666Y-53719104D01*
X108886666Y-53719104D02*
X108839047Y-53861961D01*
X108839047Y-53861961D02*
X108743809Y-53957200D01*
X108743809Y-53957200D02*
X108600952Y-54004819D01*
X108600952Y-54004819D02*
X108505714Y-54004819D01*
X109886666Y-54004819D02*
X109315238Y-54004819D01*
X109600952Y-54004819D02*
X109600952Y-53004819D01*
X109600952Y-53004819D02*
X109505714Y-53147676D01*
X109505714Y-53147676D02*
X109410476Y-53242914D01*
X109410476Y-53242914D02*
X109315238Y-53290533D01*
X125649819Y-53982857D02*
X125173628Y-54316190D01*
X125649819Y-54554285D02*
X124649819Y-54554285D01*
X124649819Y-54554285D02*
X124649819Y-54173333D01*
X124649819Y-54173333D02*
X124697438Y-54078095D01*
X124697438Y-54078095D02*
X124745057Y-54030476D01*
X124745057Y-54030476D02*
X124840295Y-53982857D01*
X124840295Y-53982857D02*
X124983152Y-53982857D01*
X124983152Y-53982857D02*
X125078390Y-54030476D01*
X125078390Y-54030476D02*
X125126009Y-54078095D01*
X125126009Y-54078095D02*
X125173628Y-54173333D01*
X125173628Y-54173333D02*
X125173628Y-54554285D01*
X125649819Y-53030476D02*
X125649819Y-53601904D01*
X125649819Y-53316190D02*
X124649819Y-53316190D01*
X124649819Y-53316190D02*
X124792676Y-53411428D01*
X124792676Y-53411428D02*
X124887914Y-53506666D01*
X124887914Y-53506666D02*
X124935533Y-53601904D01*
X124649819Y-52411428D02*
X124649819Y-52316190D01*
X124649819Y-52316190D02*
X124697438Y-52220952D01*
X124697438Y-52220952D02*
X124745057Y-52173333D01*
X124745057Y-52173333D02*
X124840295Y-52125714D01*
X124840295Y-52125714D02*
X125030771Y-52078095D01*
X125030771Y-52078095D02*
X125268866Y-52078095D01*
X125268866Y-52078095D02*
X125459342Y-52125714D01*
X125459342Y-52125714D02*
X125554580Y-52173333D01*
X125554580Y-52173333D02*
X125602200Y-52220952D01*
X125602200Y-52220952D02*
X125649819Y-52316190D01*
X125649819Y-52316190D02*
X125649819Y-52411428D01*
X125649819Y-52411428D02*
X125602200Y-52506666D01*
X125602200Y-52506666D02*
X125554580Y-52554285D01*
X125554580Y-52554285D02*
X125459342Y-52601904D01*
X125459342Y-52601904D02*
X125268866Y-52649523D01*
X125268866Y-52649523D02*
X125030771Y-52649523D01*
X125030771Y-52649523D02*
X124840295Y-52601904D01*
X124840295Y-52601904D02*
X124745057Y-52554285D01*
X124745057Y-52554285D02*
X124697438Y-52506666D01*
X124697438Y-52506666D02*
X124649819Y-52411428D01*
X135088333Y-49999580D02*
X135040714Y-50047200D01*
X135040714Y-50047200D02*
X134897857Y-50094819D01*
X134897857Y-50094819D02*
X134802619Y-50094819D01*
X134802619Y-50094819D02*
X134659762Y-50047200D01*
X134659762Y-50047200D02*
X134564524Y-49951961D01*
X134564524Y-49951961D02*
X134516905Y-49856723D01*
X134516905Y-49856723D02*
X134469286Y-49666247D01*
X134469286Y-49666247D02*
X134469286Y-49523390D01*
X134469286Y-49523390D02*
X134516905Y-49332914D01*
X134516905Y-49332914D02*
X134564524Y-49237676D01*
X134564524Y-49237676D02*
X134659762Y-49142438D01*
X134659762Y-49142438D02*
X134802619Y-49094819D01*
X134802619Y-49094819D02*
X134897857Y-49094819D01*
X134897857Y-49094819D02*
X135040714Y-49142438D01*
X135040714Y-49142438D02*
X135088333Y-49190057D01*
X135993095Y-49094819D02*
X135516905Y-49094819D01*
X135516905Y-49094819D02*
X135469286Y-49571009D01*
X135469286Y-49571009D02*
X135516905Y-49523390D01*
X135516905Y-49523390D02*
X135612143Y-49475771D01*
X135612143Y-49475771D02*
X135850238Y-49475771D01*
X135850238Y-49475771D02*
X135945476Y-49523390D01*
X135945476Y-49523390D02*
X135993095Y-49571009D01*
X135993095Y-49571009D02*
X136040714Y-49666247D01*
X136040714Y-49666247D02*
X136040714Y-49904342D01*
X136040714Y-49904342D02*
X135993095Y-49999580D01*
X135993095Y-49999580D02*
X135945476Y-50047200D01*
X135945476Y-50047200D02*
X135850238Y-50094819D01*
X135850238Y-50094819D02*
X135612143Y-50094819D01*
X135612143Y-50094819D02*
X135516905Y-50047200D01*
X135516905Y-50047200D02*
X135469286Y-49999580D01*
X141438333Y-58339819D02*
X141105000Y-57863628D01*
X140866905Y-58339819D02*
X140866905Y-57339819D01*
X140866905Y-57339819D02*
X141247857Y-57339819D01*
X141247857Y-57339819D02*
X141343095Y-57387438D01*
X141343095Y-57387438D02*
X141390714Y-57435057D01*
X141390714Y-57435057D02*
X141438333Y-57530295D01*
X141438333Y-57530295D02*
X141438333Y-57673152D01*
X141438333Y-57673152D02*
X141390714Y-57768390D01*
X141390714Y-57768390D02*
X141343095Y-57816009D01*
X141343095Y-57816009D02*
X141247857Y-57863628D01*
X141247857Y-57863628D02*
X140866905Y-57863628D01*
X142390714Y-58339819D02*
X141819286Y-58339819D01*
X142105000Y-58339819D02*
X142105000Y-57339819D01*
X142105000Y-57339819D02*
X142009762Y-57482676D01*
X142009762Y-57482676D02*
X141914524Y-57577914D01*
X141914524Y-57577914D02*
X141819286Y-57625533D01*
X144613333Y-60794580D02*
X144565714Y-60842200D01*
X144565714Y-60842200D02*
X144422857Y-60889819D01*
X144422857Y-60889819D02*
X144327619Y-60889819D01*
X144327619Y-60889819D02*
X144184762Y-60842200D01*
X144184762Y-60842200D02*
X144089524Y-60746961D01*
X144089524Y-60746961D02*
X144041905Y-60651723D01*
X144041905Y-60651723D02*
X143994286Y-60461247D01*
X143994286Y-60461247D02*
X143994286Y-60318390D01*
X143994286Y-60318390D02*
X144041905Y-60127914D01*
X144041905Y-60127914D02*
X144089524Y-60032676D01*
X144089524Y-60032676D02*
X144184762Y-59937438D01*
X144184762Y-59937438D02*
X144327619Y-59889819D01*
X144327619Y-59889819D02*
X144422857Y-59889819D01*
X144422857Y-59889819D02*
X144565714Y-59937438D01*
X144565714Y-59937438D02*
X144613333Y-59985057D01*
X144994286Y-59985057D02*
X145041905Y-59937438D01*
X145041905Y-59937438D02*
X145137143Y-59889819D01*
X145137143Y-59889819D02*
X145375238Y-59889819D01*
X145375238Y-59889819D02*
X145470476Y-59937438D01*
X145470476Y-59937438D02*
X145518095Y-59985057D01*
X145518095Y-59985057D02*
X145565714Y-60080295D01*
X145565714Y-60080295D02*
X145565714Y-60175533D01*
X145565714Y-60175533D02*
X145518095Y-60318390D01*
X145518095Y-60318390D02*
X144946667Y-60889819D01*
X144946667Y-60889819D02*
X145565714Y-60889819D01*
X141424819Y-53951094D02*
X140424819Y-53951094D01*
X140424819Y-53951094D02*
X140424819Y-53712999D01*
X140424819Y-53712999D02*
X140472438Y-53570142D01*
X140472438Y-53570142D02*
X140567676Y-53474904D01*
X140567676Y-53474904D02*
X140662914Y-53427285D01*
X140662914Y-53427285D02*
X140853390Y-53379666D01*
X140853390Y-53379666D02*
X140996247Y-53379666D01*
X140996247Y-53379666D02*
X141186723Y-53427285D01*
X141186723Y-53427285D02*
X141281961Y-53474904D01*
X141281961Y-53474904D02*
X141377200Y-53570142D01*
X141377200Y-53570142D02*
X141424819Y-53712999D01*
X141424819Y-53712999D02*
X141424819Y-53951094D01*
X141424819Y-52427285D02*
X141424819Y-52998713D01*
X141424819Y-52712999D02*
X140424819Y-52712999D01*
X140424819Y-52712999D02*
X140567676Y-52808237D01*
X140567676Y-52808237D02*
X140662914Y-52903475D01*
X140662914Y-52903475D02*
X140710533Y-52998713D01*
X135088333Y-62064580D02*
X135040714Y-62112200D01*
X135040714Y-62112200D02*
X134897857Y-62159819D01*
X134897857Y-62159819D02*
X134802619Y-62159819D01*
X134802619Y-62159819D02*
X134659762Y-62112200D01*
X134659762Y-62112200D02*
X134564524Y-62016961D01*
X134564524Y-62016961D02*
X134516905Y-61921723D01*
X134516905Y-61921723D02*
X134469286Y-61731247D01*
X134469286Y-61731247D02*
X134469286Y-61588390D01*
X134469286Y-61588390D02*
X134516905Y-61397914D01*
X134516905Y-61397914D02*
X134564524Y-61302676D01*
X134564524Y-61302676D02*
X134659762Y-61207438D01*
X134659762Y-61207438D02*
X134802619Y-61159819D01*
X134802619Y-61159819D02*
X134897857Y-61159819D01*
X134897857Y-61159819D02*
X135040714Y-61207438D01*
X135040714Y-61207438D02*
X135088333Y-61255057D01*
X135421667Y-61159819D02*
X136040714Y-61159819D01*
X136040714Y-61159819D02*
X135707381Y-61540771D01*
X135707381Y-61540771D02*
X135850238Y-61540771D01*
X135850238Y-61540771D02*
X135945476Y-61588390D01*
X135945476Y-61588390D02*
X135993095Y-61636009D01*
X135993095Y-61636009D02*
X136040714Y-61731247D01*
X136040714Y-61731247D02*
X136040714Y-61969342D01*
X136040714Y-61969342D02*
X135993095Y-62064580D01*
X135993095Y-62064580D02*
X135945476Y-62112200D01*
X135945476Y-62112200D02*
X135850238Y-62159819D01*
X135850238Y-62159819D02*
X135564524Y-62159819D01*
X135564524Y-62159819D02*
X135469286Y-62112200D01*
X135469286Y-62112200D02*
X135421667Y-62064580D01*
X144613333Y-50634580D02*
X144565714Y-50682200D01*
X144565714Y-50682200D02*
X144422857Y-50729819D01*
X144422857Y-50729819D02*
X144327619Y-50729819D01*
X144327619Y-50729819D02*
X144184762Y-50682200D01*
X144184762Y-50682200D02*
X144089524Y-50586961D01*
X144089524Y-50586961D02*
X144041905Y-50491723D01*
X144041905Y-50491723D02*
X143994286Y-50301247D01*
X143994286Y-50301247D02*
X143994286Y-50158390D01*
X143994286Y-50158390D02*
X144041905Y-49967914D01*
X144041905Y-49967914D02*
X144089524Y-49872676D01*
X144089524Y-49872676D02*
X144184762Y-49777438D01*
X144184762Y-49777438D02*
X144327619Y-49729819D01*
X144327619Y-49729819D02*
X144422857Y-49729819D01*
X144422857Y-49729819D02*
X144565714Y-49777438D01*
X144565714Y-49777438D02*
X144613333Y-49825057D01*
X145565714Y-50729819D02*
X144994286Y-50729819D01*
X145280000Y-50729819D02*
X145280000Y-49729819D01*
X145280000Y-49729819D02*
X145184762Y-49872676D01*
X145184762Y-49872676D02*
X145089524Y-49967914D01*
X145089524Y-49967914D02*
X144994286Y-50015533D01*
X132018095Y-75454819D02*
X132018095Y-76264342D01*
X132018095Y-76264342D02*
X132065714Y-76359580D01*
X132065714Y-76359580D02*
X132113333Y-76407200D01*
X132113333Y-76407200D02*
X132208571Y-76454819D01*
X132208571Y-76454819D02*
X132399047Y-76454819D01*
X132399047Y-76454819D02*
X132494285Y-76407200D01*
X132494285Y-76407200D02*
X132541904Y-76359580D01*
X132541904Y-76359580D02*
X132589523Y-76264342D01*
X132589523Y-76264342D02*
X132589523Y-75454819D01*
X132970476Y-75454819D02*
X133589523Y-75454819D01*
X133589523Y-75454819D02*
X133256190Y-75835771D01*
X133256190Y-75835771D02*
X133399047Y-75835771D01*
X133399047Y-75835771D02*
X133494285Y-75883390D01*
X133494285Y-75883390D02*
X133541904Y-75931009D01*
X133541904Y-75931009D02*
X133589523Y-76026247D01*
X133589523Y-76026247D02*
X133589523Y-76264342D01*
X133589523Y-76264342D02*
X133541904Y-76359580D01*
X133541904Y-76359580D02*
X133494285Y-76407200D01*
X133494285Y-76407200D02*
X133399047Y-76454819D01*
X133399047Y-76454819D02*
X133113333Y-76454819D01*
X133113333Y-76454819D02*
X133018095Y-76407200D01*
X133018095Y-76407200D02*
X132970476Y-76359580D01*
D11*
%TO.C,kibuzzard-66AE2AD3*%
G36*
X148447877Y-68767055D02*
G01*
X148526370Y-68843493D01*
X148560160Y-68928242D01*
X148580434Y-69046598D01*
X148587192Y-69198562D01*
X148580525Y-69366416D01*
X148560525Y-69495183D01*
X148527192Y-69584863D01*
X148448904Y-69663767D01*
X148334041Y-69690068D01*
X148260068Y-69675274D01*
X148260068Y-68756370D01*
X148334041Y-68741575D01*
X148447877Y-68767055D01*
G37*
G36*
X150716507Y-69968425D02*
G01*
X150374041Y-69968425D01*
X150045274Y-69968425D01*
X149139521Y-69968425D01*
X148334041Y-69968425D01*
X148075959Y-69968425D01*
X147733493Y-69968425D01*
X147733493Y-68631438D01*
X148075959Y-68631438D01*
X148075959Y-69798562D01*
X148199658Y-69823219D01*
X148334041Y-69831438D01*
X148470479Y-69817260D01*
X148476156Y-69815000D01*
X148955411Y-69815000D01*
X149139521Y-69815000D01*
X149139521Y-69502671D01*
X149716507Y-69502671D01*
X149725000Y-69609703D01*
X149750479Y-69694087D01*
X149792945Y-69755822D01*
X149854954Y-69797831D01*
X149939064Y-69823037D01*
X150045274Y-69831438D01*
X150151484Y-69823037D01*
X150235594Y-69797831D01*
X150297603Y-69755822D01*
X150340068Y-69694087D01*
X150365548Y-69609703D01*
X150374041Y-69502671D01*
X150374041Y-68615000D01*
X150194863Y-68615000D01*
X150194863Y-69469795D01*
X150186644Y-69577260D01*
X150161986Y-69643219D01*
X150048562Y-69688425D01*
X149979932Y-69676918D01*
X149935137Y-69642397D01*
X149910479Y-69576233D01*
X149902260Y-69469795D01*
X149902260Y-68615000D01*
X149716507Y-68615000D01*
X149716507Y-69502671D01*
X149139521Y-69502671D01*
X149139521Y-69239658D01*
X149497877Y-69239658D01*
X149497877Y-69099932D01*
X149139521Y-69099932D01*
X149139521Y-68758014D01*
X149514315Y-68758014D01*
X149514315Y-68615000D01*
X148955411Y-68615000D01*
X148955411Y-69815000D01*
X148476156Y-69815000D01*
X148577329Y-69774726D01*
X148658493Y-69697260D01*
X148717877Y-69578288D01*
X148744817Y-69473995D01*
X148760982Y-69347420D01*
X148766370Y-69198562D01*
X148760051Y-69044914D01*
X148741096Y-68916027D01*
X148709503Y-68811901D01*
X148665274Y-68732534D01*
X148583539Y-68658105D01*
X148473128Y-68613447D01*
X148334041Y-68598562D01*
X148204589Y-68606781D01*
X148075959Y-68631438D01*
X147733493Y-68631438D01*
X147733493Y-68461575D01*
X148075959Y-68461575D01*
X150374041Y-68461575D01*
X150716507Y-68461575D01*
X150716507Y-69968425D01*
G37*
%TO.C,kibuzzard-66AE2A6F*%
G36*
X112451301Y-73199521D02*
G01*
X112513356Y-73238356D01*
X112550342Y-73305137D01*
X112562671Y-73401918D01*
X112549521Y-73503014D01*
X112510068Y-73569589D01*
X112439384Y-73606575D01*
X112332534Y-73618904D01*
X112268425Y-73618904D01*
X112268425Y-73199726D01*
X112363767Y-73186575D01*
X112451301Y-73199521D01*
G37*
G36*
X114724863Y-74413425D02*
G01*
X114382397Y-74413425D01*
X114137466Y-74413425D01*
X113198836Y-74413425D01*
X112774726Y-74413425D01*
X111891986Y-74413425D01*
X111267329Y-74413425D01*
X110924863Y-74413425D01*
X110924863Y-73457808D01*
X111267329Y-73457808D01*
X111267329Y-74260000D01*
X111448151Y-74260000D01*
X111448151Y-73559726D01*
X111559931Y-73523562D01*
X111681575Y-73556438D01*
X111714452Y-73676438D01*
X111714452Y-74260000D01*
X111891986Y-74260000D01*
X111891986Y-73684658D01*
X111874931Y-73538767D01*
X111823767Y-73449589D01*
X111763584Y-73415799D01*
X111673995Y-73395525D01*
X111555000Y-73388767D01*
X111449247Y-73396438D01*
X111353356Y-73419452D01*
X111267329Y-73457808D01*
X110924863Y-73457808D01*
X110924863Y-73076438D01*
X112084315Y-73076438D01*
X112084315Y-74260000D01*
X112268425Y-74260000D01*
X112268425Y-73761918D01*
X112332534Y-73761918D01*
X112431986Y-73793973D01*
X112463425Y-73840205D01*
X112490342Y-73914795D01*
X112585685Y-74260000D01*
X112774726Y-74260000D01*
X112672808Y-73924658D01*
X112620205Y-73795616D01*
X112557740Y-73714247D01*
X112557740Y-73710959D01*
X112638288Y-73663904D01*
X112695822Y-73596712D01*
X112730342Y-73509384D01*
X112741849Y-73401918D01*
X112737712Y-73355890D01*
X112911164Y-73355890D01*
X112928219Y-73472603D01*
X112979384Y-73569589D01*
X113035913Y-73626575D01*
X113114543Y-73681370D01*
X113215274Y-73733973D01*
X113285753Y-73776301D01*
X113332808Y-73824384D01*
X113359315Y-73882740D01*
X113368151Y-73955890D01*
X113356644Y-74032534D01*
X113322123Y-74088219D01*
X113267055Y-74122123D01*
X113193904Y-74133425D01*
X113097648Y-74121553D01*
X113006142Y-74085936D01*
X112919384Y-74026575D01*
X112919384Y-74197534D01*
X113003767Y-74241370D01*
X113096918Y-74267671D01*
X113198836Y-74276438D01*
X113326068Y-74263288D01*
X113425027Y-74223836D01*
X113495712Y-74158082D01*
X113538123Y-74066027D01*
X113552260Y-73947671D01*
X113534589Y-73820685D01*
X113481575Y-73719178D01*
X113421484Y-73660548D01*
X113335457Y-73603014D01*
X113223493Y-73546575D01*
X113150434Y-73497443D01*
X113106598Y-73431142D01*
X113091986Y-73347671D01*
X113103493Y-73280274D01*
X113138014Y-73229315D01*
X113192671Y-73197260D01*
X113264589Y-73186575D01*
X113392397Y-73204247D01*
X113519384Y-73257260D01*
X113519384Y-73203014D01*
X113708425Y-73203014D01*
X113953356Y-73203014D01*
X113953356Y-74260000D01*
X114137466Y-74260000D01*
X114137466Y-73203014D01*
X114382397Y-73203014D01*
X114382397Y-73060000D01*
X113708425Y-73060000D01*
X113708425Y-73203014D01*
X113519384Y-73203014D01*
X113519384Y-73092877D01*
X113430982Y-73065479D01*
X113338927Y-73049041D01*
X113243219Y-73043562D01*
X113145046Y-73052694D01*
X113063128Y-73080091D01*
X112997466Y-73125753D01*
X112932740Y-73224384D01*
X112911164Y-73355890D01*
X112737712Y-73355890D01*
X112731712Y-73289132D01*
X112701301Y-73198447D01*
X112650616Y-73129863D01*
X112578196Y-73081918D01*
X112482580Y-73053151D01*
X112363767Y-73043562D01*
X112269155Y-73047215D01*
X112176005Y-73058174D01*
X112084315Y-73076438D01*
X110924863Y-73076438D01*
X110924863Y-72906575D01*
X111267329Y-72906575D01*
X114382397Y-72906575D01*
X114724863Y-72906575D01*
X114724863Y-74413425D01*
G37*
D12*
%TO.C,R8*%
X138276359Y-58675000D02*
X138583641Y-58675000D01*
X138276359Y-59435000D02*
X138583641Y-59435000D01*
%TO.C,R12*%
X125985000Y-69368641D02*
X125985000Y-69061359D01*
X126745000Y-69368641D02*
X126745000Y-69061359D01*
%TO.C,U2*%
X132715000Y-51445000D02*
X130765000Y-51445000D01*
X132715000Y-51445000D02*
X134665000Y-51445000D01*
X132715000Y-60315000D02*
X130765000Y-60315000D01*
X132715000Y-60315000D02*
X134665000Y-60315000D01*
X130015000Y-51510000D02*
X129775000Y-51180000D01*
X130255000Y-51180000D01*
X130015000Y-51510000D01*
G36*
X130015000Y-51510000D02*
G01*
X129775000Y-51180000D01*
X130255000Y-51180000D01*
X130015000Y-51510000D01*
G37*
%TO.C,SW1*%
X139375000Y-68465000D02*
X139375000Y-69965000D01*
X140625000Y-72465000D02*
X145125000Y-72465000D01*
X145125000Y-65965000D02*
X140625000Y-65965000D01*
X146375000Y-69965000D02*
X146375000Y-68465000D01*
%TO.C,R11*%
X125985000Y-61748641D02*
X125985000Y-61441359D01*
X126745000Y-61748641D02*
X126745000Y-61441359D01*
%TO.C,R4*%
X141451359Y-61215000D02*
X141758641Y-61215000D01*
X141451359Y-61975000D02*
X141758641Y-61975000D01*
%TO.C,SW3*%
X139375000Y-84975000D02*
X139375000Y-86475000D01*
X140625000Y-88975000D02*
X145125000Y-88975000D01*
X145125000Y-82475000D02*
X140625000Y-82475000D01*
X146375000Y-86475000D02*
X146375000Y-84975000D01*
D11*
%TO.C,kibuzzard-66AE2A46*%
G36*
X112470617Y-63058630D02*
G01*
X112519932Y-63156438D01*
X112238836Y-63644658D01*
X112235548Y-63508219D01*
X112237740Y-63391324D01*
X112244315Y-63292694D01*
X112255274Y-63212329D01*
X112278083Y-63122740D01*
X112307055Y-63067671D01*
X112393357Y-63029863D01*
X112470617Y-63058630D01*
G37*
G36*
X112549932Y-63419041D02*
G01*
X112551165Y-63508219D01*
X112548973Y-63625114D01*
X112542398Y-63723744D01*
X112531439Y-63804110D01*
X112508631Y-63893699D01*
X112479658Y-63948767D01*
X112393357Y-63986575D01*
X112311165Y-63952877D01*
X112260206Y-63836986D01*
X112546233Y-63342192D01*
X112549932Y-63419041D01*
G37*
G36*
X113853631Y-64261644D02*
G01*
X113511165Y-64261644D01*
X112393357Y-64261644D01*
X111933083Y-64261644D01*
X111267329Y-64261644D01*
X110924863Y-64261644D01*
X110924863Y-64108219D01*
X111267329Y-64108219D01*
X111448151Y-64108219D01*
X111448151Y-63735068D01*
X111721028Y-64108219D01*
X111933083Y-64108219D01*
X111591165Y-63664384D01*
X111721094Y-63508219D01*
X112064589Y-63508219D01*
X112068882Y-63654064D01*
X112081758Y-63778174D01*
X112103220Y-63880548D01*
X112149452Y-63996849D01*
X112210891Y-64071233D01*
X112291028Y-64111301D01*
X112393357Y-64124658D01*
X112495685Y-64111301D01*
X112575822Y-64071233D01*
X112637261Y-63996849D01*
X112683494Y-63880548D01*
X112704955Y-63778174D01*
X112717831Y-63654064D01*
X112722124Y-63508219D01*
X112717831Y-63362374D01*
X112704955Y-63238265D01*
X112683494Y-63135890D01*
X112637261Y-63019589D01*
X112602298Y-62977260D01*
X112919384Y-62977260D01*
X112919384Y-63131781D01*
X113011987Y-63077900D01*
X113096918Y-63045571D01*
X113174179Y-63034795D01*
X113281850Y-63079178D01*
X113308357Y-63136712D01*
X113317192Y-63220548D01*
X113309074Y-63310623D01*
X113284718Y-63406134D01*
X113244125Y-63507079D01*
X113187296Y-63613458D01*
X113114229Y-63725273D01*
X113024925Y-63842522D01*
X112919384Y-63965205D01*
X112919384Y-64108219D01*
X113511165Y-64108219D01*
X113511165Y-63965205D01*
X113110069Y-63965205D01*
X113110069Y-63961918D01*
X113206490Y-63847055D01*
X113288631Y-63739178D01*
X113356490Y-63638288D01*
X113410069Y-63544384D01*
X113461667Y-63427123D01*
X113492626Y-63316438D01*
X113502946Y-63212329D01*
X113484247Y-63073630D01*
X113428151Y-62973151D01*
X113336713Y-62912123D01*
X113211987Y-62891781D01*
X113107877Y-62901279D01*
X113010343Y-62929772D01*
X112919384Y-62977260D01*
X112602298Y-62977260D01*
X112575822Y-62945205D01*
X112495685Y-62905137D01*
X112393357Y-62891781D01*
X112291028Y-62905137D01*
X112210891Y-62945205D01*
X112149452Y-63019589D01*
X112103220Y-63135890D01*
X112081758Y-63238265D01*
X112068882Y-63362374D01*
X112064589Y-63508219D01*
X111721094Y-63508219D01*
X111933083Y-63253425D01*
X111724315Y-63253425D01*
X111448151Y-63598630D01*
X111448151Y-62875342D01*
X111267329Y-62875342D01*
X111267329Y-64108219D01*
X110924863Y-64108219D01*
X110924863Y-62738356D01*
X111267329Y-62738356D01*
X113511165Y-62738356D01*
X113853631Y-62738356D01*
X113853631Y-64261644D01*
G37*
D12*
%TO.C,R14*%
X125985000Y-85878641D02*
X125985000Y-85571359D01*
X126745000Y-85878641D02*
X126745000Y-85571359D01*
D11*
%TO.C,kibuzzard-66AE2A86*%
G36*
X112460206Y-78283744D02*
G01*
X112521027Y-78340183D01*
X112541301Y-78434247D01*
X112528151Y-78520753D01*
X112488699Y-78579726D01*
X112421301Y-78613630D01*
X112324315Y-78624932D01*
X112276644Y-78624932D01*
X112276644Y-78278082D01*
X112358836Y-78264932D01*
X112460206Y-78283744D01*
G37*
G36*
X112446781Y-78778219D02*
G01*
X112516644Y-78818904D01*
X112557329Y-78889178D01*
X112570890Y-78991507D01*
X112558356Y-79092397D01*
X112520754Y-79161644D01*
X112457671Y-79201712D01*
X112368699Y-79215068D01*
X112276644Y-79201918D01*
X112276644Y-78764658D01*
X112345685Y-78764658D01*
X112446781Y-78778219D01*
G37*
G36*
X113308562Y-78291849D02*
G01*
X113366507Y-78367671D01*
X113391164Y-78453973D01*
X113405959Y-78578082D01*
X113410890Y-78740000D01*
X113405959Y-78901918D01*
X113391164Y-79026027D01*
X113366507Y-79112329D01*
X113308562Y-79188151D01*
X113223493Y-79213425D01*
X113138425Y-79188151D01*
X113080480Y-79112329D01*
X113055822Y-79026027D01*
X113041027Y-78901918D01*
X113036096Y-78740000D01*
X113041027Y-78578082D01*
X113055822Y-78453973D01*
X113080480Y-78367671D01*
X113138425Y-78291849D01*
X113223493Y-78266575D01*
X113308562Y-78291849D01*
G37*
G36*
X114130480Y-78291849D02*
G01*
X114188425Y-78367671D01*
X114213082Y-78453973D01*
X114227877Y-78578082D01*
X114232808Y-78740000D01*
X114227877Y-78901918D01*
X114213082Y-79026027D01*
X114188425Y-79112329D01*
X114130480Y-79188151D01*
X114045411Y-79213425D01*
X113960343Y-79188151D01*
X113902397Y-79112329D01*
X113877740Y-79026027D01*
X113862945Y-78901918D01*
X113858014Y-78740000D01*
X113862945Y-78578082D01*
X113877740Y-78453973D01*
X113902397Y-78367671D01*
X113960343Y-78291849D01*
X114045411Y-78266575D01*
X114130480Y-78291849D01*
G37*
G36*
X115546781Y-79493425D02*
G01*
X115204315Y-79493425D01*
X114959384Y-79493425D01*
X114045411Y-79493425D01*
X113223493Y-79493425D01*
X112368699Y-79493425D01*
X111891986Y-79493425D01*
X111267329Y-79493425D01*
X110924863Y-79493425D01*
X110924863Y-78537808D01*
X111267329Y-78537808D01*
X111267329Y-79340000D01*
X111448151Y-79340000D01*
X111448151Y-78639726D01*
X111559932Y-78603562D01*
X111681575Y-78636438D01*
X111714452Y-78756438D01*
X111714452Y-79340000D01*
X111891986Y-79340000D01*
X111891986Y-78764658D01*
X111874932Y-78618767D01*
X111823767Y-78529589D01*
X111763585Y-78495799D01*
X111673996Y-78475525D01*
X111555000Y-78468767D01*
X111449247Y-78476438D01*
X111353356Y-78499452D01*
X111267329Y-78537808D01*
X110924863Y-78537808D01*
X110924863Y-78156438D01*
X112092534Y-78156438D01*
X112092534Y-79323562D01*
X112183128Y-79341826D01*
X112275183Y-79352785D01*
X112368699Y-79356438D01*
X112485228Y-79346393D01*
X112580571Y-79316256D01*
X112654726Y-79266027D01*
X112707694Y-79195708D01*
X112739475Y-79105297D01*
X112750069Y-78994795D01*
X112734247Y-78884658D01*
X112686781Y-78790959D01*
X112633839Y-78740000D01*
X112861849Y-78740000D01*
X112866324Y-78883927D01*
X112879749Y-79006667D01*
X112902123Y-79108219D01*
X112951644Y-79224521D01*
X113019658Y-79300548D01*
X113109247Y-79342466D01*
X113223493Y-79356438D01*
X113337740Y-79342466D01*
X113427329Y-79300548D01*
X113495343Y-79224521D01*
X113544863Y-79108219D01*
X113567238Y-79006667D01*
X113580662Y-78883927D01*
X113585137Y-78740000D01*
X113683767Y-78740000D01*
X113688242Y-78883927D01*
X113701667Y-79006667D01*
X113724041Y-79108219D01*
X113773562Y-79224521D01*
X113841575Y-79300548D01*
X113931164Y-79342466D01*
X114045411Y-79356438D01*
X114159658Y-79342466D01*
X114249247Y-79300548D01*
X114317260Y-79224521D01*
X114366781Y-79108219D01*
X114389155Y-79006667D01*
X114402580Y-78883927D01*
X114407055Y-78740000D01*
X114402580Y-78596073D01*
X114389155Y-78473333D01*
X114366781Y-78371781D01*
X114328984Y-78283014D01*
X114530343Y-78283014D01*
X114775274Y-78283014D01*
X114775274Y-79340000D01*
X114959384Y-79340000D01*
X114959384Y-78283014D01*
X115204315Y-78283014D01*
X115204315Y-78140000D01*
X114530343Y-78140000D01*
X114530343Y-78283014D01*
X114328984Y-78283014D01*
X114317260Y-78255479D01*
X114249247Y-78179452D01*
X114159658Y-78137534D01*
X114045411Y-78123562D01*
X113931164Y-78137534D01*
X113841575Y-78179452D01*
X113773562Y-78255479D01*
X113724041Y-78371781D01*
X113701667Y-78473333D01*
X113688242Y-78596073D01*
X113683767Y-78740000D01*
X113585137Y-78740000D01*
X113580662Y-78596073D01*
X113567238Y-78473333D01*
X113544863Y-78371781D01*
X113495343Y-78255479D01*
X113427329Y-78179452D01*
X113337740Y-78137534D01*
X113223493Y-78123562D01*
X113109247Y-78137534D01*
X113019658Y-78179452D01*
X112951644Y-78255479D01*
X112902123Y-78371781D01*
X112879749Y-78473333D01*
X112866324Y-78596073D01*
X112861849Y-78740000D01*
X112633839Y-78740000D01*
X112615480Y-78722329D01*
X112528151Y-78687397D01*
X112528151Y-78685753D01*
X112605206Y-78652055D01*
X112665411Y-78593699D01*
X112704247Y-78515616D01*
X112717192Y-78422740D01*
X112702858Y-78315036D01*
X112659855Y-78231266D01*
X112588184Y-78171430D01*
X112487844Y-78135529D01*
X112358836Y-78123562D01*
X112223219Y-78131781D01*
X112092534Y-78156438D01*
X110924863Y-78156438D01*
X110924863Y-77986575D01*
X111267329Y-77986575D01*
X115204315Y-77986575D01*
X115546781Y-77986575D01*
X115546781Y-79493425D01*
G37*
D12*
%TO.C,SW4*%
X117150000Y-52590000D02*
X117150000Y-54090000D01*
X118400000Y-56590000D02*
X122900000Y-56590000D01*
X122900000Y-50090000D02*
X118400000Y-50090000D01*
X124150000Y-54090000D02*
X124150000Y-52590000D01*
%TO.C,R5*%
X144626359Y-53595000D02*
X144933641Y-53595000D01*
X144626359Y-54355000D02*
X144933641Y-54355000D01*
D11*
%TO.C,kibuzzard-66AE2A2C*%
G36*
X113924315Y-56633425D02*
G01*
X113581849Y-56633425D01*
X113364863Y-56633425D01*
X112542945Y-56633425D01*
X111747329Y-56633425D01*
X111267329Y-56633425D01*
X110924863Y-56633425D01*
X110924863Y-55280000D01*
X111267329Y-55280000D01*
X111533630Y-56480000D01*
X111747329Y-56480000D01*
X111884972Y-55863562D01*
X112127055Y-55863562D01*
X112133553Y-56011892D01*
X112153048Y-56140445D01*
X112185539Y-56249221D01*
X112231027Y-56338219D01*
X112289512Y-56407440D01*
X112360993Y-56456884D01*
X112445471Y-56486550D01*
X112542945Y-56496438D01*
X112652671Y-56486164D01*
X112751712Y-56455342D01*
X112751712Y-56304110D01*
X112658014Y-56342329D01*
X112570890Y-56355068D01*
X112490525Y-56341416D01*
X112424772Y-56300457D01*
X112373630Y-56232192D01*
X112337100Y-56136621D01*
X112315183Y-56013744D01*
X112307877Y-55863562D01*
X112948973Y-55863562D01*
X112955471Y-56011892D01*
X112974966Y-56140445D01*
X113007457Y-56249221D01*
X113052945Y-56338219D01*
X113111430Y-56407440D01*
X113182911Y-56456884D01*
X113267389Y-56486550D01*
X113364863Y-56496438D01*
X113474589Y-56486164D01*
X113573630Y-56455342D01*
X113573630Y-56304110D01*
X113479931Y-56342329D01*
X113392808Y-56355068D01*
X113312443Y-56341416D01*
X113246689Y-56300457D01*
X113195548Y-56232192D01*
X113159018Y-56136621D01*
X113137100Y-56013744D01*
X113129794Y-55863562D01*
X113136415Y-55724429D01*
X113156278Y-55610594D01*
X113189384Y-55522055D01*
X113235731Y-55458813D01*
X113295320Y-55420868D01*
X113368151Y-55408219D01*
X113405959Y-55414795D01*
X113405959Y-55671233D01*
X113581849Y-55671233D01*
X113581849Y-55299726D01*
X113477055Y-55272603D01*
X113359931Y-55263562D01*
X113263613Y-55272937D01*
X113180137Y-55301062D01*
X113109503Y-55347937D01*
X113051712Y-55413562D01*
X113006764Y-55497937D01*
X112974657Y-55601062D01*
X112955394Y-55722937D01*
X112948973Y-55863562D01*
X112307877Y-55863562D01*
X112314498Y-55724429D01*
X112334361Y-55610594D01*
X112367466Y-55522055D01*
X112413813Y-55458813D01*
X112473402Y-55420868D01*
X112546233Y-55408219D01*
X112584041Y-55414795D01*
X112584041Y-55671233D01*
X112759931Y-55671233D01*
X112759931Y-55299726D01*
X112655137Y-55272603D01*
X112538014Y-55263562D01*
X112441695Y-55272937D01*
X112358219Y-55301062D01*
X112287586Y-55347937D01*
X112229794Y-55413562D01*
X112184846Y-55497937D01*
X112152740Y-55601062D01*
X112133476Y-55722937D01*
X112127055Y-55863562D01*
X111884972Y-55863562D01*
X112015274Y-55280000D01*
X111832808Y-55280000D01*
X111645411Y-56315616D01*
X111643767Y-56315616D01*
X111456370Y-55280000D01*
X111267329Y-55280000D01*
X110924863Y-55280000D01*
X110924863Y-55126575D01*
X111267329Y-55126575D01*
X113581849Y-55126575D01*
X113924315Y-55126575D01*
X113924315Y-56633425D01*
G37*
%TO.C,kibuzzard-66AE2A35*%
G36*
X113311028Y-57972055D02*
G01*
X113389521Y-58048493D01*
X113423311Y-58133242D01*
X113443585Y-58251598D01*
X113450343Y-58403562D01*
X113443676Y-58571416D01*
X113423676Y-58700183D01*
X113390343Y-58789863D01*
X113312055Y-58868767D01*
X113197192Y-58895068D01*
X113123220Y-58880274D01*
X113123220Y-57961370D01*
X113197192Y-57946575D01*
X113311028Y-57972055D01*
G37*
G36*
X113971987Y-59173425D02*
G01*
X113629521Y-59173425D01*
X113197192Y-59173425D01*
X112130343Y-59173425D01*
X111678288Y-59173425D01*
X111267329Y-59173425D01*
X110924863Y-59173425D01*
X110924863Y-58411781D01*
X111267329Y-58411781D01*
X111273750Y-58558185D01*
X111293014Y-58685068D01*
X111325120Y-58792432D01*
X111370069Y-58880274D01*
X111427860Y-58948596D01*
X111498493Y-58997397D01*
X111581970Y-59026678D01*
X111678288Y-59036438D01*
X111776553Y-59030046D01*
X111825348Y-59020000D01*
X112130343Y-59020000D01*
X112311165Y-59020000D01*
X112311165Y-58148767D01*
X112314452Y-58148767D01*
X112570891Y-59020000D01*
X112755000Y-59020000D01*
X112755000Y-57836438D01*
X112939110Y-57836438D01*
X112939110Y-59003562D01*
X113062809Y-59028219D01*
X113197192Y-59036438D01*
X113333630Y-59022260D01*
X113440480Y-58979726D01*
X113521644Y-58902260D01*
X113581028Y-58783288D01*
X113607968Y-58678995D01*
X113624133Y-58552420D01*
X113629521Y-58403562D01*
X113623202Y-58249914D01*
X113604247Y-58121027D01*
X113572654Y-58016901D01*
X113528425Y-57937534D01*
X113446690Y-57863105D01*
X113336279Y-57818447D01*
X113197192Y-57803562D01*
X113067740Y-57811781D01*
X112939110Y-57836438D01*
X112755000Y-57836438D01*
X112755000Y-57820000D01*
X112582398Y-57820000D01*
X112582398Y-58691233D01*
X112577466Y-58691233D01*
X112321028Y-57820000D01*
X112130343Y-57820000D01*
X112130343Y-59020000D01*
X111825348Y-59020000D01*
X111869704Y-59010868D01*
X111957740Y-58978904D01*
X111957740Y-58304932D01*
X111574726Y-58304932D01*
X111574726Y-58444658D01*
X111781850Y-58444658D01*
X111781850Y-58875342D01*
X111683220Y-58895068D01*
X111582946Y-58867123D01*
X111508973Y-58783288D01*
X111475183Y-58692329D01*
X111454909Y-58568493D01*
X111448151Y-58411781D01*
X111455274Y-58258630D01*
X111476644Y-58138904D01*
X111512261Y-58052603D01*
X111594041Y-57974315D01*
X111711165Y-57948219D01*
X111811850Y-57958082D01*
X111916644Y-57987671D01*
X111916644Y-57839726D01*
X111815959Y-57812603D01*
X111711165Y-57803562D01*
X111575548Y-57819817D01*
X111464589Y-57868584D01*
X111378288Y-57949863D01*
X111329743Y-58033596D01*
X111295069Y-58138493D01*
X111274264Y-58264555D01*
X111267329Y-58411781D01*
X110924863Y-58411781D01*
X110924863Y-57666575D01*
X111267329Y-57666575D01*
X113629521Y-57666575D01*
X113971987Y-57666575D01*
X113971987Y-59173425D01*
G37*
D12*
%TO.C,R3*%
X144626359Y-58675000D02*
X144933641Y-58675000D01*
X144626359Y-59435000D02*
X144933641Y-59435000D01*
D11*
%TO.C,kibuzzard-66AE2A58*%
G36*
X113261301Y-68780548D02*
G01*
X112998287Y-68780548D01*
X112998287Y-68775616D01*
X113258013Y-68243014D01*
X113261301Y-68243014D01*
X113261301Y-68780548D01*
G37*
G36*
X112470616Y-68138630D02*
G01*
X112519931Y-68236438D01*
X112238835Y-68724658D01*
X112235548Y-68588219D01*
X112237739Y-68471324D01*
X112244315Y-68372694D01*
X112255274Y-68292329D01*
X112278082Y-68202740D01*
X112307055Y-68147671D01*
X112393356Y-68109863D01*
X112470616Y-68138630D01*
G37*
G36*
X112549931Y-68499041D02*
G01*
X112551164Y-68588219D01*
X112548972Y-68705114D01*
X112542397Y-68803744D01*
X112531438Y-68884110D01*
X112508630Y-68973699D01*
X112479657Y-69028767D01*
X112393356Y-69066575D01*
X112311164Y-69032877D01*
X112260205Y-68916986D01*
X112546233Y-68422192D01*
X112549931Y-68499041D01*
G37*
G36*
X113919383Y-69341644D02*
G01*
X113576918Y-69341644D01*
X113442123Y-69341644D01*
X112393356Y-69341644D01*
X111933082Y-69341644D01*
X111267328Y-69341644D01*
X110924863Y-69341644D01*
X110924863Y-69188219D01*
X111267328Y-69188219D01*
X111448150Y-69188219D01*
X111448150Y-68815068D01*
X111721027Y-69188219D01*
X111933082Y-69188219D01*
X111591164Y-68744384D01*
X111721093Y-68588219D01*
X112064589Y-68588219D01*
X112068881Y-68734064D01*
X112081758Y-68858174D01*
X112103219Y-68960548D01*
X112149452Y-69076849D01*
X112210890Y-69151233D01*
X112291027Y-69191301D01*
X112393356Y-69204658D01*
X112495685Y-69191301D01*
X112575822Y-69151233D01*
X112637260Y-69076849D01*
X112683493Y-68960548D01*
X112704954Y-68858174D01*
X112713008Y-68780548D01*
X112853630Y-68780548D01*
X112853630Y-68921918D01*
X113261301Y-68921918D01*
X113261301Y-69188219D01*
X113442123Y-69188219D01*
X113442123Y-68921918D01*
X113576918Y-68921918D01*
X113576918Y-68780548D01*
X113442123Y-68780548D01*
X113442123Y-67988219D01*
X113243219Y-67988219D01*
X112853630Y-68780548D01*
X112713008Y-68780548D01*
X112717831Y-68734064D01*
X112722123Y-68588219D01*
X112717831Y-68442374D01*
X112704954Y-68318265D01*
X112683493Y-68215890D01*
X112637260Y-68099589D01*
X112575822Y-68025205D01*
X112495685Y-67985137D01*
X112393356Y-67971781D01*
X112291027Y-67985137D01*
X112210890Y-68025205D01*
X112149452Y-68099589D01*
X112103219Y-68215890D01*
X112081758Y-68318265D01*
X112068881Y-68442374D01*
X112064589Y-68588219D01*
X111721093Y-68588219D01*
X111933082Y-68333425D01*
X111724315Y-68333425D01*
X111448150Y-68678630D01*
X111448150Y-67955342D01*
X111267328Y-67955342D01*
X111267328Y-69188219D01*
X110924863Y-69188219D01*
X110924863Y-67818356D01*
X111267328Y-67818356D01*
X113576918Y-67818356D01*
X113919383Y-67818356D01*
X113919383Y-69341644D01*
G37*
D12*
%TO.C,C4*%
X135147164Y-75840000D02*
X135362836Y-75840000D01*
X135147164Y-76560000D02*
X135362836Y-76560000D01*
%TO.C,R9*%
X138276359Y-61215000D02*
X138583641Y-61215000D01*
X138276359Y-61975000D02*
X138583641Y-61975000D01*
D11*
%TO.C,kibuzzard-66AE2AE7*%
G36*
X148443630Y-77013744D02*
G01*
X148504452Y-77070183D01*
X148524726Y-77164247D01*
X148511575Y-77250753D01*
X148472123Y-77309726D01*
X148404726Y-77343630D01*
X148307739Y-77354932D01*
X148260068Y-77354932D01*
X148260068Y-77008082D01*
X148342260Y-76994932D01*
X148443630Y-77013744D01*
G37*
G36*
X148430205Y-77508219D02*
G01*
X148500068Y-77548904D01*
X148540753Y-77619178D01*
X148554315Y-77721507D01*
X148541781Y-77822397D01*
X148504178Y-77891644D01*
X148441096Y-77931712D01*
X148352123Y-77945068D01*
X148260068Y-77931918D01*
X148260068Y-77494658D01*
X148329109Y-77494658D01*
X148430205Y-77508219D01*
G37*
G36*
X149291986Y-77021849D02*
G01*
X149349931Y-77097671D01*
X149374589Y-77183973D01*
X149389383Y-77308082D01*
X149394315Y-77470000D01*
X149389383Y-77631918D01*
X149374589Y-77756027D01*
X149349931Y-77842329D01*
X149291986Y-77918151D01*
X149206917Y-77943425D01*
X149121849Y-77918151D01*
X149063904Y-77842329D01*
X149039246Y-77756027D01*
X149024452Y-77631918D01*
X149019520Y-77470000D01*
X149024452Y-77308082D01*
X149039246Y-77183973D01*
X149063904Y-77097671D01*
X149121849Y-77021849D01*
X149206917Y-76996575D01*
X149291986Y-77021849D01*
G37*
G36*
X150113904Y-77021849D02*
G01*
X150171849Y-77097671D01*
X150196507Y-77183973D01*
X150211301Y-77308082D01*
X150216233Y-77470000D01*
X150211301Y-77631918D01*
X150196507Y-77756027D01*
X150171849Y-77842329D01*
X150113904Y-77918151D01*
X150028835Y-77943425D01*
X149943767Y-77918151D01*
X149885822Y-77842329D01*
X149861164Y-77756027D01*
X149846370Y-77631918D01*
X149841438Y-77470000D01*
X149846370Y-77308082D01*
X149861164Y-77183973D01*
X149885822Y-77097671D01*
X149943767Y-77021849D01*
X150028835Y-76996575D01*
X150113904Y-77021849D01*
G37*
G36*
X151530205Y-78223425D02*
G01*
X151187739Y-78223425D01*
X150942808Y-78223425D01*
X150028835Y-78223425D01*
X149206917Y-78223425D01*
X148352123Y-78223425D01*
X148075959Y-78223425D01*
X147733493Y-78223425D01*
X147733493Y-76886438D01*
X148075959Y-76886438D01*
X148075959Y-78053562D01*
X148166552Y-78071826D01*
X148258607Y-78082785D01*
X148352123Y-78086438D01*
X148468653Y-78076393D01*
X148563995Y-78046256D01*
X148638150Y-77996027D01*
X148691118Y-77925708D01*
X148722899Y-77835297D01*
X148733493Y-77724795D01*
X148717671Y-77614658D01*
X148670205Y-77520959D01*
X148617263Y-77470000D01*
X148845274Y-77470000D01*
X148849749Y-77613927D01*
X148863173Y-77736667D01*
X148885548Y-77838219D01*
X148935068Y-77954521D01*
X149003082Y-78030548D01*
X149092671Y-78072466D01*
X149206917Y-78086438D01*
X149321164Y-78072466D01*
X149410753Y-78030548D01*
X149478767Y-77954521D01*
X149528287Y-77838219D01*
X149550662Y-77736667D01*
X149564086Y-77613927D01*
X149568561Y-77470000D01*
X149667191Y-77470000D01*
X149671666Y-77613927D01*
X149685091Y-77736667D01*
X149707465Y-77838219D01*
X149756986Y-77954521D01*
X149825000Y-78030548D01*
X149914589Y-78072466D01*
X150028835Y-78086438D01*
X150143082Y-78072466D01*
X150232671Y-78030548D01*
X150300685Y-77954521D01*
X150350205Y-77838219D01*
X150372580Y-77736667D01*
X150386004Y-77613927D01*
X150390479Y-77470000D01*
X150386004Y-77326073D01*
X150372580Y-77203333D01*
X150350205Y-77101781D01*
X150312409Y-77013014D01*
X150513767Y-77013014D01*
X150758698Y-77013014D01*
X150758698Y-78070000D01*
X150942808Y-78070000D01*
X150942808Y-77013014D01*
X151187739Y-77013014D01*
X151187739Y-76870000D01*
X150513767Y-76870000D01*
X150513767Y-77013014D01*
X150312409Y-77013014D01*
X150300685Y-76985479D01*
X150232671Y-76909452D01*
X150143082Y-76867534D01*
X150028835Y-76853562D01*
X149914589Y-76867534D01*
X149825000Y-76909452D01*
X149756986Y-76985479D01*
X149707465Y-77101781D01*
X149685091Y-77203333D01*
X149671666Y-77326073D01*
X149667191Y-77470000D01*
X149568561Y-77470000D01*
X149564086Y-77326073D01*
X149550662Y-77203333D01*
X149528287Y-77101781D01*
X149478767Y-76985479D01*
X149410753Y-76909452D01*
X149321164Y-76867534D01*
X149206917Y-76853562D01*
X149092671Y-76867534D01*
X149003082Y-76909452D01*
X148935068Y-76985479D01*
X148885548Y-77101781D01*
X148863173Y-77203333D01*
X148849749Y-77326073D01*
X148845274Y-77470000D01*
X148617263Y-77470000D01*
X148598904Y-77452329D01*
X148511575Y-77417397D01*
X148511575Y-77415753D01*
X148588630Y-77382055D01*
X148648835Y-77323699D01*
X148687671Y-77245616D01*
X148700616Y-77152740D01*
X148686282Y-77045036D01*
X148643279Y-76961266D01*
X148571608Y-76901430D01*
X148471268Y-76865529D01*
X148342260Y-76853562D01*
X148206644Y-76861781D01*
X148075959Y-76886438D01*
X147733493Y-76886438D01*
X147733493Y-76716575D01*
X148075959Y-76716575D01*
X151187739Y-76716575D01*
X151530205Y-76716575D01*
X151530205Y-78223425D01*
G37*
D12*
%TO.C,R6*%
X129058641Y-86615000D02*
X128751359Y-86615000D01*
X129058641Y-87375000D02*
X128751359Y-87375000D01*
%TO.C,SW5*%
X117075000Y-60500000D02*
X117075000Y-62000000D01*
X118325000Y-64500000D02*
X122825000Y-64500000D01*
X122825000Y-58000000D02*
X118325000Y-58000000D01*
X124075000Y-62000000D02*
X124075000Y-60500000D01*
D11*
%TO.C,kibuzzard-66AE2A4E*%
G36*
X112470617Y-65598630D02*
G01*
X112519932Y-65696438D01*
X112238836Y-66184658D01*
X112235548Y-66048219D01*
X112237740Y-65931324D01*
X112244315Y-65832694D01*
X112255274Y-65752329D01*
X112278083Y-65662740D01*
X112307055Y-65607671D01*
X112393357Y-65569863D01*
X112470617Y-65598630D01*
G37*
G36*
X112549932Y-65959041D02*
G01*
X112551165Y-66048219D01*
X112548973Y-66165114D01*
X112542398Y-66263744D01*
X112531439Y-66344110D01*
X112508631Y-66433699D01*
X112479658Y-66488767D01*
X112393357Y-66526575D01*
X112311165Y-66492877D01*
X112260206Y-66376986D01*
X112546233Y-65882192D01*
X112549932Y-65959041D01*
G37*
G36*
X113873357Y-66801644D02*
G01*
X113530891Y-66801644D01*
X113161028Y-66801644D01*
X112393357Y-66801644D01*
X111933083Y-66801644D01*
X111267329Y-66801644D01*
X110924863Y-66801644D01*
X110924863Y-66648219D01*
X111267329Y-66648219D01*
X111448151Y-66648219D01*
X111448151Y-66275068D01*
X111721028Y-66648219D01*
X111933083Y-66648219D01*
X111591165Y-66204384D01*
X111721094Y-66048219D01*
X112064589Y-66048219D01*
X112068882Y-66194064D01*
X112081758Y-66318174D01*
X112103220Y-66420548D01*
X112149452Y-66536849D01*
X112210891Y-66611233D01*
X112291028Y-66651301D01*
X112393357Y-66664658D01*
X112495685Y-66651301D01*
X112575822Y-66611233D01*
X112637261Y-66536849D01*
X112670098Y-66454247D01*
X112898014Y-66454247D01*
X112898014Y-66612055D01*
X113027055Y-66651507D01*
X113161028Y-66664658D01*
X113274042Y-66654612D01*
X113366507Y-66624475D01*
X113438425Y-66574247D01*
X113489795Y-66503927D01*
X113520617Y-66413516D01*
X113530891Y-66303014D01*
X113517535Y-66187534D01*
X113477466Y-66099178D01*
X113410685Y-66037945D01*
X113317192Y-66003836D01*
X113317192Y-66002192D01*
X113403494Y-65960377D01*
X113465137Y-65897397D01*
X113502124Y-65813253D01*
X113514452Y-65707945D01*
X113493905Y-65592260D01*
X113432261Y-65504932D01*
X113332398Y-65450068D01*
X113197192Y-65431781D01*
X113108060Y-65438174D01*
X113016005Y-65457352D01*
X112921028Y-65489315D01*
X112921028Y-65642192D01*
X113048425Y-65590411D01*
X113164315Y-65573151D01*
X113259293Y-65590685D01*
X113316279Y-65643288D01*
X113335274Y-65730959D01*
X113320480Y-65823425D01*
X113276096Y-65887123D01*
X113198425Y-65924110D01*
X113083768Y-65936438D01*
X113050891Y-65936438D01*
X113050891Y-66081096D01*
X113083768Y-66081096D01*
X113207055Y-66093630D01*
X113287603Y-66131233D01*
X113331987Y-66197192D01*
X113346781Y-66294795D01*
X113333836Y-66394041D01*
X113295000Y-66464932D01*
X113230274Y-66507466D01*
X113139658Y-66521644D01*
X113017603Y-66504795D01*
X112898014Y-66454247D01*
X112670098Y-66454247D01*
X112683494Y-66420548D01*
X112704955Y-66318174D01*
X112717831Y-66194064D01*
X112722124Y-66048219D01*
X112717831Y-65902374D01*
X112704955Y-65778265D01*
X112683494Y-65675890D01*
X112637261Y-65559589D01*
X112575822Y-65485205D01*
X112495685Y-65445137D01*
X112393357Y-65431781D01*
X112291028Y-65445137D01*
X112210891Y-65485205D01*
X112149452Y-65559589D01*
X112103220Y-65675890D01*
X112081758Y-65778265D01*
X112068882Y-65902374D01*
X112064589Y-66048219D01*
X111721094Y-66048219D01*
X111933083Y-65793425D01*
X111724315Y-65793425D01*
X111448151Y-66138630D01*
X111448151Y-65415342D01*
X111267329Y-65415342D01*
X111267329Y-66648219D01*
X110924863Y-66648219D01*
X110924863Y-65278356D01*
X111267329Y-65278356D01*
X113530891Y-65278356D01*
X113873357Y-65278356D01*
X113873357Y-66801644D01*
G37*
%TO.C,kibuzzard-66AE2A61*%
G36*
X112470616Y-70678630D02*
G01*
X112519932Y-70776438D01*
X112238836Y-71264658D01*
X112235548Y-71128219D01*
X112237740Y-71011324D01*
X112244315Y-70912694D01*
X112255274Y-70832329D01*
X112278082Y-70742740D01*
X112307055Y-70687671D01*
X112393356Y-70649863D01*
X112470616Y-70678630D01*
G37*
G36*
X112549932Y-71039041D02*
G01*
X112551164Y-71128219D01*
X112548973Y-71245114D01*
X112542397Y-71343744D01*
X112531438Y-71424110D01*
X112508630Y-71513699D01*
X112479658Y-71568767D01*
X112393356Y-71606575D01*
X112311164Y-71572877D01*
X112260205Y-71456986D01*
X112546233Y-70962192D01*
X112549932Y-71039041D01*
G37*
G36*
X113865137Y-71881644D02*
G01*
X113522671Y-71881644D01*
X113165959Y-71881644D01*
X112393356Y-71881644D01*
X111933082Y-71881644D01*
X111267329Y-71881644D01*
X110924863Y-71881644D01*
X110924863Y-71728219D01*
X111267329Y-71728219D01*
X111448151Y-71728219D01*
X111448151Y-71355068D01*
X111721027Y-71728219D01*
X111933082Y-71728219D01*
X111591164Y-71284384D01*
X111721093Y-71128219D01*
X112064589Y-71128219D01*
X112068881Y-71274064D01*
X112081758Y-71398174D01*
X112103219Y-71500548D01*
X112149452Y-71616849D01*
X112210890Y-71691233D01*
X112291027Y-71731301D01*
X112393356Y-71744658D01*
X112495685Y-71731301D01*
X112575822Y-71691233D01*
X112637260Y-71616849D01*
X112668136Y-71539178D01*
X112930890Y-71539178D01*
X112930890Y-71695342D01*
X113043904Y-71732329D01*
X113165959Y-71744658D01*
X113278653Y-71734429D01*
X113369064Y-71703744D01*
X113437192Y-71652603D01*
X113484680Y-71577717D01*
X113513174Y-71475799D01*
X113522671Y-71346849D01*
X113512151Y-71207781D01*
X113480589Y-71099616D01*
X113427986Y-71022356D01*
X113354342Y-70976000D01*
X113259658Y-70960548D01*
X113181575Y-70970822D01*
X113115000Y-71001644D01*
X113111712Y-71001644D01*
X113123219Y-70669589D01*
X113489795Y-70669589D01*
X113489795Y-70528219D01*
X112955548Y-70528219D01*
X112939110Y-71166027D01*
X113090342Y-71166027D01*
X113147466Y-71116712D01*
X113210342Y-71100274D01*
X113307329Y-71156986D01*
X113330753Y-71232808D01*
X113338562Y-71346849D01*
X113327466Y-71467055D01*
X113294178Y-71544932D01*
X113236644Y-71587466D01*
X113152808Y-71601644D01*
X113043082Y-71586027D01*
X112930890Y-71539178D01*
X112668136Y-71539178D01*
X112683493Y-71500548D01*
X112704954Y-71398174D01*
X112717831Y-71274064D01*
X112722123Y-71128219D01*
X112717831Y-70982374D01*
X112704954Y-70858265D01*
X112683493Y-70755890D01*
X112637260Y-70639589D01*
X112575822Y-70565205D01*
X112495685Y-70525137D01*
X112393356Y-70511781D01*
X112291027Y-70525137D01*
X112210890Y-70565205D01*
X112149452Y-70639589D01*
X112103219Y-70755890D01*
X112081758Y-70858265D01*
X112068881Y-70982374D01*
X112064589Y-71128219D01*
X111721093Y-71128219D01*
X111933082Y-70873425D01*
X111724315Y-70873425D01*
X111448151Y-71218630D01*
X111448151Y-70495342D01*
X111267329Y-70495342D01*
X111267329Y-71728219D01*
X110924863Y-71728219D01*
X110924863Y-70358356D01*
X111267329Y-70358356D01*
X113522671Y-70358356D01*
X113865137Y-70358356D01*
X113865137Y-71881644D01*
G37*
D12*
%TO.C,R13*%
X125985000Y-77623641D02*
X125985000Y-77316359D01*
X126745000Y-77623641D02*
X126745000Y-77316359D01*
%TO.C,U1*%
X132715000Y-63510000D02*
X130765000Y-63510000D01*
X132715000Y-63510000D02*
X134665000Y-63510000D01*
X132715000Y-72380000D02*
X130765000Y-72380000D01*
X132715000Y-72380000D02*
X134665000Y-72380000D01*
X130015000Y-63575000D02*
X129775000Y-63245000D01*
X130255000Y-63245000D01*
X130015000Y-63575000D01*
G36*
X130015000Y-63575000D02*
G01*
X129775000Y-63245000D01*
X130255000Y-63245000D01*
X130015000Y-63575000D01*
G37*
%TO.C,R2*%
X144626359Y-56135000D02*
X144933641Y-56135000D01*
X144626359Y-56895000D02*
X144933641Y-56895000D01*
%TO.C,J1*%
X107890000Y-54550000D02*
X109220000Y-54550000D01*
X107890000Y-55880000D02*
X107890000Y-54550000D01*
X107890000Y-57150000D02*
X107890000Y-80070000D01*
X107890000Y-57150000D02*
X110550000Y-57150000D01*
X107890000Y-80070000D02*
X110550000Y-80070000D01*
X110550000Y-57150000D02*
X110550000Y-80070000D01*
%TO.C,R10*%
X125985000Y-53493641D02*
X125985000Y-53186359D01*
X126745000Y-53493641D02*
X126745000Y-53186359D01*
D11*
%TO.C,kibuzzard-66AE2A7C*%
G36*
X111635000Y-75743744D02*
G01*
X111695822Y-75800183D01*
X111716096Y-75894247D01*
X111702945Y-75980753D01*
X111663493Y-76039726D01*
X111596096Y-76073630D01*
X111499109Y-76084932D01*
X111451438Y-76084932D01*
X111451438Y-75738082D01*
X111533630Y-75724932D01*
X111635000Y-75743744D01*
G37*
G36*
X111621575Y-76238219D02*
G01*
X111691438Y-76278904D01*
X111732123Y-76349178D01*
X111745685Y-76451507D01*
X111733151Y-76552397D01*
X111695548Y-76621644D01*
X111632466Y-76661712D01*
X111543493Y-76675068D01*
X111451438Y-76661918D01*
X111451438Y-76224658D01*
X111520479Y-76224658D01*
X111621575Y-76238219D01*
G37*
G36*
X112483356Y-75751849D02*
G01*
X112541301Y-75827671D01*
X112565959Y-75913973D01*
X112580753Y-76038082D01*
X112585685Y-76200000D01*
X112580753Y-76361918D01*
X112565959Y-76486027D01*
X112541301Y-76572329D01*
X112483356Y-76648151D01*
X112398287Y-76673425D01*
X112313219Y-76648151D01*
X112255274Y-76572329D01*
X112230616Y-76486027D01*
X112215822Y-76361918D01*
X112210890Y-76200000D01*
X112215822Y-76038082D01*
X112230616Y-75913973D01*
X112255274Y-75827671D01*
X112313219Y-75751849D01*
X112398287Y-75726575D01*
X112483356Y-75751849D01*
G37*
G36*
X113305274Y-75751849D02*
G01*
X113363219Y-75827671D01*
X113387877Y-75913973D01*
X113402671Y-76038082D01*
X113407603Y-76200000D01*
X113402671Y-76361918D01*
X113387877Y-76486027D01*
X113363219Y-76572329D01*
X113305274Y-76648151D01*
X113220205Y-76673425D01*
X113135137Y-76648151D01*
X113077192Y-76572329D01*
X113052534Y-76486027D01*
X113037740Y-76361918D01*
X113032808Y-76200000D01*
X113037740Y-76038082D01*
X113052534Y-75913973D01*
X113077192Y-75827671D01*
X113135137Y-75751849D01*
X113220205Y-75726575D01*
X113305274Y-75751849D01*
G37*
G36*
X114721575Y-76953425D02*
G01*
X114379109Y-76953425D01*
X114134178Y-76953425D01*
X113220205Y-76953425D01*
X112398287Y-76953425D01*
X111543493Y-76953425D01*
X111267329Y-76953425D01*
X110924863Y-76953425D01*
X110924863Y-75616438D01*
X111267329Y-75616438D01*
X111267329Y-76783562D01*
X111357922Y-76801826D01*
X111449977Y-76812785D01*
X111543493Y-76816438D01*
X111660023Y-76806393D01*
X111755365Y-76776256D01*
X111829520Y-76726027D01*
X111882488Y-76655708D01*
X111914269Y-76565297D01*
X111924863Y-76454795D01*
X111909041Y-76344658D01*
X111861575Y-76250959D01*
X111808633Y-76200000D01*
X112036644Y-76200000D01*
X112041119Y-76343927D01*
X112054543Y-76466667D01*
X112076918Y-76568219D01*
X112126438Y-76684521D01*
X112194452Y-76760548D01*
X112284041Y-76802466D01*
X112398287Y-76816438D01*
X112512534Y-76802466D01*
X112602123Y-76760548D01*
X112670137Y-76684521D01*
X112719657Y-76568219D01*
X112742032Y-76466667D01*
X112755456Y-76343927D01*
X112759931Y-76200000D01*
X112858561Y-76200000D01*
X112863036Y-76343927D01*
X112876461Y-76466667D01*
X112898835Y-76568219D01*
X112948356Y-76684521D01*
X113016370Y-76760548D01*
X113105959Y-76802466D01*
X113220205Y-76816438D01*
X113334452Y-76802466D01*
X113424041Y-76760548D01*
X113492055Y-76684521D01*
X113541575Y-76568219D01*
X113563950Y-76466667D01*
X113577374Y-76343927D01*
X113581849Y-76200000D01*
X113577374Y-76056073D01*
X113563950Y-75933333D01*
X113541575Y-75831781D01*
X113503779Y-75743014D01*
X113705137Y-75743014D01*
X113950068Y-75743014D01*
X113950068Y-76800000D01*
X114134178Y-76800000D01*
X114134178Y-75743014D01*
X114379109Y-75743014D01*
X114379109Y-75600000D01*
X113705137Y-75600000D01*
X113705137Y-75743014D01*
X113503779Y-75743014D01*
X113492055Y-75715479D01*
X113424041Y-75639452D01*
X113334452Y-75597534D01*
X113220205Y-75583562D01*
X113105959Y-75597534D01*
X113016370Y-75639452D01*
X112948356Y-75715479D01*
X112898835Y-75831781D01*
X112876461Y-75933333D01*
X112863036Y-76056073D01*
X112858561Y-76200000D01*
X112759931Y-76200000D01*
X112755456Y-76056073D01*
X112742032Y-75933333D01*
X112719657Y-75831781D01*
X112670137Y-75715479D01*
X112602123Y-75639452D01*
X112512534Y-75597534D01*
X112398287Y-75583562D01*
X112284041Y-75597534D01*
X112194452Y-75639452D01*
X112126438Y-75715479D01*
X112076918Y-75831781D01*
X112054543Y-75933333D01*
X112041119Y-76056073D01*
X112036644Y-76200000D01*
X111808633Y-76200000D01*
X111790274Y-76182329D01*
X111702945Y-76147397D01*
X111702945Y-76145753D01*
X111780000Y-76112055D01*
X111840205Y-76053699D01*
X111879041Y-75975616D01*
X111891986Y-75882740D01*
X111877652Y-75775036D01*
X111834649Y-75691266D01*
X111762978Y-75631430D01*
X111662638Y-75595529D01*
X111533630Y-75583562D01*
X111398014Y-75591781D01*
X111267329Y-75616438D01*
X110924863Y-75616438D01*
X110924863Y-75446575D01*
X111267329Y-75446575D01*
X114379109Y-75446575D01*
X114721575Y-75446575D01*
X114721575Y-76953425D01*
G37*
D12*
%TO.C,SW6*%
X117150000Y-68465000D02*
X117150000Y-69965000D01*
X118400000Y-72465000D02*
X122900000Y-72465000D01*
X122900000Y-65965000D02*
X118400000Y-65965000D01*
X124150000Y-69965000D02*
X124150000Y-68465000D01*
%TO.C,C5*%
X135147164Y-50440000D02*
X135362836Y-50440000D01*
X135147164Y-51160000D02*
X135362836Y-51160000D01*
%TO.C,R1*%
X141451359Y-58675000D02*
X141758641Y-58675000D01*
X141451359Y-59435000D02*
X141758641Y-59435000D01*
%TO.C,C2*%
X144672164Y-61235000D02*
X144887836Y-61235000D01*
X144672164Y-61955000D02*
X144887836Y-61955000D01*
D11*
%TO.C,kibuzzard-66AE2B01*%
G36*
X148442945Y-85264521D02*
G01*
X148505000Y-85303356D01*
X148541986Y-85370137D01*
X148554315Y-85466918D01*
X148541165Y-85568014D01*
X148501713Y-85634589D01*
X148431028Y-85671575D01*
X148324178Y-85683904D01*
X148260069Y-85683904D01*
X148260069Y-85264726D01*
X148355411Y-85251575D01*
X148442945Y-85264521D01*
G37*
G36*
X152360343Y-86478425D02*
G01*
X152017877Y-86478425D01*
X151772945Y-86478425D01*
X151149932Y-86478425D01*
X150012397Y-86478425D01*
X149506096Y-86478425D01*
X148766370Y-86478425D01*
X148075959Y-86478425D01*
X147733493Y-86478425D01*
X147733493Y-85141438D01*
X148075959Y-85141438D01*
X148075959Y-86325000D01*
X148260069Y-86325000D01*
X148260069Y-85826918D01*
X148324178Y-85826918D01*
X148423630Y-85858973D01*
X148455069Y-85905205D01*
X148481986Y-85979795D01*
X148577329Y-86325000D01*
X148766370Y-86325000D01*
X148930754Y-86325000D01*
X149506096Y-86325000D01*
X149506096Y-86181986D01*
X149114863Y-86181986D01*
X149114863Y-85749658D01*
X149489658Y-85749658D01*
X149489658Y-85609932D01*
X149114863Y-85609932D01*
X149114863Y-85420890D01*
X149724726Y-85420890D01*
X149741781Y-85537603D01*
X149792945Y-85634589D01*
X149849475Y-85691575D01*
X149928105Y-85746370D01*
X150028836Y-85798973D01*
X150099315Y-85841301D01*
X150146370Y-85889384D01*
X150172877Y-85947740D01*
X150181713Y-86020890D01*
X150170206Y-86097534D01*
X150135685Y-86153219D01*
X150080617Y-86187123D01*
X150007466Y-86198425D01*
X149911210Y-86186553D01*
X149819703Y-86150936D01*
X149732945Y-86091575D01*
X149732945Y-86262534D01*
X149817329Y-86306370D01*
X149910480Y-86332671D01*
X150012397Y-86341438D01*
X150139630Y-86328288D01*
X150147877Y-86325000D01*
X150574589Y-86325000D01*
X151149932Y-86325000D01*
X151149932Y-86181986D01*
X150758699Y-86181986D01*
X150758699Y-85749658D01*
X151133493Y-85749658D01*
X151133493Y-85609932D01*
X150758699Y-85609932D01*
X150758699Y-85268014D01*
X151149932Y-85268014D01*
X151343904Y-85268014D01*
X151588836Y-85268014D01*
X151588836Y-86325000D01*
X151772945Y-86325000D01*
X151772945Y-85268014D01*
X152017877Y-85268014D01*
X152017877Y-85125000D01*
X151343904Y-85125000D01*
X151343904Y-85268014D01*
X151149932Y-85268014D01*
X151149932Y-85125000D01*
X150574589Y-85125000D01*
X150574589Y-86325000D01*
X150147877Y-86325000D01*
X150238589Y-86288836D01*
X150309274Y-86223082D01*
X150351685Y-86131027D01*
X150365822Y-86012671D01*
X150348151Y-85885685D01*
X150295137Y-85784178D01*
X150235046Y-85725548D01*
X150149018Y-85668014D01*
X150037055Y-85611575D01*
X149963996Y-85562443D01*
X149920160Y-85496142D01*
X149905548Y-85412671D01*
X149917055Y-85345274D01*
X149951576Y-85294315D01*
X150006233Y-85262260D01*
X150078151Y-85251575D01*
X150205959Y-85269247D01*
X150332945Y-85322260D01*
X150332945Y-85157877D01*
X150244544Y-85130479D01*
X150152489Y-85114041D01*
X150056781Y-85108562D01*
X149958607Y-85117694D01*
X149876690Y-85145091D01*
X149811028Y-85190753D01*
X149746302Y-85289384D01*
X149724726Y-85420890D01*
X149114863Y-85420890D01*
X149114863Y-85268014D01*
X149506096Y-85268014D01*
X149506096Y-85125000D01*
X148930754Y-85125000D01*
X148930754Y-86325000D01*
X148766370Y-86325000D01*
X148664452Y-85989658D01*
X148611850Y-85860616D01*
X148549384Y-85779247D01*
X148549384Y-85775959D01*
X148629932Y-85728904D01*
X148687466Y-85661712D01*
X148721986Y-85574384D01*
X148733493Y-85466918D01*
X148723356Y-85354132D01*
X148692945Y-85263447D01*
X148642260Y-85194863D01*
X148569840Y-85146918D01*
X148474224Y-85118151D01*
X148355411Y-85108562D01*
X148260799Y-85112215D01*
X148167649Y-85123174D01*
X148075959Y-85141438D01*
X147733493Y-85141438D01*
X147733493Y-84971575D01*
X148075959Y-84971575D01*
X152017877Y-84971575D01*
X152360343Y-84971575D01*
X152360343Y-86478425D01*
G37*
%TO.C,kibuzzard-66AE2A3F*%
G36*
X112470616Y-60518630D02*
G01*
X112519931Y-60616438D01*
X112238835Y-61104658D01*
X112235548Y-60968219D01*
X112237739Y-60851324D01*
X112244315Y-60752694D01*
X112255274Y-60672329D01*
X112278082Y-60582740D01*
X112307054Y-60527671D01*
X112393356Y-60489863D01*
X112470616Y-60518630D01*
G37*
G36*
X112549931Y-60879041D02*
G01*
X112551164Y-60968219D01*
X112548972Y-61085114D01*
X112542397Y-61183744D01*
X112531438Y-61264110D01*
X112508630Y-61353699D01*
X112479657Y-61408767D01*
X112393356Y-61446575D01*
X112311164Y-61412877D01*
X112260205Y-61296986D01*
X112546232Y-60802192D01*
X112549931Y-60879041D01*
G37*
G36*
X113736917Y-61721644D02*
G01*
X113394452Y-61721644D01*
X113210342Y-61721644D01*
X112393356Y-61721644D01*
X111933082Y-61721644D01*
X111267328Y-61721644D01*
X110924863Y-61721644D01*
X110924863Y-61568219D01*
X111267328Y-61568219D01*
X111448150Y-61568219D01*
X111448150Y-61195068D01*
X111721027Y-61568219D01*
X111933082Y-61568219D01*
X111591164Y-61124384D01*
X111721093Y-60968219D01*
X112064589Y-60968219D01*
X112068881Y-61114064D01*
X112081758Y-61238174D01*
X112103219Y-61340548D01*
X112149452Y-61456849D01*
X112210890Y-61531233D01*
X112291027Y-61571301D01*
X112393356Y-61584658D01*
X112495685Y-61571301D01*
X112575822Y-61531233D01*
X112637260Y-61456849D01*
X112683493Y-61340548D01*
X112704954Y-61238174D01*
X112717831Y-61114064D01*
X112722123Y-60968219D01*
X112717831Y-60822374D01*
X112704954Y-60698265D01*
X112683493Y-60595890D01*
X112659641Y-60535890D01*
X112924315Y-60535890D01*
X112924315Y-60696986D01*
X113207054Y-60539178D01*
X113210342Y-60540822D01*
X113210342Y-61568219D01*
X113394452Y-61568219D01*
X113394452Y-60368219D01*
X113211986Y-60368219D01*
X112924315Y-60535890D01*
X112659641Y-60535890D01*
X112637260Y-60479589D01*
X112575822Y-60405205D01*
X112495685Y-60365137D01*
X112393356Y-60351781D01*
X112291027Y-60365137D01*
X112210890Y-60405205D01*
X112149452Y-60479589D01*
X112103219Y-60595890D01*
X112081758Y-60698265D01*
X112068881Y-60822374D01*
X112064589Y-60968219D01*
X111721093Y-60968219D01*
X111933082Y-60713425D01*
X111724315Y-60713425D01*
X111448150Y-61058630D01*
X111448150Y-60335342D01*
X111267328Y-60335342D01*
X111267328Y-61568219D01*
X110924863Y-61568219D01*
X110924863Y-60198356D01*
X111267328Y-60198356D01*
X113394452Y-60198356D01*
X113736917Y-60198356D01*
X113736917Y-61721644D01*
G37*
D12*
%TO.C,D1*%
X138065000Y-51130000D02*
X138065000Y-54990000D01*
X140065000Y-51130000D02*
X138065000Y-51130000D01*
X140065000Y-51130000D02*
X140065000Y-54990000D01*
%TO.C,SW2*%
X139375000Y-76720000D02*
X139375000Y-78220000D01*
X140625000Y-80720000D02*
X145125000Y-80720000D01*
X145125000Y-74220000D02*
X140625000Y-74220000D01*
X146375000Y-78220000D02*
X146375000Y-76720000D01*
%TO.C,C3*%
X135147164Y-62505000D02*
X135362836Y-62505000D01*
X135147164Y-63225000D02*
X135362836Y-63225000D01*
%TO.C,SW8*%
X117150000Y-84975000D02*
X117150000Y-86475000D01*
X118400000Y-88975000D02*
X122900000Y-88975000D01*
X122900000Y-82475000D02*
X118400000Y-82475000D01*
X124150000Y-86475000D02*
X124150000Y-84975000D01*
%TO.C,SW7*%
X117150000Y-76720000D02*
X117150000Y-78220000D01*
X118400000Y-80720000D02*
X122900000Y-80720000D01*
X122900000Y-74220000D02*
X118400000Y-74220000D01*
X124150000Y-78220000D02*
X124150000Y-76720000D01*
%TO.C,C1*%
X144672164Y-51075000D02*
X144887836Y-51075000D01*
X144672164Y-51795000D02*
X144887836Y-51795000D01*
%TO.C,U3*%
X132780000Y-76845000D02*
X130830000Y-76845000D01*
X132780000Y-76845000D02*
X134730000Y-76845000D01*
X132780000Y-85715000D02*
X130830000Y-85715000D01*
X132780000Y-85715000D02*
X134730000Y-85715000D01*
X130080000Y-76910000D02*
X129840000Y-76580000D01*
X130320000Y-76580000D01*
X130080000Y-76910000D01*
G36*
X130080000Y-76910000D02*
G01*
X129840000Y-76580000D01*
X130320000Y-76580000D01*
X130080000Y-76910000D01*
G37*
%TD*%
%LPC*%
D13*
%TO.C,R8*%
X137920000Y-59055000D03*
X138940000Y-59055000D03*
%TD*%
D14*
%TO.C,R12*%
X126365000Y-69725000D03*
X126365000Y-68705000D03*
%TD*%
D15*
%TO.C,U2*%
X130240000Y-52070000D03*
X130240000Y-53340000D03*
X130240000Y-54610000D03*
X130240000Y-55880000D03*
X130240000Y-57150000D03*
X130240000Y-58420000D03*
X130240000Y-59690000D03*
X135190000Y-59690000D03*
X135190000Y-58420000D03*
X135190000Y-57150000D03*
X135190000Y-55880000D03*
X135190000Y-54610000D03*
X135190000Y-53340000D03*
X135190000Y-52070000D03*
%TD*%
D16*
%TO.C,SW1*%
X139625000Y-66965000D03*
X146125000Y-66965000D03*
X139625000Y-71465000D03*
X146125000Y-71465000D03*
%TD*%
D14*
%TO.C,R11*%
X126365000Y-62105000D03*
X126365000Y-61085000D03*
%TD*%
D13*
%TO.C,R4*%
X141095000Y-61595000D03*
X142115000Y-61595000D03*
%TD*%
D16*
%TO.C,SW3*%
X139625000Y-83475000D03*
X146125000Y-83475000D03*
X139625000Y-87975000D03*
X146125000Y-87975000D03*
%TD*%
D14*
%TO.C,R14*%
X126365000Y-86235000D03*
X126365000Y-85215000D03*
%TD*%
D16*
%TO.C,SW4*%
X117400000Y-51090000D03*
X123900000Y-51090000D03*
X117400000Y-55590000D03*
X123900000Y-55590000D03*
%TD*%
D13*
%TO.C,R5*%
X144270000Y-53975000D03*
X145290000Y-53975000D03*
%TD*%
%TO.C,R3*%
X144270000Y-59055000D03*
X145290000Y-59055000D03*
%TD*%
D17*
%TO.C,C4*%
X134775000Y-76200000D03*
X135735000Y-76200000D03*
%TD*%
D13*
%TO.C,R9*%
X137920000Y-61595000D03*
X138940000Y-61595000D03*
%TD*%
D18*
%TO.C,R6*%
X129415000Y-86995000D03*
X128395000Y-86995000D03*
%TD*%
D16*
%TO.C,SW5*%
X117325000Y-59000000D03*
X123825000Y-59000000D03*
X117325000Y-63500000D03*
X123825000Y-63500000D03*
%TD*%
D14*
%TO.C,R13*%
X126365000Y-77980000D03*
X126365000Y-76960000D03*
%TD*%
D15*
%TO.C,U1*%
X130240000Y-64135000D03*
X130240000Y-65405000D03*
X130240000Y-66675000D03*
X130240000Y-67945000D03*
X130240000Y-69215000D03*
X130240000Y-70485000D03*
X130240000Y-71755000D03*
X135190000Y-71755000D03*
X135190000Y-70485000D03*
X135190000Y-69215000D03*
X135190000Y-67945000D03*
X135190000Y-66675000D03*
X135190000Y-65405000D03*
X135190000Y-64135000D03*
%TD*%
D13*
%TO.C,R2*%
X144270000Y-56515000D03*
X145290000Y-56515000D03*
%TD*%
D19*
%TO.C,J1*%
X109220000Y-55880000D03*
D20*
X109220000Y-58420000D03*
X109220000Y-60960000D03*
X109220000Y-63500000D03*
X109220000Y-66040000D03*
X109220000Y-68580000D03*
X109220000Y-71120000D03*
X109220000Y-73660000D03*
X109220000Y-76200000D03*
X109220000Y-78740000D03*
%TD*%
D14*
%TO.C,R10*%
X126365000Y-53850000D03*
X126365000Y-52830000D03*
%TD*%
D16*
%TO.C,SW6*%
X117400000Y-66965000D03*
X123900000Y-66965000D03*
X117400000Y-71465000D03*
X123900000Y-71465000D03*
%TD*%
D17*
%TO.C,C5*%
X134775000Y-50800000D03*
X135735000Y-50800000D03*
%TD*%
D13*
%TO.C,R1*%
X141095000Y-59055000D03*
X142115000Y-59055000D03*
%TD*%
D17*
%TO.C,C2*%
X144300000Y-61595000D03*
X145260000Y-61595000D03*
%TD*%
D21*
%TO.C,D1*%
X139065000Y-51940000D03*
X139065000Y-54740000D03*
%TD*%
D16*
%TO.C,SW2*%
X139625000Y-75220000D03*
X146125000Y-75220000D03*
X139625000Y-79720000D03*
X146125000Y-79720000D03*
%TD*%
D17*
%TO.C,C3*%
X134775000Y-62865000D03*
X135735000Y-62865000D03*
%TD*%
D16*
%TO.C,SW8*%
X117400000Y-83475000D03*
X123900000Y-83475000D03*
X117400000Y-87975000D03*
X123900000Y-87975000D03*
%TD*%
%TO.C,SW7*%
X117400000Y-75220000D03*
X123900000Y-75220000D03*
X117400000Y-79720000D03*
X123900000Y-79720000D03*
%TD*%
D17*
%TO.C,C1*%
X144300000Y-51435000D03*
X145260000Y-51435000D03*
%TD*%
D15*
%TO.C,U3*%
X130305000Y-77470000D03*
X130305000Y-78740000D03*
X130305000Y-80010000D03*
X130305000Y-81280000D03*
X130305000Y-82550000D03*
X130305000Y-83820000D03*
X130305000Y-85090000D03*
X135255000Y-85090000D03*
X135255000Y-83820000D03*
X135255000Y-82550000D03*
X135255000Y-81280000D03*
X135255000Y-80010000D03*
X135255000Y-78740000D03*
X135255000Y-77470000D03*
%TD*%
%LPD*%
M02*
