%TF.GenerationSoftware,KiCad,Pcbnew,8.0.4*%
%TF.CreationDate,2024-08-03T23:58:15+10:00*%
%TF.ProjectId,micromod-reset,6d696372-6f6d-46f6-942d-72657365742e,rev?*%
%TF.SameCoordinates,Original*%
%TF.FileFunction,Paste,Top*%
%TF.FilePolarity,Positive*%
%FSLAX46Y46*%
G04 Gerber Fmt 4.6, Leading zero omitted, Abs format (unit mm)*
G04 Created by KiCad (PCBNEW 8.0.4) date 2024-08-03 23:58:15*
%MOMM*%
%LPD*%
G01*
G04 APERTURE LIST*
G04 Aperture macros list*
%AMRoundRect*
0 Rectangle with rounded corners*
0 $1 Rounding radius*
0 $2 $3 $4 $5 $6 $7 $8 $9 X,Y pos of 4 corners*
0 Add a 4 corners polygon primitive as box body*
4,1,4,$2,$3,$4,$5,$6,$7,$8,$9,$2,$3,0*
0 Add four circle primitives for the rounded corners*
1,1,$1+$1,$2,$3*
1,1,$1+$1,$4,$5*
1,1,$1+$1,$6,$7*
1,1,$1+$1,$8,$9*
0 Add four rect primitives between the rounded corners*
20,1,$1+$1,$2,$3,$4,$5,0*
20,1,$1+$1,$4,$5,$6,$7,0*
20,1,$1+$1,$6,$7,$8,$9,0*
20,1,$1+$1,$8,$9,$2,$3,0*%
G04 Aperture macros list end*
%ADD10RoundRect,0.135000X-0.135000X-0.185000X0.135000X-0.185000X0.135000X0.185000X-0.135000X0.185000X0*%
%ADD11RoundRect,0.135000X0.185000X-0.135000X0.185000X0.135000X-0.185000X0.135000X-0.185000X-0.135000X0*%
%ADD12RoundRect,0.150000X-0.825000X-0.150000X0.825000X-0.150000X0.825000X0.150000X-0.825000X0.150000X0*%
%ADD13RoundRect,0.140000X-0.140000X-0.170000X0.140000X-0.170000X0.140000X0.170000X-0.140000X0.170000X0*%
%ADD14RoundRect,0.135000X0.135000X0.185000X-0.135000X0.185000X-0.135000X-0.185000X0.135000X-0.185000X0*%
%ADD15RoundRect,0.250000X-0.300000X0.300000X-0.300000X-0.300000X0.300000X-0.300000X0.300000X0.300000X0*%
G04 APERTURE END LIST*
D10*
%TO.C,R8*%
X137920000Y-59055000D03*
X138940000Y-59055000D03*
%TD*%
D11*
%TO.C,R12*%
X126365000Y-69725000D03*
X126365000Y-68705000D03*
%TD*%
D12*
%TO.C,U2*%
X130240000Y-52070000D03*
X130240000Y-53340000D03*
X130240000Y-54610000D03*
X130240000Y-55880000D03*
X130240000Y-57150000D03*
X130240000Y-58420000D03*
X130240000Y-59690000D03*
X135190000Y-59690000D03*
X135190000Y-58420000D03*
X135190000Y-57150000D03*
X135190000Y-55880000D03*
X135190000Y-54610000D03*
X135190000Y-53340000D03*
X135190000Y-52070000D03*
%TD*%
D11*
%TO.C,R11*%
X126365000Y-62105000D03*
X126365000Y-61085000D03*
%TD*%
D10*
%TO.C,R4*%
X141095000Y-61595000D03*
X142115000Y-61595000D03*
%TD*%
D11*
%TO.C,R14*%
X126365000Y-86235000D03*
X126365000Y-85215000D03*
%TD*%
D10*
%TO.C,R5*%
X144270000Y-53975000D03*
X145290000Y-53975000D03*
%TD*%
%TO.C,R3*%
X144270000Y-59055000D03*
X145290000Y-59055000D03*
%TD*%
D13*
%TO.C,C4*%
X134775000Y-76200000D03*
X135735000Y-76200000D03*
%TD*%
D10*
%TO.C,R9*%
X137920000Y-61595000D03*
X138940000Y-61595000D03*
%TD*%
D14*
%TO.C,R6*%
X129415000Y-86995000D03*
X128395000Y-86995000D03*
%TD*%
D11*
%TO.C,R13*%
X126365000Y-77980000D03*
X126365000Y-76960000D03*
%TD*%
D12*
%TO.C,U1*%
X130240000Y-64135000D03*
X130240000Y-65405000D03*
X130240000Y-66675000D03*
X130240000Y-67945000D03*
X130240000Y-69215000D03*
X130240000Y-70485000D03*
X130240000Y-71755000D03*
X135190000Y-71755000D03*
X135190000Y-70485000D03*
X135190000Y-69215000D03*
X135190000Y-67945000D03*
X135190000Y-66675000D03*
X135190000Y-65405000D03*
X135190000Y-64135000D03*
%TD*%
D10*
%TO.C,R2*%
X144270000Y-56515000D03*
X145290000Y-56515000D03*
%TD*%
D11*
%TO.C,R10*%
X126365000Y-53850000D03*
X126365000Y-52830000D03*
%TD*%
D13*
%TO.C,C5*%
X134775000Y-50800000D03*
X135735000Y-50800000D03*
%TD*%
D10*
%TO.C,R1*%
X141095000Y-59055000D03*
X142115000Y-59055000D03*
%TD*%
D13*
%TO.C,C2*%
X144300000Y-61595000D03*
X145260000Y-61595000D03*
%TD*%
D15*
%TO.C,D1*%
X139065000Y-51940000D03*
X139065000Y-54740000D03*
%TD*%
D13*
%TO.C,C3*%
X134775000Y-62865000D03*
X135735000Y-62865000D03*
%TD*%
%TO.C,C1*%
X144300000Y-51435000D03*
X145260000Y-51435000D03*
%TD*%
D12*
%TO.C,U3*%
X130305000Y-77470000D03*
X130305000Y-78740000D03*
X130305000Y-80010000D03*
X130305000Y-81280000D03*
X130305000Y-82550000D03*
X130305000Y-83820000D03*
X130305000Y-85090000D03*
X135255000Y-85090000D03*
X135255000Y-83820000D03*
X135255000Y-82550000D03*
X135255000Y-81280000D03*
X135255000Y-80010000D03*
X135255000Y-78740000D03*
X135255000Y-77470000D03*
%TD*%
M02*
