%TF.GenerationSoftware,KiCad,Pcbnew,8.0.4*%
%TF.CreationDate,2024-08-21T15:33:42+10:00*%
%TF.ProjectId,micromod-reset,6d696372-6f6d-46f6-942d-72657365742e,rev?*%
%TF.SameCoordinates,Original*%
%TF.FileFunction,Legend,Top*%
%TF.FilePolarity,Positive*%
%FSLAX46Y46*%
G04 Gerber Fmt 4.6, Leading zero omitted, Abs format (unit mm)*
G04 Created by KiCad (PCBNEW 8.0.4) date 2024-08-21 15:33:42*
%MOMM*%
%LPD*%
G01*
G04 APERTURE LIST*
G04 Aperture macros list*
%AMRoundRect*
0 Rectangle with rounded corners*
0 $1 Rounding radius*
0 $2 $3 $4 $5 $6 $7 $8 $9 X,Y pos of 4 corners*
0 Add a 4 corners polygon primitive as box body*
4,1,4,$2,$3,$4,$5,$6,$7,$8,$9,$2,$3,0*
0 Add four circle primitives for the rounded corners*
1,1,$1+$1,$2,$3*
1,1,$1+$1,$4,$5*
1,1,$1+$1,$6,$7*
1,1,$1+$1,$8,$9*
0 Add four rect primitives between the rounded corners*
20,1,$1+$1,$2,$3,$4,$5,0*
20,1,$1+$1,$4,$5,$6,$7,0*
20,1,$1+$1,$6,$7,$8,$9,0*
20,1,$1+$1,$8,$9,$2,$3,0*%
G04 Aperture macros list end*
%ADD10C,0.150000*%
%ADD11C,0.000000*%
%ADD12C,0.120000*%
%ADD13C,2.800000*%
%ADD14RoundRect,0.135000X-0.135000X-0.185000X0.135000X-0.185000X0.135000X0.185000X-0.135000X0.185000X0*%
%ADD15RoundRect,0.135000X0.185000X-0.135000X0.185000X0.135000X-0.185000X0.135000X-0.185000X-0.135000X0*%
%ADD16RoundRect,0.150000X-0.825000X-0.150000X0.825000X-0.150000X0.825000X0.150000X-0.825000X0.150000X0*%
%ADD17C,2.000000*%
%ADD18RoundRect,0.140000X-0.140000X-0.170000X0.140000X-0.170000X0.140000X0.170000X-0.140000X0.170000X0*%
%ADD19RoundRect,0.135000X0.135000X0.185000X-0.135000X0.185000X-0.135000X-0.185000X0.135000X-0.185000X0*%
%ADD20R,1.700000X1.700000*%
%ADD21O,1.700000X1.700000*%
%ADD22RoundRect,0.250000X-0.300000X0.300000X-0.300000X-0.300000X0.300000X-0.300000X0.300000X0.300000X0*%
%ADD23RoundRect,0.140000X0.140000X0.170000X-0.140000X0.170000X-0.140000X-0.170000X0.140000X-0.170000X0*%
G04 APERTURE END LIST*
D10*
X159000000Y-78500000D02*
X162750000Y-81000000D01*
X159000000Y-68500000D02*
X164500000Y-76000000D01*
X153000000Y-86000000D02*
X162750000Y-81000000D01*
X162750000Y-81000000D02*
X164500000Y-76000000D01*
X153000000Y-76000000D02*
X159000000Y-78500000D01*
X153000000Y-71000000D02*
X159000000Y-68500000D01*
X153000000Y-81000000D02*
X159000000Y-78500000D01*
X153000000Y-66000000D02*
X159000000Y-68500000D01*
D11*
%TO.C,kibuzzard-66AE2AD3*%
G36*
X145817877Y-67822055D02*
G01*
X145896370Y-67898493D01*
X145930160Y-67983242D01*
X145950434Y-68101598D01*
X145957192Y-68253562D01*
X145950525Y-68421416D01*
X145930525Y-68550183D01*
X145897192Y-68639863D01*
X145818904Y-68718767D01*
X145704041Y-68745068D01*
X145630068Y-68730274D01*
X145630068Y-67811370D01*
X145704041Y-67796575D01*
X145817877Y-67822055D01*
G37*
G36*
X148086507Y-69023425D02*
G01*
X147744041Y-69023425D01*
X147415274Y-69023425D01*
X146509521Y-69023425D01*
X145704041Y-69023425D01*
X145445959Y-69023425D01*
X145103493Y-69023425D01*
X145103493Y-67686438D01*
X145445959Y-67686438D01*
X145445959Y-68853562D01*
X145569658Y-68878219D01*
X145704041Y-68886438D01*
X145840479Y-68872260D01*
X145846156Y-68870000D01*
X146325411Y-68870000D01*
X146509521Y-68870000D01*
X146509521Y-68557671D01*
X147086507Y-68557671D01*
X147095000Y-68664703D01*
X147120479Y-68749087D01*
X147162945Y-68810822D01*
X147224954Y-68852831D01*
X147309064Y-68878037D01*
X147415274Y-68886438D01*
X147521484Y-68878037D01*
X147605594Y-68852831D01*
X147667603Y-68810822D01*
X147710068Y-68749087D01*
X147735548Y-68664703D01*
X147744041Y-68557671D01*
X147744041Y-67670000D01*
X147564863Y-67670000D01*
X147564863Y-68524795D01*
X147556644Y-68632260D01*
X147531986Y-68698219D01*
X147418562Y-68743425D01*
X147349932Y-68731918D01*
X147305137Y-68697397D01*
X147280479Y-68631233D01*
X147272260Y-68524795D01*
X147272260Y-67670000D01*
X147086507Y-67670000D01*
X147086507Y-68557671D01*
X146509521Y-68557671D01*
X146509521Y-68294658D01*
X146867877Y-68294658D01*
X146867877Y-68154932D01*
X146509521Y-68154932D01*
X146509521Y-67813014D01*
X146884315Y-67813014D01*
X146884315Y-67670000D01*
X146325411Y-67670000D01*
X146325411Y-68870000D01*
X145846156Y-68870000D01*
X145947329Y-68829726D01*
X146028493Y-68752260D01*
X146087877Y-68633288D01*
X146114817Y-68528995D01*
X146130982Y-68402420D01*
X146136370Y-68253562D01*
X146130051Y-68099914D01*
X146111096Y-67971027D01*
X146079503Y-67866901D01*
X146035274Y-67787534D01*
X145953539Y-67713105D01*
X145843128Y-67668447D01*
X145704041Y-67653562D01*
X145574589Y-67661781D01*
X145445959Y-67686438D01*
X145103493Y-67686438D01*
X145103493Y-67516575D01*
X145445959Y-67516575D01*
X147744041Y-67516575D01*
X148086507Y-67516575D01*
X148086507Y-69023425D01*
G37*
%TO.C,kibuzzard-66C2A826*%
G36*
X157666780Y-54027226D02*
G01*
X157715068Y-54090411D01*
X157735615Y-54162329D01*
X157747944Y-54265753D01*
X157752054Y-54400685D01*
X157747944Y-54535616D01*
X157735615Y-54639041D01*
X157715068Y-54710959D01*
X157666780Y-54774144D01*
X157595889Y-54795205D01*
X157524999Y-54774144D01*
X157476711Y-54710959D01*
X157456163Y-54639041D01*
X157443835Y-54535616D01*
X157439725Y-54400685D01*
X157443835Y-54265753D01*
X157456163Y-54162329D01*
X157476711Y-54090411D01*
X157524999Y-54027226D01*
X157595889Y-54006164D01*
X157666780Y-54027226D01*
G37*
G36*
X160406506Y-54027226D02*
G01*
X160454794Y-54090411D01*
X160475342Y-54162329D01*
X160487670Y-54265753D01*
X160491780Y-54400685D01*
X160487670Y-54535616D01*
X160475342Y-54639041D01*
X160454794Y-54710959D01*
X160406506Y-54774144D01*
X160335615Y-54795205D01*
X160264725Y-54774144D01*
X160216437Y-54710959D01*
X160195889Y-54639041D01*
X160183561Y-54535616D01*
X160179451Y-54400685D01*
X160183561Y-54265753D01*
X160195889Y-54162329D01*
X160216437Y-54090411D01*
X160264725Y-54027226D01*
X160335615Y-54006164D01*
X160406506Y-54027226D01*
G37*
G36*
X162271689Y-55227169D02*
G01*
X161986300Y-55227169D01*
X161782191Y-55227169D01*
X161020547Y-55227169D01*
X160335615Y-55227169D01*
X159369862Y-55227169D01*
X159031506Y-55227169D01*
X158260273Y-55227169D01*
X157595889Y-55227169D01*
X157294520Y-55227169D01*
X157009131Y-55227169D01*
X157009131Y-55113014D01*
X159369862Y-55113014D01*
X159931506Y-55113014D01*
X159931506Y-55014384D01*
X159369862Y-55014384D01*
X159369862Y-55113014D01*
X157009131Y-55113014D01*
X157009131Y-54400685D01*
X157294520Y-54400685D01*
X157298249Y-54520624D01*
X157309436Y-54622907D01*
X157328081Y-54707534D01*
X157369348Y-54804452D01*
X157426026Y-54867808D01*
X157500684Y-54902740D01*
X157595889Y-54914384D01*
X157691095Y-54902740D01*
X157765752Y-54867808D01*
X157822431Y-54804452D01*
X157863698Y-54707534D01*
X157882343Y-54622907D01*
X157893530Y-54520624D01*
X157897259Y-54400685D01*
X157893530Y-54280746D01*
X157882343Y-54178463D01*
X157875468Y-54147260D01*
X158020547Y-54147260D01*
X158034759Y-54244521D01*
X158077396Y-54325342D01*
X158124504Y-54372831D01*
X158190029Y-54418493D01*
X158273972Y-54462329D01*
X158332705Y-54497603D01*
X158371917Y-54537671D01*
X158394006Y-54586301D01*
X158401369Y-54647260D01*
X158391780Y-54711130D01*
X158363013Y-54757534D01*
X158317122Y-54785788D01*
X158256163Y-54795205D01*
X158175950Y-54785312D01*
X158099695Y-54755632D01*
X158027396Y-54706164D01*
X158027396Y-54848630D01*
X158097716Y-54885160D01*
X158175342Y-54907078D01*
X158260273Y-54914384D01*
X158366300Y-54903425D01*
X158448766Y-54870548D01*
X158507670Y-54815753D01*
X158543013Y-54739041D01*
X158554794Y-54640411D01*
X158540068Y-54534589D01*
X158495889Y-54450000D01*
X158445813Y-54401142D01*
X158424647Y-54386986D01*
X158684931Y-54386986D01*
X158690346Y-54510595D01*
X158706592Y-54617723D01*
X158733668Y-54708369D01*
X158771574Y-54782534D01*
X158820312Y-54840218D01*
X158879879Y-54881421D01*
X158950277Y-54906143D01*
X159031506Y-54914384D01*
X159122944Y-54905822D01*
X159205478Y-54880137D01*
X159205478Y-54754110D01*
X159127396Y-54785959D01*
X159054794Y-54796575D01*
X158987822Y-54785198D01*
X158933028Y-54751065D01*
X158890410Y-54694178D01*
X158859969Y-54614536D01*
X158841704Y-54512139D01*
X158836281Y-54400685D01*
X160034246Y-54400685D01*
X160037975Y-54520624D01*
X160049162Y-54622907D01*
X160067807Y-54707534D01*
X160109074Y-54804452D01*
X160165752Y-54867808D01*
X160240410Y-54902740D01*
X160335615Y-54914384D01*
X160430821Y-54902740D01*
X160505478Y-54867808D01*
X160562157Y-54804452D01*
X160603424Y-54707534D01*
X160618213Y-54640411D01*
X160746574Y-54640411D01*
X160753652Y-54729604D01*
X160774885Y-54799924D01*
X160810273Y-54851370D01*
X160861947Y-54886377D01*
X160932039Y-54907382D01*
X161020547Y-54914384D01*
X161109055Y-54907382D01*
X161179147Y-54886377D01*
X161230821Y-54851370D01*
X161266209Y-54799924D01*
X161287442Y-54729604D01*
X161294520Y-54640411D01*
X161294520Y-54019863D01*
X161424657Y-54019863D01*
X161628766Y-54019863D01*
X161628766Y-54900685D01*
X161782191Y-54900685D01*
X161782191Y-54019863D01*
X161986300Y-54019863D01*
X161986300Y-53900685D01*
X161424657Y-53900685D01*
X161424657Y-54019863D01*
X161294520Y-54019863D01*
X161294520Y-53900685D01*
X161145205Y-53900685D01*
X161145205Y-54613014D01*
X161138355Y-54702568D01*
X161117807Y-54757534D01*
X161023287Y-54795205D01*
X160966095Y-54785616D01*
X160928766Y-54756849D01*
X160908218Y-54701712D01*
X160901369Y-54613014D01*
X160901369Y-53900685D01*
X160746574Y-53900685D01*
X160746574Y-54640411D01*
X160618213Y-54640411D01*
X160622069Y-54622907D01*
X160633256Y-54520624D01*
X160636985Y-54400685D01*
X160633256Y-54280746D01*
X160622069Y-54178463D01*
X160603424Y-54093836D01*
X160562157Y-53996918D01*
X160505478Y-53933562D01*
X160430821Y-53898630D01*
X160335615Y-53886986D01*
X160240410Y-53898630D01*
X160165752Y-53933562D01*
X160109074Y-53996918D01*
X160067807Y-54093836D01*
X160049162Y-54178463D01*
X160037975Y-54280746D01*
X160034246Y-54400685D01*
X158836281Y-54400685D01*
X158835615Y-54386986D01*
X158841133Y-54271043D01*
X158857685Y-54176180D01*
X158885273Y-54102397D01*
X158923896Y-54049696D01*
X158973553Y-54018075D01*
X159034246Y-54007534D01*
X159065752Y-54013014D01*
X159065752Y-54226712D01*
X159212328Y-54226712D01*
X159212328Y-53917123D01*
X159124999Y-53894521D01*
X159027396Y-53886986D01*
X158947131Y-53894799D01*
X158877568Y-53918236D01*
X158818706Y-53957299D01*
X158770547Y-54011986D01*
X158733090Y-54082299D01*
X158706335Y-54168236D01*
X158690282Y-54269799D01*
X158684931Y-54386986D01*
X158424647Y-54386986D01*
X158374124Y-54353196D01*
X158280821Y-54306164D01*
X158219938Y-54265221D01*
X158183408Y-54209970D01*
X158171232Y-54140411D01*
X158180821Y-54084247D01*
X158209588Y-54041781D01*
X158255136Y-54015068D01*
X158315068Y-54006164D01*
X158421574Y-54020890D01*
X158527396Y-54065068D01*
X158527396Y-53928082D01*
X158453728Y-53905251D01*
X158377016Y-53891553D01*
X158297259Y-53886986D01*
X158215448Y-53894597D01*
X158147183Y-53917428D01*
X158092465Y-53955479D01*
X158038526Y-54037671D01*
X158020547Y-54147260D01*
X157875468Y-54147260D01*
X157863698Y-54093836D01*
X157822431Y-53996918D01*
X157765752Y-53933562D01*
X157691095Y-53898630D01*
X157595889Y-53886986D01*
X157500684Y-53898630D01*
X157426026Y-53933562D01*
X157369348Y-53996918D01*
X157328081Y-54093836D01*
X157309436Y-54178463D01*
X157298249Y-54280746D01*
X157294520Y-54400685D01*
X157009131Y-54400685D01*
X157009131Y-53772831D01*
X157294520Y-53772831D01*
X161986300Y-53772831D01*
X162271689Y-53772831D01*
X162271689Y-55227169D01*
G37*
D12*
%TO.C,TP14*%
X150800000Y-51500000D02*
G75*
G02*
X147200000Y-51500000I-1800000J0D01*
G01*
X147200000Y-51500000D02*
G75*
G02*
X150800000Y-51500000I1800000J0D01*
G01*
D11*
%TO.C,kibuzzard-66AE2A6F*%
G36*
X109821301Y-72254521D02*
G01*
X109883356Y-72293356D01*
X109920342Y-72360137D01*
X109932671Y-72456918D01*
X109919521Y-72558014D01*
X109880068Y-72624589D01*
X109809384Y-72661575D01*
X109702534Y-72673904D01*
X109638425Y-72673904D01*
X109638425Y-72254726D01*
X109733767Y-72241575D01*
X109821301Y-72254521D01*
G37*
G36*
X112094863Y-73468425D02*
G01*
X111752397Y-73468425D01*
X111507466Y-73468425D01*
X110568836Y-73468425D01*
X110144726Y-73468425D01*
X109261986Y-73468425D01*
X108637329Y-73468425D01*
X108294863Y-73468425D01*
X108294863Y-72512808D01*
X108637329Y-72512808D01*
X108637329Y-73315000D01*
X108818151Y-73315000D01*
X108818151Y-72614726D01*
X108929931Y-72578562D01*
X109051575Y-72611438D01*
X109084452Y-72731438D01*
X109084452Y-73315000D01*
X109261986Y-73315000D01*
X109261986Y-72739658D01*
X109244931Y-72593767D01*
X109193767Y-72504589D01*
X109133584Y-72470799D01*
X109043995Y-72450525D01*
X108925000Y-72443767D01*
X108819247Y-72451438D01*
X108723356Y-72474452D01*
X108637329Y-72512808D01*
X108294863Y-72512808D01*
X108294863Y-72131438D01*
X109454315Y-72131438D01*
X109454315Y-73315000D01*
X109638425Y-73315000D01*
X109638425Y-72816918D01*
X109702534Y-72816918D01*
X109801986Y-72848973D01*
X109833425Y-72895205D01*
X109860342Y-72969795D01*
X109955685Y-73315000D01*
X110144726Y-73315000D01*
X110042808Y-72979658D01*
X109990205Y-72850616D01*
X109927740Y-72769247D01*
X109927740Y-72765959D01*
X110008288Y-72718904D01*
X110065822Y-72651712D01*
X110100342Y-72564384D01*
X110111849Y-72456918D01*
X110107712Y-72410890D01*
X110281164Y-72410890D01*
X110298219Y-72527603D01*
X110349384Y-72624589D01*
X110405913Y-72681575D01*
X110484543Y-72736370D01*
X110585274Y-72788973D01*
X110655753Y-72831301D01*
X110702808Y-72879384D01*
X110729315Y-72937740D01*
X110738151Y-73010890D01*
X110726644Y-73087534D01*
X110692123Y-73143219D01*
X110637055Y-73177123D01*
X110563904Y-73188425D01*
X110467648Y-73176553D01*
X110376142Y-73140936D01*
X110289384Y-73081575D01*
X110289384Y-73252534D01*
X110373767Y-73296370D01*
X110466918Y-73322671D01*
X110568836Y-73331438D01*
X110696068Y-73318288D01*
X110795027Y-73278836D01*
X110865712Y-73213082D01*
X110908123Y-73121027D01*
X110922260Y-73002671D01*
X110904589Y-72875685D01*
X110851575Y-72774178D01*
X110791484Y-72715548D01*
X110705457Y-72658014D01*
X110593493Y-72601575D01*
X110520434Y-72552443D01*
X110476598Y-72486142D01*
X110461986Y-72402671D01*
X110473493Y-72335274D01*
X110508014Y-72284315D01*
X110562671Y-72252260D01*
X110634589Y-72241575D01*
X110762397Y-72259247D01*
X110889384Y-72312260D01*
X110889384Y-72258014D01*
X111078425Y-72258014D01*
X111323356Y-72258014D01*
X111323356Y-73315000D01*
X111507466Y-73315000D01*
X111507466Y-72258014D01*
X111752397Y-72258014D01*
X111752397Y-72115000D01*
X111078425Y-72115000D01*
X111078425Y-72258014D01*
X110889384Y-72258014D01*
X110889384Y-72147877D01*
X110800982Y-72120479D01*
X110708927Y-72104041D01*
X110613219Y-72098562D01*
X110515046Y-72107694D01*
X110433128Y-72135091D01*
X110367466Y-72180753D01*
X110302740Y-72279384D01*
X110281164Y-72410890D01*
X110107712Y-72410890D01*
X110101712Y-72344132D01*
X110071301Y-72253447D01*
X110020616Y-72184863D01*
X109948196Y-72136918D01*
X109852580Y-72108151D01*
X109733767Y-72098562D01*
X109639155Y-72102215D01*
X109546005Y-72113174D01*
X109454315Y-72131438D01*
X108294863Y-72131438D01*
X108294863Y-71961575D01*
X108637329Y-71961575D01*
X111752397Y-71961575D01*
X112094863Y-71961575D01*
X112094863Y-73468425D01*
G37*
D12*
%TO.C,R5*%
X135646359Y-58320000D02*
X135953641Y-58320000D01*
X135646359Y-59080000D02*
X135953641Y-59080000D01*
%TO.C,R11*%
X123355000Y-68423641D02*
X123355000Y-68116359D01*
X124115000Y-68423641D02*
X124115000Y-68116359D01*
%TO.C,TP5*%
X154800000Y-86000000D02*
G75*
G02*
X151200000Y-86000000I-1800000J0D01*
G01*
X151200000Y-86000000D02*
G75*
G02*
X154800000Y-86000000I1800000J0D01*
G01*
%TO.C,U2*%
X130085000Y-50500000D02*
X128135000Y-50500000D01*
X130085000Y-50500000D02*
X132035000Y-50500000D01*
X130085000Y-59370000D02*
X128135000Y-59370000D01*
X130085000Y-59370000D02*
X132035000Y-59370000D01*
X127385000Y-50565000D02*
X127145000Y-50235000D01*
X127625000Y-50235000D01*
X127385000Y-50565000D01*
G36*
X127385000Y-50565000D02*
G01*
X127145000Y-50235000D01*
X127625000Y-50235000D01*
X127385000Y-50565000D01*
G37*
%TO.C,SW1*%
X136745000Y-67520000D02*
X136745000Y-69020000D01*
X137995000Y-71520000D02*
X142495000Y-71520000D01*
X142495000Y-65020000D02*
X137995000Y-65020000D01*
X143745000Y-69020000D02*
X143745000Y-67520000D01*
%TO.C,R10*%
X123355000Y-60803641D02*
X123355000Y-60496359D01*
X124115000Y-60803641D02*
X124115000Y-60496359D01*
%TO.C,R2*%
X137646359Y-59720000D02*
X137953641Y-59720000D01*
X137646359Y-60480000D02*
X137953641Y-60480000D01*
%TO.C,SW3*%
X136745000Y-84030000D02*
X136745000Y-85530000D01*
X137995000Y-88030000D02*
X142495000Y-88030000D01*
X142495000Y-81530000D02*
X137995000Y-81530000D01*
X143745000Y-85530000D02*
X143745000Y-84030000D01*
D11*
%TO.C,kibuzzard-66AE2A46*%
G36*
X109840617Y-62113630D02*
G01*
X109889932Y-62211438D01*
X109608836Y-62699658D01*
X109605548Y-62563219D01*
X109607740Y-62446324D01*
X109614315Y-62347694D01*
X109625274Y-62267329D01*
X109648083Y-62177740D01*
X109677055Y-62122671D01*
X109763357Y-62084863D01*
X109840617Y-62113630D01*
G37*
G36*
X109919932Y-62474041D02*
G01*
X109921165Y-62563219D01*
X109918973Y-62680114D01*
X109912398Y-62778744D01*
X109901439Y-62859110D01*
X109878631Y-62948699D01*
X109849658Y-63003767D01*
X109763357Y-63041575D01*
X109681165Y-63007877D01*
X109630206Y-62891986D01*
X109916233Y-62397192D01*
X109919932Y-62474041D01*
G37*
G36*
X111223631Y-63316644D02*
G01*
X110881165Y-63316644D01*
X109763357Y-63316644D01*
X109303083Y-63316644D01*
X108637329Y-63316644D01*
X108294863Y-63316644D01*
X108294863Y-63163219D01*
X108637329Y-63163219D01*
X108818151Y-63163219D01*
X108818151Y-62790068D01*
X109091028Y-63163219D01*
X109303083Y-63163219D01*
X108961165Y-62719384D01*
X109091094Y-62563219D01*
X109434589Y-62563219D01*
X109438882Y-62709064D01*
X109451758Y-62833174D01*
X109473220Y-62935548D01*
X109519452Y-63051849D01*
X109580891Y-63126233D01*
X109661028Y-63166301D01*
X109763357Y-63179658D01*
X109865685Y-63166301D01*
X109945822Y-63126233D01*
X110007261Y-63051849D01*
X110053494Y-62935548D01*
X110074955Y-62833174D01*
X110087831Y-62709064D01*
X110092124Y-62563219D01*
X110087831Y-62417374D01*
X110074955Y-62293265D01*
X110053494Y-62190890D01*
X110007261Y-62074589D01*
X109972298Y-62032260D01*
X110289384Y-62032260D01*
X110289384Y-62186781D01*
X110381987Y-62132900D01*
X110466918Y-62100571D01*
X110544179Y-62089795D01*
X110651850Y-62134178D01*
X110678357Y-62191712D01*
X110687192Y-62275548D01*
X110679074Y-62365623D01*
X110654718Y-62461134D01*
X110614125Y-62562079D01*
X110557296Y-62668458D01*
X110484229Y-62780273D01*
X110394925Y-62897522D01*
X110289384Y-63020205D01*
X110289384Y-63163219D01*
X110881165Y-63163219D01*
X110881165Y-63020205D01*
X110480069Y-63020205D01*
X110480069Y-63016918D01*
X110576490Y-62902055D01*
X110658631Y-62794178D01*
X110726490Y-62693288D01*
X110780069Y-62599384D01*
X110831667Y-62482123D01*
X110862626Y-62371438D01*
X110872946Y-62267329D01*
X110854247Y-62128630D01*
X110798151Y-62028151D01*
X110706713Y-61967123D01*
X110581987Y-61946781D01*
X110477877Y-61956279D01*
X110380343Y-61984772D01*
X110289384Y-62032260D01*
X109972298Y-62032260D01*
X109945822Y-62000205D01*
X109865685Y-61960137D01*
X109763357Y-61946781D01*
X109661028Y-61960137D01*
X109580891Y-62000205D01*
X109519452Y-62074589D01*
X109473220Y-62190890D01*
X109451758Y-62293265D01*
X109438882Y-62417374D01*
X109434589Y-62563219D01*
X109091094Y-62563219D01*
X109303083Y-62308425D01*
X109094315Y-62308425D01*
X108818151Y-62653630D01*
X108818151Y-61930342D01*
X108637329Y-61930342D01*
X108637329Y-63163219D01*
X108294863Y-63163219D01*
X108294863Y-61793356D01*
X108637329Y-61793356D01*
X110881165Y-61793356D01*
X111223631Y-61793356D01*
X111223631Y-63316644D01*
G37*
D12*
%TO.C,R13*%
X123355000Y-84933641D02*
X123355000Y-84626359D01*
X124115000Y-84933641D02*
X124115000Y-84626359D01*
D11*
%TO.C,kibuzzard-66AE2A86*%
G36*
X109830206Y-77338744D02*
G01*
X109891027Y-77395183D01*
X109911301Y-77489247D01*
X109898151Y-77575753D01*
X109858699Y-77634726D01*
X109791301Y-77668630D01*
X109694315Y-77679932D01*
X109646644Y-77679932D01*
X109646644Y-77333082D01*
X109728836Y-77319932D01*
X109830206Y-77338744D01*
G37*
G36*
X109816781Y-77833219D02*
G01*
X109886644Y-77873904D01*
X109927329Y-77944178D01*
X109940890Y-78046507D01*
X109928356Y-78147397D01*
X109890754Y-78216644D01*
X109827671Y-78256712D01*
X109738699Y-78270068D01*
X109646644Y-78256918D01*
X109646644Y-77819658D01*
X109715685Y-77819658D01*
X109816781Y-77833219D01*
G37*
G36*
X110678562Y-77346849D02*
G01*
X110736507Y-77422671D01*
X110761164Y-77508973D01*
X110775959Y-77633082D01*
X110780890Y-77795000D01*
X110775959Y-77956918D01*
X110761164Y-78081027D01*
X110736507Y-78167329D01*
X110678562Y-78243151D01*
X110593493Y-78268425D01*
X110508425Y-78243151D01*
X110450480Y-78167329D01*
X110425822Y-78081027D01*
X110411027Y-77956918D01*
X110406096Y-77795000D01*
X110411027Y-77633082D01*
X110425822Y-77508973D01*
X110450480Y-77422671D01*
X110508425Y-77346849D01*
X110593493Y-77321575D01*
X110678562Y-77346849D01*
G37*
G36*
X111500480Y-77346849D02*
G01*
X111558425Y-77422671D01*
X111583082Y-77508973D01*
X111597877Y-77633082D01*
X111602808Y-77795000D01*
X111597877Y-77956918D01*
X111583082Y-78081027D01*
X111558425Y-78167329D01*
X111500480Y-78243151D01*
X111415411Y-78268425D01*
X111330343Y-78243151D01*
X111272397Y-78167329D01*
X111247740Y-78081027D01*
X111232945Y-77956918D01*
X111228014Y-77795000D01*
X111232945Y-77633082D01*
X111247740Y-77508973D01*
X111272397Y-77422671D01*
X111330343Y-77346849D01*
X111415411Y-77321575D01*
X111500480Y-77346849D01*
G37*
G36*
X112916781Y-78548425D02*
G01*
X112574315Y-78548425D01*
X112329384Y-78548425D01*
X111415411Y-78548425D01*
X110593493Y-78548425D01*
X109738699Y-78548425D01*
X109261986Y-78548425D01*
X108637329Y-78548425D01*
X108294863Y-78548425D01*
X108294863Y-77592808D01*
X108637329Y-77592808D01*
X108637329Y-78395000D01*
X108818151Y-78395000D01*
X108818151Y-77694726D01*
X108929932Y-77658562D01*
X109051575Y-77691438D01*
X109084452Y-77811438D01*
X109084452Y-78395000D01*
X109261986Y-78395000D01*
X109261986Y-77819658D01*
X109244932Y-77673767D01*
X109193767Y-77584589D01*
X109133585Y-77550799D01*
X109043996Y-77530525D01*
X108925000Y-77523767D01*
X108819247Y-77531438D01*
X108723356Y-77554452D01*
X108637329Y-77592808D01*
X108294863Y-77592808D01*
X108294863Y-77211438D01*
X109462534Y-77211438D01*
X109462534Y-78378562D01*
X109553128Y-78396826D01*
X109645183Y-78407785D01*
X109738699Y-78411438D01*
X109855228Y-78401393D01*
X109950571Y-78371256D01*
X110024726Y-78321027D01*
X110077694Y-78250708D01*
X110109475Y-78160297D01*
X110120069Y-78049795D01*
X110104247Y-77939658D01*
X110056781Y-77845959D01*
X110003839Y-77795000D01*
X110231849Y-77795000D01*
X110236324Y-77938927D01*
X110249749Y-78061667D01*
X110272123Y-78163219D01*
X110321644Y-78279521D01*
X110389658Y-78355548D01*
X110479247Y-78397466D01*
X110593493Y-78411438D01*
X110707740Y-78397466D01*
X110797329Y-78355548D01*
X110865343Y-78279521D01*
X110914863Y-78163219D01*
X110937238Y-78061667D01*
X110950662Y-77938927D01*
X110955137Y-77795000D01*
X111053767Y-77795000D01*
X111058242Y-77938927D01*
X111071667Y-78061667D01*
X111094041Y-78163219D01*
X111143562Y-78279521D01*
X111211575Y-78355548D01*
X111301164Y-78397466D01*
X111415411Y-78411438D01*
X111529658Y-78397466D01*
X111619247Y-78355548D01*
X111687260Y-78279521D01*
X111736781Y-78163219D01*
X111759155Y-78061667D01*
X111772580Y-77938927D01*
X111777055Y-77795000D01*
X111772580Y-77651073D01*
X111759155Y-77528333D01*
X111736781Y-77426781D01*
X111698984Y-77338014D01*
X111900343Y-77338014D01*
X112145274Y-77338014D01*
X112145274Y-78395000D01*
X112329384Y-78395000D01*
X112329384Y-77338014D01*
X112574315Y-77338014D01*
X112574315Y-77195000D01*
X111900343Y-77195000D01*
X111900343Y-77338014D01*
X111698984Y-77338014D01*
X111687260Y-77310479D01*
X111619247Y-77234452D01*
X111529658Y-77192534D01*
X111415411Y-77178562D01*
X111301164Y-77192534D01*
X111211575Y-77234452D01*
X111143562Y-77310479D01*
X111094041Y-77426781D01*
X111071667Y-77528333D01*
X111058242Y-77651073D01*
X111053767Y-77795000D01*
X110955137Y-77795000D01*
X110950662Y-77651073D01*
X110937238Y-77528333D01*
X110914863Y-77426781D01*
X110865343Y-77310479D01*
X110797329Y-77234452D01*
X110707740Y-77192534D01*
X110593493Y-77178562D01*
X110479247Y-77192534D01*
X110389658Y-77234452D01*
X110321644Y-77310479D01*
X110272123Y-77426781D01*
X110249749Y-77528333D01*
X110236324Y-77651073D01*
X110231849Y-77795000D01*
X110003839Y-77795000D01*
X109985480Y-77777329D01*
X109898151Y-77742397D01*
X109898151Y-77740753D01*
X109975206Y-77707055D01*
X110035411Y-77648699D01*
X110074247Y-77570616D01*
X110087192Y-77477740D01*
X110072858Y-77370036D01*
X110029855Y-77286266D01*
X109958184Y-77226430D01*
X109857844Y-77190529D01*
X109728836Y-77178562D01*
X109593219Y-77186781D01*
X109462534Y-77211438D01*
X108294863Y-77211438D01*
X108294863Y-77041575D01*
X108637329Y-77041575D01*
X112574315Y-77041575D01*
X112916781Y-77041575D01*
X112916781Y-78548425D01*
G37*
D12*
%TO.C,SW4*%
X114520000Y-51645000D02*
X114520000Y-53145000D01*
X115770000Y-55645000D02*
X120270000Y-55645000D01*
X120270000Y-49145000D02*
X115770000Y-49145000D01*
X121520000Y-53145000D02*
X121520000Y-51645000D01*
%TO.C,TP8*%
X164550000Y-81000000D02*
G75*
G02*
X160950000Y-81000000I-1800000J0D01*
G01*
X160950000Y-81000000D02*
G75*
G02*
X164550000Y-81000000I1800000J0D01*
G01*
%TO.C,TP2*%
X154800000Y-71000000D02*
G75*
G02*
X151200000Y-71000000I-1800000J0D01*
G01*
X151200000Y-71000000D02*
G75*
G02*
X154800000Y-71000000I1800000J0D01*
G01*
%TO.C,R3*%
X139646359Y-55870000D02*
X139953641Y-55870000D01*
X139646359Y-56630000D02*
X139953641Y-56630000D01*
D11*
%TO.C,kibuzzard-66AE2A2C*%
G36*
X111294315Y-55688425D02*
G01*
X110951849Y-55688425D01*
X110734863Y-55688425D01*
X109912945Y-55688425D01*
X109117329Y-55688425D01*
X108637329Y-55688425D01*
X108294863Y-55688425D01*
X108294863Y-54335000D01*
X108637329Y-54335000D01*
X108903630Y-55535000D01*
X109117329Y-55535000D01*
X109254972Y-54918562D01*
X109497055Y-54918562D01*
X109503553Y-55066892D01*
X109523048Y-55195445D01*
X109555539Y-55304221D01*
X109601027Y-55393219D01*
X109659512Y-55462440D01*
X109730993Y-55511884D01*
X109815471Y-55541550D01*
X109912945Y-55551438D01*
X110022671Y-55541164D01*
X110121712Y-55510342D01*
X110121712Y-55359110D01*
X110028014Y-55397329D01*
X109940890Y-55410068D01*
X109860525Y-55396416D01*
X109794772Y-55355457D01*
X109743630Y-55287192D01*
X109707100Y-55191621D01*
X109685183Y-55068744D01*
X109677877Y-54918562D01*
X110318973Y-54918562D01*
X110325471Y-55066892D01*
X110344966Y-55195445D01*
X110377457Y-55304221D01*
X110422945Y-55393219D01*
X110481430Y-55462440D01*
X110552911Y-55511884D01*
X110637389Y-55541550D01*
X110734863Y-55551438D01*
X110844589Y-55541164D01*
X110943630Y-55510342D01*
X110943630Y-55359110D01*
X110849931Y-55397329D01*
X110762808Y-55410068D01*
X110682443Y-55396416D01*
X110616689Y-55355457D01*
X110565548Y-55287192D01*
X110529018Y-55191621D01*
X110507100Y-55068744D01*
X110499794Y-54918562D01*
X110506415Y-54779429D01*
X110526278Y-54665594D01*
X110559384Y-54577055D01*
X110605731Y-54513813D01*
X110665320Y-54475868D01*
X110738151Y-54463219D01*
X110775959Y-54469795D01*
X110775959Y-54726233D01*
X110951849Y-54726233D01*
X110951849Y-54354726D01*
X110847055Y-54327603D01*
X110729931Y-54318562D01*
X110633613Y-54327937D01*
X110550137Y-54356062D01*
X110479503Y-54402937D01*
X110421712Y-54468562D01*
X110376764Y-54552937D01*
X110344657Y-54656062D01*
X110325394Y-54777937D01*
X110318973Y-54918562D01*
X109677877Y-54918562D01*
X109684498Y-54779429D01*
X109704361Y-54665594D01*
X109737466Y-54577055D01*
X109783813Y-54513813D01*
X109843402Y-54475868D01*
X109916233Y-54463219D01*
X109954041Y-54469795D01*
X109954041Y-54726233D01*
X110129931Y-54726233D01*
X110129931Y-54354726D01*
X110025137Y-54327603D01*
X109908014Y-54318562D01*
X109811695Y-54327937D01*
X109728219Y-54356062D01*
X109657586Y-54402937D01*
X109599794Y-54468562D01*
X109554846Y-54552937D01*
X109522740Y-54656062D01*
X109503476Y-54777937D01*
X109497055Y-54918562D01*
X109254972Y-54918562D01*
X109385274Y-54335000D01*
X109202808Y-54335000D01*
X109015411Y-55370616D01*
X109013767Y-55370616D01*
X108826370Y-54335000D01*
X108637329Y-54335000D01*
X108294863Y-54335000D01*
X108294863Y-54181575D01*
X108637329Y-54181575D01*
X110951849Y-54181575D01*
X111294315Y-54181575D01*
X111294315Y-55688425D01*
G37*
%TO.C,kibuzzard-66C2A98F*%
G36*
X157163699Y-65632192D02*
G01*
X157204795Y-65713699D01*
X156970548Y-66120548D01*
X156967808Y-66006849D01*
X156969635Y-65909437D01*
X156975114Y-65827245D01*
X156984247Y-65760274D01*
X157003254Y-65685616D01*
X157027397Y-65639726D01*
X157099315Y-65608219D01*
X157163699Y-65632192D01*
G37*
G36*
X157229795Y-65932534D02*
G01*
X157230822Y-66006849D01*
X157228996Y-66104262D01*
X157223516Y-66186454D01*
X157214384Y-66253425D01*
X157195377Y-66328082D01*
X157171233Y-66373973D01*
X157099315Y-66405479D01*
X157030822Y-66377397D01*
X156988356Y-66280822D01*
X157226712Y-65868493D01*
X157229795Y-65932534D01*
G37*
G36*
X158218950Y-66634703D02*
G01*
X157933562Y-66634703D01*
X157780137Y-66634703D01*
X157099315Y-66634703D01*
X156715754Y-66634703D01*
X155989726Y-66634703D01*
X155469178Y-66634703D01*
X155183790Y-66634703D01*
X155183790Y-65838356D01*
X155469178Y-65838356D01*
X155469178Y-66506849D01*
X155619863Y-66506849D01*
X155619863Y-65923288D01*
X155713014Y-65893151D01*
X155814384Y-65920548D01*
X155841781Y-66020548D01*
X155841781Y-66506849D01*
X155989726Y-66506849D01*
X156160959Y-66506849D01*
X156311644Y-66506849D01*
X156311644Y-66195890D01*
X156539041Y-66506849D01*
X156715754Y-66506849D01*
X156430822Y-66136986D01*
X156539096Y-66006849D01*
X156825343Y-66006849D01*
X156828919Y-66128387D01*
X156839650Y-66231811D01*
X156857534Y-66317123D01*
X156896062Y-66414041D01*
X156947260Y-66476027D01*
X157014041Y-66509418D01*
X157099315Y-66520548D01*
X157184589Y-66509418D01*
X157251370Y-66476027D01*
X157302569Y-66414041D01*
X157341096Y-66317123D01*
X157358980Y-66231811D01*
X157369711Y-66128387D01*
X157373288Y-66006849D01*
X157369711Y-65885312D01*
X157358980Y-65781887D01*
X157341096Y-65696575D01*
X157321220Y-65646575D01*
X157541781Y-65646575D01*
X157541781Y-65780822D01*
X157777397Y-65649315D01*
X157780137Y-65650685D01*
X157780137Y-66506849D01*
X157933562Y-66506849D01*
X157933562Y-65506849D01*
X157781507Y-65506849D01*
X157541781Y-65646575D01*
X157321220Y-65646575D01*
X157302569Y-65599658D01*
X157251370Y-65537671D01*
X157184589Y-65504281D01*
X157099315Y-65493151D01*
X157014041Y-65504281D01*
X156947260Y-65537671D01*
X156896062Y-65599658D01*
X156857534Y-65696575D01*
X156839650Y-65781887D01*
X156828919Y-65885312D01*
X156825343Y-66006849D01*
X156539096Y-66006849D01*
X156715754Y-65794521D01*
X156541781Y-65794521D01*
X156311644Y-66082192D01*
X156311644Y-65479452D01*
X156160959Y-65479452D01*
X156160959Y-66506849D01*
X155989726Y-66506849D01*
X155989726Y-66027397D01*
X155975514Y-65905822D01*
X155932877Y-65831507D01*
X155882725Y-65803349D01*
X155808067Y-65786454D01*
X155708904Y-65780822D01*
X155620776Y-65787215D01*
X155540868Y-65806393D01*
X155469178Y-65838356D01*
X155183790Y-65838356D01*
X155183790Y-65365297D01*
X155469178Y-65365297D01*
X157933562Y-65365297D01*
X158218950Y-65365297D01*
X158218950Y-66634703D01*
G37*
%TO.C,kibuzzard-66AE2A35*%
G36*
X110681028Y-57027055D02*
G01*
X110759521Y-57103493D01*
X110793311Y-57188242D01*
X110813585Y-57306598D01*
X110820343Y-57458562D01*
X110813676Y-57626416D01*
X110793676Y-57755183D01*
X110760343Y-57844863D01*
X110682055Y-57923767D01*
X110567192Y-57950068D01*
X110493220Y-57935274D01*
X110493220Y-57016370D01*
X110567192Y-57001575D01*
X110681028Y-57027055D01*
G37*
G36*
X111341987Y-58228425D02*
G01*
X110999521Y-58228425D01*
X110567192Y-58228425D01*
X109500343Y-58228425D01*
X109048288Y-58228425D01*
X108637329Y-58228425D01*
X108294863Y-58228425D01*
X108294863Y-57466781D01*
X108637329Y-57466781D01*
X108643750Y-57613185D01*
X108663014Y-57740068D01*
X108695120Y-57847432D01*
X108740069Y-57935274D01*
X108797860Y-58003596D01*
X108868493Y-58052397D01*
X108951970Y-58081678D01*
X109048288Y-58091438D01*
X109146553Y-58085046D01*
X109195348Y-58075000D01*
X109500343Y-58075000D01*
X109681165Y-58075000D01*
X109681165Y-57203767D01*
X109684452Y-57203767D01*
X109940891Y-58075000D01*
X110125000Y-58075000D01*
X110125000Y-56891438D01*
X110309110Y-56891438D01*
X110309110Y-58058562D01*
X110432809Y-58083219D01*
X110567192Y-58091438D01*
X110703630Y-58077260D01*
X110810480Y-58034726D01*
X110891644Y-57957260D01*
X110951028Y-57838288D01*
X110977968Y-57733995D01*
X110994133Y-57607420D01*
X110999521Y-57458562D01*
X110993202Y-57304914D01*
X110974247Y-57176027D01*
X110942654Y-57071901D01*
X110898425Y-56992534D01*
X110816690Y-56918105D01*
X110706279Y-56873447D01*
X110567192Y-56858562D01*
X110437740Y-56866781D01*
X110309110Y-56891438D01*
X110125000Y-56891438D01*
X110125000Y-56875000D01*
X109952398Y-56875000D01*
X109952398Y-57746233D01*
X109947466Y-57746233D01*
X109691028Y-56875000D01*
X109500343Y-56875000D01*
X109500343Y-58075000D01*
X109195348Y-58075000D01*
X109239704Y-58065868D01*
X109327740Y-58033904D01*
X109327740Y-57359932D01*
X108944726Y-57359932D01*
X108944726Y-57499658D01*
X109151850Y-57499658D01*
X109151850Y-57930342D01*
X109053220Y-57950068D01*
X108952946Y-57922123D01*
X108878973Y-57838288D01*
X108845183Y-57747329D01*
X108824909Y-57623493D01*
X108818151Y-57466781D01*
X108825274Y-57313630D01*
X108846644Y-57193904D01*
X108882261Y-57107603D01*
X108964041Y-57029315D01*
X109081165Y-57003219D01*
X109181850Y-57013082D01*
X109286644Y-57042671D01*
X109286644Y-56894726D01*
X109185959Y-56867603D01*
X109081165Y-56858562D01*
X108945548Y-56874817D01*
X108834589Y-56923584D01*
X108748288Y-57004863D01*
X108699743Y-57088596D01*
X108665069Y-57193493D01*
X108644264Y-57319555D01*
X108637329Y-57466781D01*
X108294863Y-57466781D01*
X108294863Y-56721575D01*
X108637329Y-56721575D01*
X110999521Y-56721575D01*
X111341987Y-56721575D01*
X111341987Y-58228425D01*
G37*
D12*
%TO.C,R7*%
X139646359Y-58320000D02*
X139953641Y-58320000D01*
X139646359Y-59080000D02*
X139953641Y-59080000D01*
D11*
%TO.C,kibuzzard-66AE2A58*%
G36*
X110631301Y-67835548D02*
G01*
X110368287Y-67835548D01*
X110368287Y-67830616D01*
X110628013Y-67298014D01*
X110631301Y-67298014D01*
X110631301Y-67835548D01*
G37*
G36*
X109840616Y-67193630D02*
G01*
X109889931Y-67291438D01*
X109608835Y-67779658D01*
X109605548Y-67643219D01*
X109607739Y-67526324D01*
X109614315Y-67427694D01*
X109625274Y-67347329D01*
X109648082Y-67257740D01*
X109677055Y-67202671D01*
X109763356Y-67164863D01*
X109840616Y-67193630D01*
G37*
G36*
X109919931Y-67554041D02*
G01*
X109921164Y-67643219D01*
X109918972Y-67760114D01*
X109912397Y-67858744D01*
X109901438Y-67939110D01*
X109878630Y-68028699D01*
X109849657Y-68083767D01*
X109763356Y-68121575D01*
X109681164Y-68087877D01*
X109630205Y-67971986D01*
X109916233Y-67477192D01*
X109919931Y-67554041D01*
G37*
G36*
X111289383Y-68396644D02*
G01*
X110946918Y-68396644D01*
X110812123Y-68396644D01*
X109763356Y-68396644D01*
X109303082Y-68396644D01*
X108637328Y-68396644D01*
X108294863Y-68396644D01*
X108294863Y-68243219D01*
X108637328Y-68243219D01*
X108818150Y-68243219D01*
X108818150Y-67870068D01*
X109091027Y-68243219D01*
X109303082Y-68243219D01*
X108961164Y-67799384D01*
X109091093Y-67643219D01*
X109434589Y-67643219D01*
X109438881Y-67789064D01*
X109451758Y-67913174D01*
X109473219Y-68015548D01*
X109519452Y-68131849D01*
X109580890Y-68206233D01*
X109661027Y-68246301D01*
X109763356Y-68259658D01*
X109865685Y-68246301D01*
X109945822Y-68206233D01*
X110007260Y-68131849D01*
X110053493Y-68015548D01*
X110074954Y-67913174D01*
X110083008Y-67835548D01*
X110223630Y-67835548D01*
X110223630Y-67976918D01*
X110631301Y-67976918D01*
X110631301Y-68243219D01*
X110812123Y-68243219D01*
X110812123Y-67976918D01*
X110946918Y-67976918D01*
X110946918Y-67835548D01*
X110812123Y-67835548D01*
X110812123Y-67043219D01*
X110613219Y-67043219D01*
X110223630Y-67835548D01*
X110083008Y-67835548D01*
X110087831Y-67789064D01*
X110092123Y-67643219D01*
X110087831Y-67497374D01*
X110074954Y-67373265D01*
X110053493Y-67270890D01*
X110007260Y-67154589D01*
X109945822Y-67080205D01*
X109865685Y-67040137D01*
X109763356Y-67026781D01*
X109661027Y-67040137D01*
X109580890Y-67080205D01*
X109519452Y-67154589D01*
X109473219Y-67270890D01*
X109451758Y-67373265D01*
X109438881Y-67497374D01*
X109434589Y-67643219D01*
X109091093Y-67643219D01*
X109303082Y-67388425D01*
X109094315Y-67388425D01*
X108818150Y-67733630D01*
X108818150Y-67010342D01*
X108637328Y-67010342D01*
X108637328Y-68243219D01*
X108294863Y-68243219D01*
X108294863Y-66873356D01*
X108637328Y-66873356D01*
X110946918Y-66873356D01*
X111289383Y-66873356D01*
X111289383Y-68396644D01*
G37*
D12*
%TO.C,TP12*%
X166300000Y-60500000D02*
G75*
G02*
X162700000Y-60500000I-1800000J0D01*
G01*
X162700000Y-60500000D02*
G75*
G02*
X166300000Y-60500000I1800000J0D01*
G01*
%TO.C,C3*%
X132517164Y-74895000D02*
X132732836Y-74895000D01*
X132517164Y-75615000D02*
X132732836Y-75615000D01*
D11*
%TO.C,kibuzzard-66C2A80C*%
G36*
X161096233Y-60016952D02*
G01*
X161147945Y-60049315D01*
X161178767Y-60104966D01*
X161189041Y-60185616D01*
X161178082Y-60269863D01*
X161145205Y-60325342D01*
X161086301Y-60356164D01*
X160997260Y-60366438D01*
X160943836Y-60366438D01*
X160943836Y-60017123D01*
X161023288Y-60006164D01*
X161096233Y-60016952D01*
G37*
G36*
X158385959Y-60027226D02*
G01*
X158434247Y-60090411D01*
X158454795Y-60162329D01*
X158467123Y-60265753D01*
X158471233Y-60400685D01*
X158467123Y-60535616D01*
X158454795Y-60639041D01*
X158434247Y-60710959D01*
X158385959Y-60774144D01*
X158315068Y-60795205D01*
X158244178Y-60774144D01*
X158195890Y-60710959D01*
X158175342Y-60639041D01*
X158163014Y-60535616D01*
X158158904Y-60400685D01*
X158163014Y-60265753D01*
X158175342Y-60162329D01*
X158195890Y-60090411D01*
X158244178Y-60027226D01*
X158315068Y-60006164D01*
X158385959Y-60027226D01*
G37*
G36*
X162271689Y-61227169D02*
G01*
X161986301Y-61227169D01*
X161805479Y-61227169D01*
X161365753Y-61227169D01*
X160089041Y-61227169D01*
X159750685Y-61227169D01*
X158979452Y-61227169D01*
X158315068Y-61227169D01*
X158013699Y-61227169D01*
X157728311Y-61227169D01*
X157728311Y-61113014D01*
X160089041Y-61113014D01*
X160650685Y-61113014D01*
X160650685Y-61014384D01*
X160089041Y-61014384D01*
X160089041Y-61113014D01*
X157728311Y-61113014D01*
X157728311Y-60400685D01*
X158013699Y-60400685D01*
X158017428Y-60520624D01*
X158028615Y-60622907D01*
X158047260Y-60707534D01*
X158088527Y-60804452D01*
X158145205Y-60867808D01*
X158219863Y-60902740D01*
X158315068Y-60914384D01*
X158410274Y-60902740D01*
X158484932Y-60867808D01*
X158541610Y-60804452D01*
X158582877Y-60707534D01*
X158601522Y-60622907D01*
X158612709Y-60520624D01*
X158616438Y-60400685D01*
X158612709Y-60280746D01*
X158601522Y-60178463D01*
X158594647Y-60147260D01*
X158739726Y-60147260D01*
X158753938Y-60244521D01*
X158796575Y-60325342D01*
X158843683Y-60372831D01*
X158909209Y-60418493D01*
X158993151Y-60462329D01*
X159051884Y-60497603D01*
X159091096Y-60537671D01*
X159113185Y-60586301D01*
X159120548Y-60647260D01*
X159110959Y-60711130D01*
X159082192Y-60757534D01*
X159036301Y-60785788D01*
X158975342Y-60795205D01*
X158895129Y-60785312D01*
X158818874Y-60755632D01*
X158746575Y-60706164D01*
X158746575Y-60848630D01*
X158816895Y-60885160D01*
X158894521Y-60907078D01*
X158979452Y-60914384D01*
X159085479Y-60903425D01*
X159167945Y-60870548D01*
X159226849Y-60815753D01*
X159262192Y-60739041D01*
X159273973Y-60640411D01*
X159259247Y-60534589D01*
X159215068Y-60450000D01*
X159164992Y-60401142D01*
X159143826Y-60386986D01*
X159404110Y-60386986D01*
X159409525Y-60510595D01*
X159425771Y-60617723D01*
X159452847Y-60708369D01*
X159490753Y-60782534D01*
X159539491Y-60840218D01*
X159599058Y-60881421D01*
X159669456Y-60906143D01*
X159750685Y-60914384D01*
X159842123Y-60905822D01*
X159924658Y-60880137D01*
X159924658Y-60754110D01*
X159846575Y-60785959D01*
X159773973Y-60796575D01*
X159707002Y-60785198D01*
X159652207Y-60751065D01*
X159609589Y-60694178D01*
X159579148Y-60614536D01*
X159560883Y-60512139D01*
X159554795Y-60386986D01*
X159560312Y-60271043D01*
X159576865Y-60176180D01*
X159604452Y-60102397D01*
X159643075Y-60049696D01*
X159692732Y-60018075D01*
X159753425Y-60007534D01*
X159784932Y-60013014D01*
X159784932Y-60226712D01*
X159931507Y-60226712D01*
X159931507Y-59917123D01*
X159920924Y-59914384D01*
X160790411Y-59914384D01*
X160790411Y-60900685D01*
X160943836Y-60900685D01*
X160943836Y-60485616D01*
X160997260Y-60485616D01*
X161080137Y-60512329D01*
X161106336Y-60550856D01*
X161128767Y-60613014D01*
X161208219Y-60900685D01*
X161365753Y-60900685D01*
X161280822Y-60621233D01*
X161236986Y-60513699D01*
X161184932Y-60445890D01*
X161184932Y-60443151D01*
X161252055Y-60403938D01*
X161266570Y-60386986D01*
X161458904Y-60386986D01*
X161464319Y-60510595D01*
X161480565Y-60617723D01*
X161507641Y-60708369D01*
X161545548Y-60782534D01*
X161594285Y-60840218D01*
X161653853Y-60881421D01*
X161724251Y-60906143D01*
X161805479Y-60914384D01*
X161896918Y-60905822D01*
X161979452Y-60880137D01*
X161979452Y-60754110D01*
X161901370Y-60785959D01*
X161828767Y-60796575D01*
X161761796Y-60785198D01*
X161707002Y-60751065D01*
X161664384Y-60694178D01*
X161633942Y-60614536D01*
X161615677Y-60512139D01*
X161609589Y-60386986D01*
X161615107Y-60271043D01*
X161631659Y-60176180D01*
X161659247Y-60102397D01*
X161697869Y-60049696D01*
X161747527Y-60018075D01*
X161808219Y-60007534D01*
X161839726Y-60013014D01*
X161839726Y-60226712D01*
X161986301Y-60226712D01*
X161986301Y-59917123D01*
X161898973Y-59894521D01*
X161801370Y-59886986D01*
X161721104Y-59894799D01*
X161651541Y-59918236D01*
X161592680Y-59957299D01*
X161544521Y-60011986D01*
X161507063Y-60082299D01*
X161480308Y-60168236D01*
X161464255Y-60269799D01*
X161458904Y-60386986D01*
X161266570Y-60386986D01*
X161300000Y-60347945D01*
X161328767Y-60275171D01*
X161338356Y-60185616D01*
X161329909Y-60091629D01*
X161304566Y-60016058D01*
X161262329Y-59958904D01*
X161201979Y-59918950D01*
X161122298Y-59894977D01*
X161023288Y-59886986D01*
X160944444Y-59890030D01*
X160866819Y-59899163D01*
X160790411Y-59914384D01*
X159920924Y-59914384D01*
X159844178Y-59894521D01*
X159746575Y-59886986D01*
X159666310Y-59894799D01*
X159596747Y-59918236D01*
X159537885Y-59957299D01*
X159489726Y-60011986D01*
X159452269Y-60082299D01*
X159425514Y-60168236D01*
X159409461Y-60269799D01*
X159404110Y-60386986D01*
X159143826Y-60386986D01*
X159093303Y-60353196D01*
X159000000Y-60306164D01*
X158939117Y-60265221D01*
X158902588Y-60209970D01*
X158890411Y-60140411D01*
X158900000Y-60084247D01*
X158928767Y-60041781D01*
X158974315Y-60015068D01*
X159034247Y-60006164D01*
X159140753Y-60020890D01*
X159246575Y-60065068D01*
X159246575Y-59928082D01*
X159172907Y-59905251D01*
X159096195Y-59891553D01*
X159016438Y-59886986D01*
X158934627Y-59894597D01*
X158866362Y-59917428D01*
X158811644Y-59955479D01*
X158757705Y-60037671D01*
X158739726Y-60147260D01*
X158594647Y-60147260D01*
X158582877Y-60093836D01*
X158541610Y-59996918D01*
X158484932Y-59933562D01*
X158410274Y-59898630D01*
X158315068Y-59886986D01*
X158219863Y-59898630D01*
X158145205Y-59933562D01*
X158088527Y-59996918D01*
X158047260Y-60093836D01*
X158028615Y-60178463D01*
X158017428Y-60280746D01*
X158013699Y-60400685D01*
X157728311Y-60400685D01*
X157728311Y-59772831D01*
X158013699Y-59772831D01*
X161986301Y-59772831D01*
X162271689Y-59772831D01*
X162271689Y-61227169D01*
G37*
D12*
%TO.C,TP3*%
X154800000Y-76000000D02*
G75*
G02*
X151200000Y-76000000I-1800000J0D01*
G01*
X151200000Y-76000000D02*
G75*
G02*
X154800000Y-76000000I1800000J0D01*
G01*
%TO.C,R8*%
X135646359Y-59720000D02*
X135953641Y-59720000D01*
X135646359Y-60480000D02*
X135953641Y-60480000D01*
D11*
%TO.C,kibuzzard-66AE2AE7*%
G36*
X145813630Y-76068744D02*
G01*
X145874452Y-76125183D01*
X145894726Y-76219247D01*
X145881575Y-76305753D01*
X145842123Y-76364726D01*
X145774726Y-76398630D01*
X145677739Y-76409932D01*
X145630068Y-76409932D01*
X145630068Y-76063082D01*
X145712260Y-76049932D01*
X145813630Y-76068744D01*
G37*
G36*
X145800205Y-76563219D02*
G01*
X145870068Y-76603904D01*
X145910753Y-76674178D01*
X145924315Y-76776507D01*
X145911781Y-76877397D01*
X145874178Y-76946644D01*
X145811096Y-76986712D01*
X145722123Y-77000068D01*
X145630068Y-76986918D01*
X145630068Y-76549658D01*
X145699109Y-76549658D01*
X145800205Y-76563219D01*
G37*
G36*
X146661986Y-76076849D02*
G01*
X146719931Y-76152671D01*
X146744589Y-76238973D01*
X146759383Y-76363082D01*
X146764315Y-76525000D01*
X146759383Y-76686918D01*
X146744589Y-76811027D01*
X146719931Y-76897329D01*
X146661986Y-76973151D01*
X146576917Y-76998425D01*
X146491849Y-76973151D01*
X146433904Y-76897329D01*
X146409246Y-76811027D01*
X146394452Y-76686918D01*
X146389520Y-76525000D01*
X146394452Y-76363082D01*
X146409246Y-76238973D01*
X146433904Y-76152671D01*
X146491849Y-76076849D01*
X146576917Y-76051575D01*
X146661986Y-76076849D01*
G37*
G36*
X147483904Y-76076849D02*
G01*
X147541849Y-76152671D01*
X147566507Y-76238973D01*
X147581301Y-76363082D01*
X147586233Y-76525000D01*
X147581301Y-76686918D01*
X147566507Y-76811027D01*
X147541849Y-76897329D01*
X147483904Y-76973151D01*
X147398835Y-76998425D01*
X147313767Y-76973151D01*
X147255822Y-76897329D01*
X147231164Y-76811027D01*
X147216370Y-76686918D01*
X147211438Y-76525000D01*
X147216370Y-76363082D01*
X147231164Y-76238973D01*
X147255822Y-76152671D01*
X147313767Y-76076849D01*
X147398835Y-76051575D01*
X147483904Y-76076849D01*
G37*
G36*
X148900205Y-77278425D02*
G01*
X148557739Y-77278425D01*
X148312808Y-77278425D01*
X147398835Y-77278425D01*
X146576917Y-77278425D01*
X145722123Y-77278425D01*
X145445959Y-77278425D01*
X145103493Y-77278425D01*
X145103493Y-75941438D01*
X145445959Y-75941438D01*
X145445959Y-77108562D01*
X145536552Y-77126826D01*
X145628607Y-77137785D01*
X145722123Y-77141438D01*
X145838653Y-77131393D01*
X145933995Y-77101256D01*
X146008150Y-77051027D01*
X146061118Y-76980708D01*
X146092899Y-76890297D01*
X146103493Y-76779795D01*
X146087671Y-76669658D01*
X146040205Y-76575959D01*
X145987263Y-76525000D01*
X146215274Y-76525000D01*
X146219749Y-76668927D01*
X146233173Y-76791667D01*
X146255548Y-76893219D01*
X146305068Y-77009521D01*
X146373082Y-77085548D01*
X146462671Y-77127466D01*
X146576917Y-77141438D01*
X146691164Y-77127466D01*
X146780753Y-77085548D01*
X146848767Y-77009521D01*
X146898287Y-76893219D01*
X146920662Y-76791667D01*
X146934086Y-76668927D01*
X146938561Y-76525000D01*
X147037191Y-76525000D01*
X147041666Y-76668927D01*
X147055091Y-76791667D01*
X147077465Y-76893219D01*
X147126986Y-77009521D01*
X147195000Y-77085548D01*
X147284589Y-77127466D01*
X147398835Y-77141438D01*
X147513082Y-77127466D01*
X147602671Y-77085548D01*
X147670685Y-77009521D01*
X147720205Y-76893219D01*
X147742580Y-76791667D01*
X147756004Y-76668927D01*
X147760479Y-76525000D01*
X147756004Y-76381073D01*
X147742580Y-76258333D01*
X147720205Y-76156781D01*
X147682409Y-76068014D01*
X147883767Y-76068014D01*
X148128698Y-76068014D01*
X148128698Y-77125000D01*
X148312808Y-77125000D01*
X148312808Y-76068014D01*
X148557739Y-76068014D01*
X148557739Y-75925000D01*
X147883767Y-75925000D01*
X147883767Y-76068014D01*
X147682409Y-76068014D01*
X147670685Y-76040479D01*
X147602671Y-75964452D01*
X147513082Y-75922534D01*
X147398835Y-75908562D01*
X147284589Y-75922534D01*
X147195000Y-75964452D01*
X147126986Y-76040479D01*
X147077465Y-76156781D01*
X147055091Y-76258333D01*
X147041666Y-76381073D01*
X147037191Y-76525000D01*
X146938561Y-76525000D01*
X146934086Y-76381073D01*
X146920662Y-76258333D01*
X146898287Y-76156781D01*
X146848767Y-76040479D01*
X146780753Y-75964452D01*
X146691164Y-75922534D01*
X146576917Y-75908562D01*
X146462671Y-75922534D01*
X146373082Y-75964452D01*
X146305068Y-76040479D01*
X146255548Y-76156781D01*
X146233173Y-76258333D01*
X146219749Y-76381073D01*
X146215274Y-76525000D01*
X145987263Y-76525000D01*
X145968904Y-76507329D01*
X145881575Y-76472397D01*
X145881575Y-76470753D01*
X145958630Y-76437055D01*
X146018835Y-76378699D01*
X146057671Y-76300616D01*
X146070616Y-76207740D01*
X146056282Y-76100036D01*
X146013279Y-76016266D01*
X145941608Y-75956430D01*
X145841268Y-75920529D01*
X145712260Y-75908562D01*
X145576644Y-75916781D01*
X145445959Y-75941438D01*
X145103493Y-75941438D01*
X145103493Y-75771575D01*
X145445959Y-75771575D01*
X148557739Y-75771575D01*
X148900205Y-75771575D01*
X148900205Y-77278425D01*
G37*
D12*
%TO.C,R4*%
X126428641Y-85670000D02*
X126121359Y-85670000D01*
X126428641Y-86430000D02*
X126121359Y-86430000D01*
%TO.C,TP10*%
X160550000Y-51500000D02*
G75*
G02*
X156950000Y-51500000I-1800000J0D01*
G01*
X156950000Y-51500000D02*
G75*
G02*
X160550000Y-51500000I1800000J0D01*
G01*
D11*
%TO.C,kibuzzard-66C2A998*%
G36*
X157163699Y-70632192D02*
G01*
X157204795Y-70713699D01*
X156970548Y-71120548D01*
X156967808Y-71006849D01*
X156969635Y-70909437D01*
X156975114Y-70827245D01*
X156984247Y-70760274D01*
X157003253Y-70685616D01*
X157027397Y-70639726D01*
X157099315Y-70608219D01*
X157163699Y-70632192D01*
G37*
G36*
X157229795Y-70932534D02*
G01*
X157230822Y-71006849D01*
X157228995Y-71104262D01*
X157223516Y-71186454D01*
X157214384Y-71253425D01*
X157195377Y-71328082D01*
X157171233Y-71373973D01*
X157099315Y-71405479D01*
X157030822Y-71377397D01*
X156988356Y-71280822D01*
X157226712Y-70868493D01*
X157229795Y-70932534D01*
G37*
G36*
X158316210Y-71634703D02*
G01*
X158030822Y-71634703D01*
X157099315Y-71634703D01*
X156715753Y-71634703D01*
X155989726Y-71634703D01*
X155469178Y-71634703D01*
X155183790Y-71634703D01*
X155183790Y-70838356D01*
X155469178Y-70838356D01*
X155469178Y-71506849D01*
X155619863Y-71506849D01*
X155619863Y-70923288D01*
X155713014Y-70893151D01*
X155814384Y-70920548D01*
X155841781Y-71020548D01*
X155841781Y-71506849D01*
X155989726Y-71506849D01*
X156160959Y-71506849D01*
X156311644Y-71506849D01*
X156311644Y-71195890D01*
X156539041Y-71506849D01*
X156715753Y-71506849D01*
X156430822Y-71136986D01*
X156539096Y-71006849D01*
X156825342Y-71006849D01*
X156828919Y-71128387D01*
X156839650Y-71231811D01*
X156857534Y-71317123D01*
X156896062Y-71414041D01*
X156947260Y-71476027D01*
X157014041Y-71509418D01*
X157099315Y-71520548D01*
X157184589Y-71509418D01*
X157251370Y-71476027D01*
X157302568Y-71414041D01*
X157341096Y-71317123D01*
X157358980Y-71231811D01*
X157369711Y-71128387D01*
X157373288Y-71006849D01*
X157369711Y-70885312D01*
X157358980Y-70781887D01*
X157341096Y-70696575D01*
X157302568Y-70599658D01*
X157273434Y-70564384D01*
X157537671Y-70564384D01*
X157537671Y-70693151D01*
X157614840Y-70648250D01*
X157685616Y-70621309D01*
X157750000Y-70612329D01*
X157839726Y-70649315D01*
X157861815Y-70697260D01*
X157869178Y-70767123D01*
X157862413Y-70842186D01*
X157842116Y-70921778D01*
X157808289Y-71005899D01*
X157760931Y-71094549D01*
X157700042Y-71187727D01*
X157625622Y-71285435D01*
X157537671Y-71387671D01*
X157537671Y-71506849D01*
X158030822Y-71506849D01*
X158030822Y-71387671D01*
X157696575Y-71387671D01*
X157696575Y-71384932D01*
X157776926Y-71289212D01*
X157845377Y-71199315D01*
X157901926Y-71115240D01*
X157946575Y-71036986D01*
X157989574Y-70939269D01*
X158015373Y-70847032D01*
X158023973Y-70760274D01*
X158008390Y-70644692D01*
X157961644Y-70560959D01*
X157885445Y-70510103D01*
X157781507Y-70493151D01*
X157694749Y-70501065D01*
X157613470Y-70524810D01*
X157537671Y-70564384D01*
X157273434Y-70564384D01*
X157251370Y-70537671D01*
X157184589Y-70504281D01*
X157099315Y-70493151D01*
X157014041Y-70504281D01*
X156947260Y-70537671D01*
X156896062Y-70599658D01*
X156857534Y-70696575D01*
X156839650Y-70781887D01*
X156828919Y-70885312D01*
X156825342Y-71006849D01*
X156539096Y-71006849D01*
X156715753Y-70794521D01*
X156541781Y-70794521D01*
X156311644Y-71082192D01*
X156311644Y-70479452D01*
X156160959Y-70479452D01*
X156160959Y-71506849D01*
X155989726Y-71506849D01*
X155989726Y-71027397D01*
X155975514Y-70905822D01*
X155932877Y-70831507D01*
X155882725Y-70803349D01*
X155808067Y-70786454D01*
X155708904Y-70780822D01*
X155620776Y-70787215D01*
X155540868Y-70806393D01*
X155469178Y-70838356D01*
X155183790Y-70838356D01*
X155183790Y-70365297D01*
X155469178Y-70365297D01*
X158030822Y-70365297D01*
X158316210Y-70365297D01*
X158316210Y-71634703D01*
G37*
D12*
%TO.C,SW5*%
X114445000Y-59555000D02*
X114445000Y-61055000D01*
X115695000Y-63555000D02*
X120195000Y-63555000D01*
X120195000Y-57055000D02*
X115695000Y-57055000D01*
X121445000Y-61055000D02*
X121445000Y-59555000D01*
D11*
%TO.C,kibuzzard-66AE2A4E*%
G36*
X109840617Y-64653630D02*
G01*
X109889932Y-64751438D01*
X109608836Y-65239658D01*
X109605548Y-65103219D01*
X109607740Y-64986324D01*
X109614315Y-64887694D01*
X109625274Y-64807329D01*
X109648083Y-64717740D01*
X109677055Y-64662671D01*
X109763357Y-64624863D01*
X109840617Y-64653630D01*
G37*
G36*
X109919932Y-65014041D02*
G01*
X109921165Y-65103219D01*
X109918973Y-65220114D01*
X109912398Y-65318744D01*
X109901439Y-65399110D01*
X109878631Y-65488699D01*
X109849658Y-65543767D01*
X109763357Y-65581575D01*
X109681165Y-65547877D01*
X109630206Y-65431986D01*
X109916233Y-64937192D01*
X109919932Y-65014041D01*
G37*
G36*
X111243357Y-65856644D02*
G01*
X110900891Y-65856644D01*
X110531028Y-65856644D01*
X109763357Y-65856644D01*
X109303083Y-65856644D01*
X108637329Y-65856644D01*
X108294863Y-65856644D01*
X108294863Y-65703219D01*
X108637329Y-65703219D01*
X108818151Y-65703219D01*
X108818151Y-65330068D01*
X109091028Y-65703219D01*
X109303083Y-65703219D01*
X108961165Y-65259384D01*
X109091094Y-65103219D01*
X109434589Y-65103219D01*
X109438882Y-65249064D01*
X109451758Y-65373174D01*
X109473220Y-65475548D01*
X109519452Y-65591849D01*
X109580891Y-65666233D01*
X109661028Y-65706301D01*
X109763357Y-65719658D01*
X109865685Y-65706301D01*
X109945822Y-65666233D01*
X110007261Y-65591849D01*
X110040098Y-65509247D01*
X110268014Y-65509247D01*
X110268014Y-65667055D01*
X110397055Y-65706507D01*
X110531028Y-65719658D01*
X110644042Y-65709612D01*
X110736507Y-65679475D01*
X110808425Y-65629247D01*
X110859795Y-65558927D01*
X110890617Y-65468516D01*
X110900891Y-65358014D01*
X110887535Y-65242534D01*
X110847466Y-65154178D01*
X110780685Y-65092945D01*
X110687192Y-65058836D01*
X110687192Y-65057192D01*
X110773494Y-65015377D01*
X110835137Y-64952397D01*
X110872124Y-64868253D01*
X110884452Y-64762945D01*
X110863905Y-64647260D01*
X110802261Y-64559932D01*
X110702398Y-64505068D01*
X110567192Y-64486781D01*
X110478060Y-64493174D01*
X110386005Y-64512352D01*
X110291028Y-64544315D01*
X110291028Y-64697192D01*
X110418425Y-64645411D01*
X110534315Y-64628151D01*
X110629293Y-64645685D01*
X110686279Y-64698288D01*
X110705274Y-64785959D01*
X110690480Y-64878425D01*
X110646096Y-64942123D01*
X110568425Y-64979110D01*
X110453768Y-64991438D01*
X110420891Y-64991438D01*
X110420891Y-65136096D01*
X110453768Y-65136096D01*
X110577055Y-65148630D01*
X110657603Y-65186233D01*
X110701987Y-65252192D01*
X110716781Y-65349795D01*
X110703836Y-65449041D01*
X110665000Y-65519932D01*
X110600274Y-65562466D01*
X110509658Y-65576644D01*
X110387603Y-65559795D01*
X110268014Y-65509247D01*
X110040098Y-65509247D01*
X110053494Y-65475548D01*
X110074955Y-65373174D01*
X110087831Y-65249064D01*
X110092124Y-65103219D01*
X110087831Y-64957374D01*
X110074955Y-64833265D01*
X110053494Y-64730890D01*
X110007261Y-64614589D01*
X109945822Y-64540205D01*
X109865685Y-64500137D01*
X109763357Y-64486781D01*
X109661028Y-64500137D01*
X109580891Y-64540205D01*
X109519452Y-64614589D01*
X109473220Y-64730890D01*
X109451758Y-64833265D01*
X109438882Y-64957374D01*
X109434589Y-65103219D01*
X109091094Y-65103219D01*
X109303083Y-64848425D01*
X109094315Y-64848425D01*
X108818151Y-65193630D01*
X108818151Y-64470342D01*
X108637329Y-64470342D01*
X108637329Y-65703219D01*
X108294863Y-65703219D01*
X108294863Y-64333356D01*
X108637329Y-64333356D01*
X110900891Y-64333356D01*
X111243357Y-64333356D01*
X111243357Y-65856644D01*
G37*
%TO.C,kibuzzard-66AE2A61*%
G36*
X109840616Y-69733630D02*
G01*
X109889932Y-69831438D01*
X109608836Y-70319658D01*
X109605548Y-70183219D01*
X109607740Y-70066324D01*
X109614315Y-69967694D01*
X109625274Y-69887329D01*
X109648082Y-69797740D01*
X109677055Y-69742671D01*
X109763356Y-69704863D01*
X109840616Y-69733630D01*
G37*
G36*
X109919932Y-70094041D02*
G01*
X109921164Y-70183219D01*
X109918973Y-70300114D01*
X109912397Y-70398744D01*
X109901438Y-70479110D01*
X109878630Y-70568699D01*
X109849658Y-70623767D01*
X109763356Y-70661575D01*
X109681164Y-70627877D01*
X109630205Y-70511986D01*
X109916233Y-70017192D01*
X109919932Y-70094041D01*
G37*
G36*
X111235137Y-70936644D02*
G01*
X110892671Y-70936644D01*
X110535959Y-70936644D01*
X109763356Y-70936644D01*
X109303082Y-70936644D01*
X108637329Y-70936644D01*
X108294863Y-70936644D01*
X108294863Y-70783219D01*
X108637329Y-70783219D01*
X108818151Y-70783219D01*
X108818151Y-70410068D01*
X109091027Y-70783219D01*
X109303082Y-70783219D01*
X108961164Y-70339384D01*
X109091093Y-70183219D01*
X109434589Y-70183219D01*
X109438881Y-70329064D01*
X109451758Y-70453174D01*
X109473219Y-70555548D01*
X109519452Y-70671849D01*
X109580890Y-70746233D01*
X109661027Y-70786301D01*
X109763356Y-70799658D01*
X109865685Y-70786301D01*
X109945822Y-70746233D01*
X110007260Y-70671849D01*
X110038136Y-70594178D01*
X110300890Y-70594178D01*
X110300890Y-70750342D01*
X110413904Y-70787329D01*
X110535959Y-70799658D01*
X110648653Y-70789429D01*
X110739064Y-70758744D01*
X110807192Y-70707603D01*
X110854680Y-70632717D01*
X110883174Y-70530799D01*
X110892671Y-70401849D01*
X110882151Y-70262781D01*
X110850589Y-70154616D01*
X110797986Y-70077356D01*
X110724342Y-70031000D01*
X110629658Y-70015548D01*
X110551575Y-70025822D01*
X110485000Y-70056644D01*
X110481712Y-70056644D01*
X110493219Y-69724589D01*
X110859795Y-69724589D01*
X110859795Y-69583219D01*
X110325548Y-69583219D01*
X110309110Y-70221027D01*
X110460342Y-70221027D01*
X110517466Y-70171712D01*
X110580342Y-70155274D01*
X110677329Y-70211986D01*
X110700753Y-70287808D01*
X110708562Y-70401849D01*
X110697466Y-70522055D01*
X110664178Y-70599932D01*
X110606644Y-70642466D01*
X110522808Y-70656644D01*
X110413082Y-70641027D01*
X110300890Y-70594178D01*
X110038136Y-70594178D01*
X110053493Y-70555548D01*
X110074954Y-70453174D01*
X110087831Y-70329064D01*
X110092123Y-70183219D01*
X110087831Y-70037374D01*
X110074954Y-69913265D01*
X110053493Y-69810890D01*
X110007260Y-69694589D01*
X109945822Y-69620205D01*
X109865685Y-69580137D01*
X109763356Y-69566781D01*
X109661027Y-69580137D01*
X109580890Y-69620205D01*
X109519452Y-69694589D01*
X109473219Y-69810890D01*
X109451758Y-69913265D01*
X109438881Y-70037374D01*
X109434589Y-70183219D01*
X109091093Y-70183219D01*
X109303082Y-69928425D01*
X109094315Y-69928425D01*
X108818151Y-70273630D01*
X108818151Y-69550342D01*
X108637329Y-69550342D01*
X108637329Y-70783219D01*
X108294863Y-70783219D01*
X108294863Y-69413356D01*
X108637329Y-69413356D01*
X110892671Y-69413356D01*
X111235137Y-69413356D01*
X111235137Y-70936644D01*
G37*
D12*
%TO.C,R12*%
X123355000Y-76678641D02*
X123355000Y-76371359D01*
X124115000Y-76678641D02*
X124115000Y-76371359D01*
D11*
%TO.C,kibuzzard-66C2A8B2*%
G36*
X153749772Y-58127854D02*
G01*
X153464384Y-58127854D01*
X153283562Y-58127854D01*
X152598630Y-58127854D01*
X151935616Y-58127854D01*
X151535616Y-58127854D01*
X151250228Y-58127854D01*
X151250228Y-57000000D01*
X151535616Y-57000000D01*
X151757534Y-58000000D01*
X151935616Y-58000000D01*
X152050319Y-57486301D01*
X152252055Y-57486301D01*
X152257470Y-57609910D01*
X152273716Y-57717038D01*
X152300792Y-57807684D01*
X152338699Y-57881849D01*
X152387436Y-57939533D01*
X152447003Y-57980736D01*
X152517402Y-58005458D01*
X152598630Y-58013699D01*
X152690068Y-58005137D01*
X152772603Y-57979452D01*
X152772603Y-57853425D01*
X152694521Y-57885274D01*
X152621918Y-57895890D01*
X152554947Y-57884513D01*
X152500152Y-57850381D01*
X152457534Y-57793493D01*
X152427093Y-57713851D01*
X152408828Y-57611454D01*
X152402740Y-57486301D01*
X152936986Y-57486301D01*
X152942402Y-57609910D01*
X152958647Y-57717038D01*
X152985723Y-57807684D01*
X153023630Y-57881849D01*
X153072367Y-57939533D01*
X153131935Y-57980736D01*
X153202333Y-58005458D01*
X153283562Y-58013699D01*
X153375000Y-58005137D01*
X153457534Y-57979452D01*
X153457534Y-57853425D01*
X153379452Y-57885274D01*
X153306849Y-57895890D01*
X153239878Y-57884513D01*
X153185084Y-57850381D01*
X153142466Y-57793493D01*
X153112024Y-57713851D01*
X153093760Y-57611454D01*
X153087671Y-57486301D01*
X153093189Y-57370358D01*
X153109741Y-57275495D01*
X153137329Y-57201712D01*
X153175951Y-57149011D01*
X153225609Y-57117390D01*
X153286301Y-57106849D01*
X153317808Y-57112329D01*
X153317808Y-57326027D01*
X153464384Y-57326027D01*
X153464384Y-57016438D01*
X153377055Y-56993836D01*
X153279452Y-56986301D01*
X153199187Y-56994114D01*
X153129623Y-57017551D01*
X153070762Y-57056614D01*
X153022603Y-57111301D01*
X152985146Y-57181614D01*
X152958390Y-57267551D01*
X152942337Y-57369114D01*
X152936986Y-57486301D01*
X152402740Y-57486301D01*
X152408257Y-57370358D01*
X152424810Y-57275495D01*
X152452397Y-57201712D01*
X152491020Y-57149011D01*
X152540677Y-57117390D01*
X152601370Y-57106849D01*
X152632877Y-57112329D01*
X152632877Y-57326027D01*
X152779452Y-57326027D01*
X152779452Y-57016438D01*
X152692123Y-56993836D01*
X152594521Y-56986301D01*
X152514255Y-56994114D01*
X152444692Y-57017551D01*
X152385830Y-57056614D01*
X152337671Y-57111301D01*
X152300214Y-57181614D01*
X152273459Y-57267551D01*
X152257406Y-57369114D01*
X152252055Y-57486301D01*
X152050319Y-57486301D01*
X152158904Y-57000000D01*
X152006849Y-57000000D01*
X151850685Y-57863014D01*
X151849315Y-57863014D01*
X151693151Y-57000000D01*
X151535616Y-57000000D01*
X151250228Y-57000000D01*
X151250228Y-56872146D01*
X151535616Y-56872146D01*
X153464384Y-56872146D01*
X153749772Y-56872146D01*
X153749772Y-58127854D01*
G37*
D12*
%TO.C,U1*%
X130085000Y-62565000D02*
X128135000Y-62565000D01*
X130085000Y-62565000D02*
X132035000Y-62565000D01*
X130085000Y-71435000D02*
X128135000Y-71435000D01*
X130085000Y-71435000D02*
X132035000Y-71435000D01*
X127385000Y-62630000D02*
X127145000Y-62300000D01*
X127625000Y-62300000D01*
X127385000Y-62630000D01*
G36*
X127385000Y-62630000D02*
G01*
X127145000Y-62300000D01*
X127625000Y-62300000D01*
X127385000Y-62630000D01*
G37*
%TO.C,TP6*%
X160800000Y-78500000D02*
G75*
G02*
X157200000Y-78500000I-1800000J0D01*
G01*
X157200000Y-78500000D02*
G75*
G02*
X160800000Y-78500000I1800000J0D01*
G01*
%TO.C,R6*%
X139646359Y-57220000D02*
X139953641Y-57220000D01*
X139646359Y-57980000D02*
X139953641Y-57980000D01*
%TO.C,J1*%
X105260000Y-53605000D02*
X106590000Y-53605000D01*
X105260000Y-54935000D02*
X105260000Y-53605000D01*
X105260000Y-56205000D02*
X105260000Y-79125000D01*
X105260000Y-56205000D02*
X107920000Y-56205000D01*
X105260000Y-79125000D02*
X107920000Y-79125000D01*
X107920000Y-56205000D02*
X107920000Y-79125000D01*
%TO.C,R9*%
X123355000Y-52548641D02*
X123355000Y-52241359D01*
X124115000Y-52548641D02*
X124115000Y-52241359D01*
%TO.C,TP1*%
X154800000Y-66000000D02*
G75*
G02*
X151200000Y-66000000I-1800000J0D01*
G01*
X151200000Y-66000000D02*
G75*
G02*
X154800000Y-66000000I1800000J0D01*
G01*
%TO.C,TP11*%
X166300000Y-54500000D02*
G75*
G02*
X162700000Y-54500000I-1800000J0D01*
G01*
X162700000Y-54500000D02*
G75*
G02*
X166300000Y-54500000I1800000J0D01*
G01*
%TO.C,TP9*%
X166300000Y-76000000D02*
G75*
G02*
X162700000Y-76000000I-1800000J0D01*
G01*
X162700000Y-76000000D02*
G75*
G02*
X166300000Y-76000000I1800000J0D01*
G01*
D11*
%TO.C,kibuzzard-66AE2A7C*%
G36*
X109005000Y-74798744D02*
G01*
X109065822Y-74855183D01*
X109086096Y-74949247D01*
X109072945Y-75035753D01*
X109033493Y-75094726D01*
X108966096Y-75128630D01*
X108869109Y-75139932D01*
X108821438Y-75139932D01*
X108821438Y-74793082D01*
X108903630Y-74779932D01*
X109005000Y-74798744D01*
G37*
G36*
X108991575Y-75293219D02*
G01*
X109061438Y-75333904D01*
X109102123Y-75404178D01*
X109115685Y-75506507D01*
X109103151Y-75607397D01*
X109065548Y-75676644D01*
X109002466Y-75716712D01*
X108913493Y-75730068D01*
X108821438Y-75716918D01*
X108821438Y-75279658D01*
X108890479Y-75279658D01*
X108991575Y-75293219D01*
G37*
G36*
X109853356Y-74806849D02*
G01*
X109911301Y-74882671D01*
X109935959Y-74968973D01*
X109950753Y-75093082D01*
X109955685Y-75255000D01*
X109950753Y-75416918D01*
X109935959Y-75541027D01*
X109911301Y-75627329D01*
X109853356Y-75703151D01*
X109768287Y-75728425D01*
X109683219Y-75703151D01*
X109625274Y-75627329D01*
X109600616Y-75541027D01*
X109585822Y-75416918D01*
X109580890Y-75255000D01*
X109585822Y-75093082D01*
X109600616Y-74968973D01*
X109625274Y-74882671D01*
X109683219Y-74806849D01*
X109768287Y-74781575D01*
X109853356Y-74806849D01*
G37*
G36*
X110675274Y-74806849D02*
G01*
X110733219Y-74882671D01*
X110757877Y-74968973D01*
X110772671Y-75093082D01*
X110777603Y-75255000D01*
X110772671Y-75416918D01*
X110757877Y-75541027D01*
X110733219Y-75627329D01*
X110675274Y-75703151D01*
X110590205Y-75728425D01*
X110505137Y-75703151D01*
X110447192Y-75627329D01*
X110422534Y-75541027D01*
X110407740Y-75416918D01*
X110402808Y-75255000D01*
X110407740Y-75093082D01*
X110422534Y-74968973D01*
X110447192Y-74882671D01*
X110505137Y-74806849D01*
X110590205Y-74781575D01*
X110675274Y-74806849D01*
G37*
G36*
X112091575Y-76008425D02*
G01*
X111749109Y-76008425D01*
X111504178Y-76008425D01*
X110590205Y-76008425D01*
X109768287Y-76008425D01*
X108913493Y-76008425D01*
X108637329Y-76008425D01*
X108294863Y-76008425D01*
X108294863Y-74671438D01*
X108637329Y-74671438D01*
X108637329Y-75838562D01*
X108727922Y-75856826D01*
X108819977Y-75867785D01*
X108913493Y-75871438D01*
X109030023Y-75861393D01*
X109125365Y-75831256D01*
X109199520Y-75781027D01*
X109252488Y-75710708D01*
X109284269Y-75620297D01*
X109294863Y-75509795D01*
X109279041Y-75399658D01*
X109231575Y-75305959D01*
X109178633Y-75255000D01*
X109406644Y-75255000D01*
X109411119Y-75398927D01*
X109424543Y-75521667D01*
X109446918Y-75623219D01*
X109496438Y-75739521D01*
X109564452Y-75815548D01*
X109654041Y-75857466D01*
X109768287Y-75871438D01*
X109882534Y-75857466D01*
X109972123Y-75815548D01*
X110040137Y-75739521D01*
X110089657Y-75623219D01*
X110112032Y-75521667D01*
X110125456Y-75398927D01*
X110129931Y-75255000D01*
X110228561Y-75255000D01*
X110233036Y-75398927D01*
X110246461Y-75521667D01*
X110268835Y-75623219D01*
X110318356Y-75739521D01*
X110386370Y-75815548D01*
X110475959Y-75857466D01*
X110590205Y-75871438D01*
X110704452Y-75857466D01*
X110794041Y-75815548D01*
X110862055Y-75739521D01*
X110911575Y-75623219D01*
X110933950Y-75521667D01*
X110947374Y-75398927D01*
X110951849Y-75255000D01*
X110947374Y-75111073D01*
X110933950Y-74988333D01*
X110911575Y-74886781D01*
X110873779Y-74798014D01*
X111075137Y-74798014D01*
X111320068Y-74798014D01*
X111320068Y-75855000D01*
X111504178Y-75855000D01*
X111504178Y-74798014D01*
X111749109Y-74798014D01*
X111749109Y-74655000D01*
X111075137Y-74655000D01*
X111075137Y-74798014D01*
X110873779Y-74798014D01*
X110862055Y-74770479D01*
X110794041Y-74694452D01*
X110704452Y-74652534D01*
X110590205Y-74638562D01*
X110475959Y-74652534D01*
X110386370Y-74694452D01*
X110318356Y-74770479D01*
X110268835Y-74886781D01*
X110246461Y-74988333D01*
X110233036Y-75111073D01*
X110228561Y-75255000D01*
X110129931Y-75255000D01*
X110125456Y-75111073D01*
X110112032Y-74988333D01*
X110089657Y-74886781D01*
X110040137Y-74770479D01*
X109972123Y-74694452D01*
X109882534Y-74652534D01*
X109768287Y-74638562D01*
X109654041Y-74652534D01*
X109564452Y-74694452D01*
X109496438Y-74770479D01*
X109446918Y-74886781D01*
X109424543Y-74988333D01*
X109411119Y-75111073D01*
X109406644Y-75255000D01*
X109178633Y-75255000D01*
X109160274Y-75237329D01*
X109072945Y-75202397D01*
X109072945Y-75200753D01*
X109150000Y-75167055D01*
X109210205Y-75108699D01*
X109249041Y-75030616D01*
X109261986Y-74937740D01*
X109247652Y-74830036D01*
X109204649Y-74746266D01*
X109132978Y-74686430D01*
X109032638Y-74650529D01*
X108903630Y-74638562D01*
X108768014Y-74646781D01*
X108637329Y-74671438D01*
X108294863Y-74671438D01*
X108294863Y-74501575D01*
X108637329Y-74501575D01*
X111749109Y-74501575D01*
X112091575Y-74501575D01*
X112091575Y-76008425D01*
G37*
D12*
%TO.C,SW6*%
X114520000Y-67520000D02*
X114520000Y-69020000D01*
X115770000Y-71520000D02*
X120270000Y-71520000D01*
X120270000Y-65020000D02*
X115770000Y-65020000D01*
X121520000Y-69020000D02*
X121520000Y-67520000D01*
%TO.C,TP13*%
X160550000Y-57500000D02*
G75*
G02*
X156950000Y-57500000I-1800000J0D01*
G01*
X156950000Y-57500000D02*
G75*
G02*
X160550000Y-57500000I1800000J0D01*
G01*
D11*
%TO.C,kibuzzard-66C2A9AD*%
G36*
X157163699Y-85632192D02*
G01*
X157204795Y-85713699D01*
X156970548Y-86120548D01*
X156967809Y-86006849D01*
X156969635Y-85909437D01*
X156975115Y-85827245D01*
X156984247Y-85760274D01*
X157003254Y-85685616D01*
X157027398Y-85639726D01*
X157099316Y-85608219D01*
X157163699Y-85632192D01*
G37*
G36*
X157229795Y-85932534D02*
G01*
X157230822Y-86006849D01*
X157228996Y-86104262D01*
X157223516Y-86186454D01*
X157214384Y-86253425D01*
X157195377Y-86328082D01*
X157171233Y-86373973D01*
X157099316Y-86405479D01*
X157030822Y-86377397D01*
X156988357Y-86280822D01*
X157226713Y-85868493D01*
X157229795Y-85932534D01*
G37*
G36*
X158325800Y-86634703D02*
G01*
X158040411Y-86634703D01*
X157743151Y-86634703D01*
X157099316Y-86634703D01*
X156715754Y-86634703D01*
X155989727Y-86634703D01*
X155469179Y-86634703D01*
X155183790Y-86634703D01*
X155183790Y-85838356D01*
X155469179Y-85838356D01*
X155469179Y-86506849D01*
X155619863Y-86506849D01*
X155619863Y-85923288D01*
X155713014Y-85893151D01*
X155814384Y-85920548D01*
X155841781Y-86020548D01*
X155841781Y-86506849D01*
X155989727Y-86506849D01*
X156160959Y-86506849D01*
X156311644Y-86506849D01*
X156311644Y-86195890D01*
X156539042Y-86506849D01*
X156715754Y-86506849D01*
X156430822Y-86136986D01*
X156539096Y-86006849D01*
X156825343Y-86006849D01*
X156828920Y-86128387D01*
X156839650Y-86231811D01*
X156857535Y-86317123D01*
X156896062Y-86414041D01*
X156947261Y-86476027D01*
X157014042Y-86509418D01*
X157099316Y-86520548D01*
X157184590Y-86509418D01*
X157251370Y-86476027D01*
X157302569Y-86414041D01*
X157328299Y-86349315D01*
X157547261Y-86349315D01*
X157547261Y-86479452D01*
X157641439Y-86510274D01*
X157743151Y-86520548D01*
X157837063Y-86512024D01*
X157912405Y-86486454D01*
X157969179Y-86443836D01*
X158008752Y-86381431D01*
X158032497Y-86296499D01*
X158040411Y-86189041D01*
X158031644Y-86073151D01*
X158005343Y-85983014D01*
X157961507Y-85918630D01*
X157900137Y-85880000D01*
X157821233Y-85867123D01*
X157756165Y-85875685D01*
X157700685Y-85901370D01*
X157697946Y-85901370D01*
X157707535Y-85624658D01*
X158013014Y-85624658D01*
X158013014Y-85506849D01*
X157567809Y-85506849D01*
X157554110Y-86038356D01*
X157680137Y-86038356D01*
X157727740Y-85997260D01*
X157780137Y-85983562D01*
X157860959Y-86030822D01*
X157880480Y-86094007D01*
X157886987Y-86189041D01*
X157877740Y-86289212D01*
X157850000Y-86354110D01*
X157802055Y-86389555D01*
X157732192Y-86401370D01*
X157640754Y-86388356D01*
X157547261Y-86349315D01*
X157328299Y-86349315D01*
X157341096Y-86317123D01*
X157358981Y-86231811D01*
X157369711Y-86128387D01*
X157373288Y-86006849D01*
X157369711Y-85885312D01*
X157358981Y-85781887D01*
X157341096Y-85696575D01*
X157302569Y-85599658D01*
X157251370Y-85537671D01*
X157184590Y-85504281D01*
X157099316Y-85493151D01*
X157014042Y-85504281D01*
X156947261Y-85537671D01*
X156896062Y-85599658D01*
X156857535Y-85696575D01*
X156839650Y-85781887D01*
X156828920Y-85885312D01*
X156825343Y-86006849D01*
X156539096Y-86006849D01*
X156715754Y-85794521D01*
X156541781Y-85794521D01*
X156311644Y-86082192D01*
X156311644Y-85479452D01*
X156160959Y-85479452D01*
X156160959Y-86506849D01*
X155989727Y-86506849D01*
X155989727Y-86027397D01*
X155975514Y-85905822D01*
X155932877Y-85831507D01*
X155882725Y-85803349D01*
X155808067Y-85786454D01*
X155708905Y-85780822D01*
X155620777Y-85787215D01*
X155540868Y-85806393D01*
X155469179Y-85838356D01*
X155183790Y-85838356D01*
X155183790Y-85365297D01*
X155469179Y-85365297D01*
X158040411Y-85365297D01*
X158325800Y-85365297D01*
X158325800Y-86634703D01*
G37*
D12*
%TO.C,TP7*%
X160800000Y-68500000D02*
G75*
G02*
X157200000Y-68500000I-1800000J0D01*
G01*
X157200000Y-68500000D02*
G75*
G02*
X160800000Y-68500000I1800000J0D01*
G01*
%TO.C,C5*%
X132517164Y-49495000D02*
X132732836Y-49495000D01*
X132517164Y-50215000D02*
X132732836Y-50215000D01*
D11*
%TO.C,kibuzzard-66C2A9A5*%
G36*
X157822602Y-81167123D02*
G01*
X157603424Y-81167123D01*
X157603424Y-81163014D01*
X157819863Y-80719178D01*
X157822602Y-80719178D01*
X157822602Y-81167123D01*
G37*
G36*
X157163698Y-80632192D02*
G01*
X157204794Y-80713699D01*
X156970548Y-81120548D01*
X156967808Y-81006849D01*
X156969634Y-80909437D01*
X156975114Y-80827245D01*
X156984246Y-80760274D01*
X157003253Y-80685616D01*
X157027397Y-80639726D01*
X157099315Y-80608219D01*
X157163698Y-80632192D01*
G37*
G36*
X157229794Y-80932534D02*
G01*
X157230822Y-81006849D01*
X157228995Y-81104262D01*
X157223516Y-81186454D01*
X157214383Y-81253425D01*
X157195376Y-81328082D01*
X157171233Y-81373973D01*
X157099315Y-81405479D01*
X157030822Y-81377397D01*
X156988356Y-81280822D01*
X157226712Y-80868493D01*
X157229794Y-80932534D01*
G37*
G36*
X158371004Y-81634703D02*
G01*
X158085616Y-81634703D01*
X157973287Y-81634703D01*
X157099315Y-81634703D01*
X156715753Y-81634703D01*
X155989726Y-81634703D01*
X155469178Y-81634703D01*
X155183790Y-81634703D01*
X155183790Y-80838356D01*
X155469178Y-80838356D01*
X155469178Y-81506849D01*
X155619863Y-81506849D01*
X155619863Y-80923288D01*
X155713013Y-80893151D01*
X155814383Y-80920548D01*
X155841781Y-81020548D01*
X155841781Y-81506849D01*
X155989726Y-81506849D01*
X156160959Y-81506849D01*
X156311644Y-81506849D01*
X156311644Y-81195890D01*
X156539041Y-81506849D01*
X156715753Y-81506849D01*
X156430822Y-81136986D01*
X156539096Y-81006849D01*
X156825342Y-81006849D01*
X156828919Y-81128387D01*
X156839650Y-81231811D01*
X156857534Y-81317123D01*
X156896061Y-81414041D01*
X156947260Y-81476027D01*
X157014041Y-81509418D01*
X157099315Y-81520548D01*
X157184589Y-81509418D01*
X157251370Y-81476027D01*
X157302568Y-81414041D01*
X157341096Y-81317123D01*
X157358980Y-81231811D01*
X157365692Y-81167123D01*
X157482876Y-81167123D01*
X157482876Y-81284932D01*
X157822602Y-81284932D01*
X157822602Y-81506849D01*
X157973287Y-81506849D01*
X157973287Y-81284932D01*
X158085616Y-81284932D01*
X158085616Y-81167123D01*
X157973287Y-81167123D01*
X157973287Y-80506849D01*
X157807534Y-80506849D01*
X157482876Y-81167123D01*
X157365692Y-81167123D01*
X157369711Y-81128387D01*
X157373287Y-81006849D01*
X157369711Y-80885312D01*
X157358980Y-80781887D01*
X157341096Y-80696575D01*
X157302568Y-80599658D01*
X157251370Y-80537671D01*
X157184589Y-80504281D01*
X157099315Y-80493151D01*
X157014041Y-80504281D01*
X156947260Y-80537671D01*
X156896061Y-80599658D01*
X156857534Y-80696575D01*
X156839650Y-80781887D01*
X156828919Y-80885312D01*
X156825342Y-81006849D01*
X156539096Y-81006849D01*
X156715753Y-80794521D01*
X156541781Y-80794521D01*
X156311644Y-81082192D01*
X156311644Y-80479452D01*
X156160959Y-80479452D01*
X156160959Y-81506849D01*
X155989726Y-81506849D01*
X155989726Y-81027397D01*
X155975513Y-80905822D01*
X155932876Y-80831507D01*
X155882724Y-80803349D01*
X155808067Y-80786454D01*
X155708904Y-80780822D01*
X155620776Y-80787215D01*
X155540867Y-80806393D01*
X155469178Y-80838356D01*
X155183790Y-80838356D01*
X155183790Y-80365297D01*
X155469178Y-80365297D01*
X158085616Y-80365297D01*
X158371004Y-80365297D01*
X158371004Y-81634703D01*
G37*
%TO.C,kibuzzard-66C2A818*%
G36*
X162348288Y-57027226D02*
G01*
X162396575Y-57090411D01*
X162417123Y-57162329D01*
X162429452Y-57265753D01*
X162433562Y-57400685D01*
X162429452Y-57535616D01*
X162417123Y-57639041D01*
X162396575Y-57710959D01*
X162348288Y-57774144D01*
X162277397Y-57795205D01*
X162206507Y-57774144D01*
X162158219Y-57710959D01*
X162137671Y-57639041D01*
X162125342Y-57535616D01*
X162121233Y-57400685D01*
X162125342Y-57265753D01*
X162137671Y-57162329D01*
X162158219Y-57090411D01*
X162206507Y-57027226D01*
X162277397Y-57006164D01*
X162348288Y-57027226D01*
G37*
G36*
X165088014Y-57027226D02*
G01*
X165136301Y-57090411D01*
X165156849Y-57162329D01*
X165169178Y-57265753D01*
X165173288Y-57400685D01*
X165169178Y-57535616D01*
X165156849Y-57639041D01*
X165136301Y-57710959D01*
X165088014Y-57774144D01*
X165017123Y-57795205D01*
X164946233Y-57774144D01*
X164897945Y-57710959D01*
X164877397Y-57639041D01*
X164865068Y-57535616D01*
X164860959Y-57400685D01*
X164865068Y-57265753D01*
X164877397Y-57162329D01*
X164897945Y-57090411D01*
X164946233Y-57027226D01*
X165017123Y-57006164D01*
X165088014Y-57027226D01*
G37*
G36*
X166953196Y-58227169D02*
G01*
X166667808Y-58227169D01*
X166463699Y-58227169D01*
X165702055Y-58227169D01*
X165017123Y-58227169D01*
X164051370Y-58227169D01*
X163713014Y-58227169D01*
X162941781Y-58227169D01*
X162277397Y-58227169D01*
X161852740Y-58227169D01*
X161332192Y-58227169D01*
X161046804Y-58227169D01*
X161046804Y-58113014D01*
X164051370Y-58113014D01*
X164613014Y-58113014D01*
X164613014Y-58014384D01*
X164051370Y-58014384D01*
X164051370Y-58113014D01*
X161046804Y-58113014D01*
X161046804Y-57232192D01*
X161332192Y-57232192D01*
X161332192Y-57900685D01*
X161482877Y-57900685D01*
X161482877Y-57317123D01*
X161576027Y-57286986D01*
X161677397Y-57314384D01*
X161704795Y-57414384D01*
X161704795Y-57900685D01*
X161852740Y-57900685D01*
X161852740Y-57421233D01*
X161850338Y-57400685D01*
X161976027Y-57400685D01*
X161979756Y-57520624D01*
X161990944Y-57622907D01*
X162009589Y-57707534D01*
X162050856Y-57804452D01*
X162107534Y-57867808D01*
X162182192Y-57902740D01*
X162277397Y-57914384D01*
X162372603Y-57902740D01*
X162447260Y-57867808D01*
X162503938Y-57804452D01*
X162545205Y-57707534D01*
X162563851Y-57622907D01*
X162575038Y-57520624D01*
X162578767Y-57400685D01*
X162575038Y-57280746D01*
X162563851Y-57178463D01*
X162556976Y-57147260D01*
X162702055Y-57147260D01*
X162716267Y-57244521D01*
X162758904Y-57325342D01*
X162806012Y-57372831D01*
X162871537Y-57418493D01*
X162955479Y-57462329D01*
X163014212Y-57497603D01*
X163053425Y-57537671D01*
X163075514Y-57586301D01*
X163082877Y-57647260D01*
X163073288Y-57711130D01*
X163044521Y-57757534D01*
X162998630Y-57785788D01*
X162937671Y-57795205D01*
X162857458Y-57785312D01*
X162781202Y-57755632D01*
X162708904Y-57706164D01*
X162708904Y-57848630D01*
X162779224Y-57885160D01*
X162856849Y-57907078D01*
X162941781Y-57914384D01*
X163047808Y-57903425D01*
X163130274Y-57870548D01*
X163189178Y-57815753D01*
X163224521Y-57739041D01*
X163236301Y-57640411D01*
X163221575Y-57534589D01*
X163177397Y-57450000D01*
X163127321Y-57401142D01*
X163106155Y-57386986D01*
X163366438Y-57386986D01*
X163371854Y-57510595D01*
X163388099Y-57617723D01*
X163415176Y-57708369D01*
X163453082Y-57782534D01*
X163501819Y-57840218D01*
X163561387Y-57881421D01*
X163631785Y-57906143D01*
X163713014Y-57914384D01*
X163804452Y-57905822D01*
X163886986Y-57880137D01*
X163886986Y-57754110D01*
X163808904Y-57785959D01*
X163736301Y-57796575D01*
X163669330Y-57785198D01*
X163614536Y-57751065D01*
X163571918Y-57694178D01*
X163541476Y-57614536D01*
X163523212Y-57512139D01*
X163517789Y-57400685D01*
X164715753Y-57400685D01*
X164719482Y-57520624D01*
X164730670Y-57622907D01*
X164749315Y-57707534D01*
X164790582Y-57804452D01*
X164847260Y-57867808D01*
X164921918Y-57902740D01*
X165017123Y-57914384D01*
X165112329Y-57902740D01*
X165186986Y-57867808D01*
X165243664Y-57804452D01*
X165284932Y-57707534D01*
X165299721Y-57640411D01*
X165428082Y-57640411D01*
X165435160Y-57729604D01*
X165456393Y-57799924D01*
X165491781Y-57851370D01*
X165543455Y-57886377D01*
X165613546Y-57907382D01*
X165702055Y-57914384D01*
X165790563Y-57907382D01*
X165860654Y-57886377D01*
X165912329Y-57851370D01*
X165947717Y-57799924D01*
X165968950Y-57729604D01*
X165976027Y-57640411D01*
X165976027Y-57019863D01*
X166106164Y-57019863D01*
X166310274Y-57019863D01*
X166310274Y-57900685D01*
X166463699Y-57900685D01*
X166463699Y-57019863D01*
X166667808Y-57019863D01*
X166667808Y-56900685D01*
X166106164Y-56900685D01*
X166106164Y-57019863D01*
X165976027Y-57019863D01*
X165976027Y-56900685D01*
X165826712Y-56900685D01*
X165826712Y-57613014D01*
X165819863Y-57702568D01*
X165799315Y-57757534D01*
X165704795Y-57795205D01*
X165647603Y-57785616D01*
X165610274Y-57756849D01*
X165589726Y-57701712D01*
X165582877Y-57613014D01*
X165582877Y-56900685D01*
X165428082Y-56900685D01*
X165428082Y-57640411D01*
X165299721Y-57640411D01*
X165303577Y-57622907D01*
X165314764Y-57520624D01*
X165318493Y-57400685D01*
X165314764Y-57280746D01*
X165303577Y-57178463D01*
X165284932Y-57093836D01*
X165243664Y-56996918D01*
X165186986Y-56933562D01*
X165112329Y-56898630D01*
X165017123Y-56886986D01*
X164921918Y-56898630D01*
X164847260Y-56933562D01*
X164790582Y-56996918D01*
X164749315Y-57093836D01*
X164730670Y-57178463D01*
X164719482Y-57280746D01*
X164715753Y-57400685D01*
X163517789Y-57400685D01*
X163517123Y-57386986D01*
X163522641Y-57271043D01*
X163539193Y-57176180D01*
X163566781Y-57102397D01*
X163605403Y-57049696D01*
X163655061Y-57018075D01*
X163715753Y-57007534D01*
X163747260Y-57013014D01*
X163747260Y-57226712D01*
X163893836Y-57226712D01*
X163893836Y-56917123D01*
X163806507Y-56894521D01*
X163708904Y-56886986D01*
X163628639Y-56894799D01*
X163559075Y-56918236D01*
X163500214Y-56957299D01*
X163452055Y-57011986D01*
X163414598Y-57082299D01*
X163387842Y-57168236D01*
X163371789Y-57269799D01*
X163366438Y-57386986D01*
X163106155Y-57386986D01*
X163055632Y-57353196D01*
X162962329Y-57306164D01*
X162901446Y-57265221D01*
X162864916Y-57209970D01*
X162852740Y-57140411D01*
X162862329Y-57084247D01*
X162891096Y-57041781D01*
X162936644Y-57015068D01*
X162996575Y-57006164D01*
X163103082Y-57020890D01*
X163208904Y-57065068D01*
X163208904Y-56928082D01*
X163135236Y-56905251D01*
X163058524Y-56891553D01*
X162978767Y-56886986D01*
X162896956Y-56894597D01*
X162828691Y-56917428D01*
X162773973Y-56955479D01*
X162720034Y-57037671D01*
X162702055Y-57147260D01*
X162556976Y-57147260D01*
X162545205Y-57093836D01*
X162503938Y-56996918D01*
X162447260Y-56933562D01*
X162372603Y-56898630D01*
X162277397Y-56886986D01*
X162182192Y-56898630D01*
X162107534Y-56933562D01*
X162050856Y-56996918D01*
X162009589Y-57093836D01*
X161990944Y-57178463D01*
X161979756Y-57280746D01*
X161976027Y-57400685D01*
X161850338Y-57400685D01*
X161838527Y-57299658D01*
X161795890Y-57225342D01*
X161745738Y-57197184D01*
X161671081Y-57180289D01*
X161571918Y-57174658D01*
X161483790Y-57181050D01*
X161403881Y-57200228D01*
X161332192Y-57232192D01*
X161046804Y-57232192D01*
X161046804Y-56772831D01*
X161332192Y-56772831D01*
X166667808Y-56772831D01*
X166953196Y-56772831D01*
X166953196Y-58227169D01*
G37*
D12*
%TO.C,TP15*%
X150800000Y-57500000D02*
G75*
G02*
X147200000Y-57500000I-1800000J0D01*
G01*
X147200000Y-57500000D02*
G75*
G02*
X150800000Y-57500000I1800000J0D01*
G01*
%TO.C,R1*%
X137646359Y-58320000D02*
X137953641Y-58320000D01*
X137646359Y-59080000D02*
X137953641Y-59080000D01*
%TO.C,C4*%
X139692164Y-59740000D02*
X139907836Y-59740000D01*
X139692164Y-60460000D02*
X139907836Y-60460000D01*
D11*
%TO.C,kibuzzard-66AE2B01*%
G36*
X145812945Y-84319521D02*
G01*
X145875000Y-84358356D01*
X145911986Y-84425137D01*
X145924315Y-84521918D01*
X145911165Y-84623014D01*
X145871713Y-84689589D01*
X145801028Y-84726575D01*
X145694178Y-84738904D01*
X145630069Y-84738904D01*
X145630069Y-84319726D01*
X145725411Y-84306575D01*
X145812945Y-84319521D01*
G37*
G36*
X149730343Y-85533425D02*
G01*
X149387877Y-85533425D01*
X149142945Y-85533425D01*
X148519932Y-85533425D01*
X147382397Y-85533425D01*
X146876096Y-85533425D01*
X146136370Y-85533425D01*
X145445959Y-85533425D01*
X145103493Y-85533425D01*
X145103493Y-84196438D01*
X145445959Y-84196438D01*
X145445959Y-85380000D01*
X145630069Y-85380000D01*
X145630069Y-84881918D01*
X145694178Y-84881918D01*
X145793630Y-84913973D01*
X145825069Y-84960205D01*
X145851986Y-85034795D01*
X145947329Y-85380000D01*
X146136370Y-85380000D01*
X146300754Y-85380000D01*
X146876096Y-85380000D01*
X146876096Y-85236986D01*
X146484863Y-85236986D01*
X146484863Y-84804658D01*
X146859658Y-84804658D01*
X146859658Y-84664932D01*
X146484863Y-84664932D01*
X146484863Y-84475890D01*
X147094726Y-84475890D01*
X147111781Y-84592603D01*
X147162945Y-84689589D01*
X147219475Y-84746575D01*
X147298105Y-84801370D01*
X147398836Y-84853973D01*
X147469315Y-84896301D01*
X147516370Y-84944384D01*
X147542877Y-85002740D01*
X147551713Y-85075890D01*
X147540206Y-85152534D01*
X147505685Y-85208219D01*
X147450617Y-85242123D01*
X147377466Y-85253425D01*
X147281210Y-85241553D01*
X147189703Y-85205936D01*
X147102945Y-85146575D01*
X147102945Y-85317534D01*
X147187329Y-85361370D01*
X147280480Y-85387671D01*
X147382397Y-85396438D01*
X147509630Y-85383288D01*
X147517877Y-85380000D01*
X147944589Y-85380000D01*
X148519932Y-85380000D01*
X148519932Y-85236986D01*
X148128699Y-85236986D01*
X148128699Y-84804658D01*
X148503493Y-84804658D01*
X148503493Y-84664932D01*
X148128699Y-84664932D01*
X148128699Y-84323014D01*
X148519932Y-84323014D01*
X148713904Y-84323014D01*
X148958836Y-84323014D01*
X148958836Y-85380000D01*
X149142945Y-85380000D01*
X149142945Y-84323014D01*
X149387877Y-84323014D01*
X149387877Y-84180000D01*
X148713904Y-84180000D01*
X148713904Y-84323014D01*
X148519932Y-84323014D01*
X148519932Y-84180000D01*
X147944589Y-84180000D01*
X147944589Y-85380000D01*
X147517877Y-85380000D01*
X147608589Y-85343836D01*
X147679274Y-85278082D01*
X147721685Y-85186027D01*
X147735822Y-85067671D01*
X147718151Y-84940685D01*
X147665137Y-84839178D01*
X147605046Y-84780548D01*
X147519018Y-84723014D01*
X147407055Y-84666575D01*
X147333996Y-84617443D01*
X147290160Y-84551142D01*
X147275548Y-84467671D01*
X147287055Y-84400274D01*
X147321576Y-84349315D01*
X147376233Y-84317260D01*
X147448151Y-84306575D01*
X147575959Y-84324247D01*
X147702945Y-84377260D01*
X147702945Y-84212877D01*
X147614544Y-84185479D01*
X147522489Y-84169041D01*
X147426781Y-84163562D01*
X147328607Y-84172694D01*
X147246690Y-84200091D01*
X147181028Y-84245753D01*
X147116302Y-84344384D01*
X147094726Y-84475890D01*
X146484863Y-84475890D01*
X146484863Y-84323014D01*
X146876096Y-84323014D01*
X146876096Y-84180000D01*
X146300754Y-84180000D01*
X146300754Y-85380000D01*
X146136370Y-85380000D01*
X146034452Y-85044658D01*
X145981850Y-84915616D01*
X145919384Y-84834247D01*
X145919384Y-84830959D01*
X145999932Y-84783904D01*
X146057466Y-84716712D01*
X146091986Y-84629384D01*
X146103493Y-84521918D01*
X146093356Y-84409132D01*
X146062945Y-84318447D01*
X146012260Y-84249863D01*
X145939840Y-84201918D01*
X145844224Y-84173151D01*
X145725411Y-84163562D01*
X145630799Y-84167215D01*
X145537649Y-84178174D01*
X145445959Y-84196438D01*
X145103493Y-84196438D01*
X145103493Y-84026575D01*
X145445959Y-84026575D01*
X149387877Y-84026575D01*
X149730343Y-84026575D01*
X149730343Y-85533425D01*
G37*
%TO.C,kibuzzard-66AE2A3F*%
G36*
X109840616Y-59573630D02*
G01*
X109889931Y-59671438D01*
X109608835Y-60159658D01*
X109605548Y-60023219D01*
X109607739Y-59906324D01*
X109614315Y-59807694D01*
X109625274Y-59727329D01*
X109648082Y-59637740D01*
X109677054Y-59582671D01*
X109763356Y-59544863D01*
X109840616Y-59573630D01*
G37*
G36*
X109919931Y-59934041D02*
G01*
X109921164Y-60023219D01*
X109918972Y-60140114D01*
X109912397Y-60238744D01*
X109901438Y-60319110D01*
X109878630Y-60408699D01*
X109849657Y-60463767D01*
X109763356Y-60501575D01*
X109681164Y-60467877D01*
X109630205Y-60351986D01*
X109916232Y-59857192D01*
X109919931Y-59934041D01*
G37*
G36*
X111106917Y-60776644D02*
G01*
X110764452Y-60776644D01*
X110580342Y-60776644D01*
X109763356Y-60776644D01*
X109303082Y-60776644D01*
X108637328Y-60776644D01*
X108294863Y-60776644D01*
X108294863Y-60623219D01*
X108637328Y-60623219D01*
X108818150Y-60623219D01*
X108818150Y-60250068D01*
X109091027Y-60623219D01*
X109303082Y-60623219D01*
X108961164Y-60179384D01*
X109091093Y-60023219D01*
X109434589Y-60023219D01*
X109438881Y-60169064D01*
X109451758Y-60293174D01*
X109473219Y-60395548D01*
X109519452Y-60511849D01*
X109580890Y-60586233D01*
X109661027Y-60626301D01*
X109763356Y-60639658D01*
X109865685Y-60626301D01*
X109945822Y-60586233D01*
X110007260Y-60511849D01*
X110053493Y-60395548D01*
X110074954Y-60293174D01*
X110087831Y-60169064D01*
X110092123Y-60023219D01*
X110087831Y-59877374D01*
X110074954Y-59753265D01*
X110053493Y-59650890D01*
X110029641Y-59590890D01*
X110294315Y-59590890D01*
X110294315Y-59751986D01*
X110577054Y-59594178D01*
X110580342Y-59595822D01*
X110580342Y-60623219D01*
X110764452Y-60623219D01*
X110764452Y-59423219D01*
X110581986Y-59423219D01*
X110294315Y-59590890D01*
X110029641Y-59590890D01*
X110007260Y-59534589D01*
X109945822Y-59460205D01*
X109865685Y-59420137D01*
X109763356Y-59406781D01*
X109661027Y-59420137D01*
X109580890Y-59460205D01*
X109519452Y-59534589D01*
X109473219Y-59650890D01*
X109451758Y-59753265D01*
X109438881Y-59877374D01*
X109434589Y-60023219D01*
X109091093Y-60023219D01*
X109303082Y-59768425D01*
X109094315Y-59768425D01*
X108818150Y-60113630D01*
X108818150Y-59390342D01*
X108637328Y-59390342D01*
X108637328Y-60623219D01*
X108294863Y-60623219D01*
X108294863Y-59253356D01*
X108637328Y-59253356D01*
X110764452Y-59253356D01*
X111106917Y-59253356D01*
X111106917Y-60776644D01*
G37*
%TO.C,kibuzzard-66C2A89E*%
G36*
X153218836Y-51126712D02*
G01*
X153284247Y-51190411D01*
X153312405Y-51261035D01*
X153329300Y-51359665D01*
X153334932Y-51486301D01*
X153329376Y-51626180D01*
X153312709Y-51733486D01*
X153284932Y-51808219D01*
X153219692Y-51873973D01*
X153123973Y-51895890D01*
X153062329Y-51883562D01*
X153062329Y-51117808D01*
X153123973Y-51105479D01*
X153218836Y-51126712D01*
G37*
G36*
X153769635Y-52127854D02*
G01*
X153484247Y-52127854D01*
X153123973Y-52127854D01*
X152234932Y-52127854D01*
X151858219Y-52127854D01*
X151515753Y-52127854D01*
X151230365Y-52127854D01*
X151230365Y-51493151D01*
X151515753Y-51493151D01*
X151521104Y-51615154D01*
X151537158Y-51720890D01*
X151563913Y-51810360D01*
X151601370Y-51883562D01*
X151649529Y-51940497D01*
X151708390Y-51981164D01*
X151777954Y-52005565D01*
X151858219Y-52013699D01*
X151940107Y-52008371D01*
X151980768Y-52000000D01*
X152234932Y-52000000D01*
X152385616Y-52000000D01*
X152385616Y-51273973D01*
X152388356Y-51273973D01*
X152602055Y-52000000D01*
X152755479Y-52000000D01*
X152755479Y-51013699D01*
X152908904Y-51013699D01*
X152908904Y-51986301D01*
X153011986Y-52006849D01*
X153123973Y-52013699D01*
X153237671Y-52001884D01*
X153326712Y-51966438D01*
X153394349Y-51901884D01*
X153443836Y-51802740D01*
X153466286Y-51715830D01*
X153479756Y-51610350D01*
X153484247Y-51486301D01*
X153478981Y-51358262D01*
X153463185Y-51250856D01*
X153436858Y-51164084D01*
X153400000Y-51097945D01*
X153331887Y-51035921D01*
X153239878Y-50998706D01*
X153123973Y-50986301D01*
X153016096Y-50993151D01*
X152908904Y-51013699D01*
X152755479Y-51013699D01*
X152755479Y-51000000D01*
X152611644Y-51000000D01*
X152611644Y-51726027D01*
X152607534Y-51726027D01*
X152393836Y-51000000D01*
X152234932Y-51000000D01*
X152234932Y-52000000D01*
X151980768Y-52000000D01*
X152017732Y-51992390D01*
X152091096Y-51965753D01*
X152091096Y-51404110D01*
X151771918Y-51404110D01*
X151771918Y-51520548D01*
X151944521Y-51520548D01*
X151944521Y-51879452D01*
X151862329Y-51895890D01*
X151778767Y-51872603D01*
X151717123Y-51802740D01*
X151688965Y-51726941D01*
X151672070Y-51623744D01*
X151666438Y-51493151D01*
X151672374Y-51365525D01*
X151690183Y-51265753D01*
X151719863Y-51193836D01*
X151788014Y-51128596D01*
X151885616Y-51106849D01*
X151969521Y-51115068D01*
X152056849Y-51139726D01*
X152056849Y-51016438D01*
X151972945Y-50993836D01*
X151885616Y-50986301D01*
X151772603Y-50999848D01*
X151680137Y-51040487D01*
X151608219Y-51108219D01*
X151567765Y-51177997D01*
X151538870Y-51265411D01*
X151521533Y-51370462D01*
X151515753Y-51493151D01*
X151230365Y-51493151D01*
X151230365Y-50872146D01*
X151515753Y-50872146D01*
X153484247Y-50872146D01*
X153769635Y-50872146D01*
X153769635Y-52127854D01*
G37*
D12*
%TO.C,D1*%
X134990000Y-52880000D02*
X134990000Y-56740000D01*
X136990000Y-52880000D02*
X134990000Y-52880000D01*
X136990000Y-52880000D02*
X136990000Y-56740000D01*
D11*
%TO.C,kibuzzard-66C2A7CC*%
G36*
X161638584Y-51020472D02*
G01*
X161689269Y-51067504D01*
X161706164Y-51145890D01*
X161695205Y-51217979D01*
X161662329Y-51267123D01*
X161606164Y-51295377D01*
X161525342Y-51304795D01*
X161485616Y-51304795D01*
X161485616Y-51015753D01*
X161554109Y-51004795D01*
X161638584Y-51020472D01*
G37*
G36*
X161627397Y-51432534D02*
G01*
X161685616Y-51466438D01*
X161719520Y-51525000D01*
X161730822Y-51610274D01*
X161720377Y-51694349D01*
X161689041Y-51752055D01*
X161636473Y-51785445D01*
X161562329Y-51796575D01*
X161485616Y-51785616D01*
X161485616Y-51421233D01*
X161543151Y-51421233D01*
X161627397Y-51432534D01*
G37*
G36*
X165055822Y-51016952D02*
G01*
X165107534Y-51049315D01*
X165138356Y-51104966D01*
X165148630Y-51185616D01*
X165137671Y-51269863D01*
X165104794Y-51325342D01*
X165045890Y-51356164D01*
X164956849Y-51366438D01*
X164903425Y-51366438D01*
X164903425Y-51017123D01*
X164982877Y-51006164D01*
X165055822Y-51016952D01*
G37*
G36*
X162345548Y-51027226D02*
G01*
X162393836Y-51090411D01*
X162414383Y-51162329D01*
X162426712Y-51265753D01*
X162430822Y-51400685D01*
X162426712Y-51535616D01*
X162414383Y-51639041D01*
X162393836Y-51710959D01*
X162345548Y-51774144D01*
X162274657Y-51795205D01*
X162203767Y-51774144D01*
X162155479Y-51710959D01*
X162134931Y-51639041D01*
X162122603Y-51535616D01*
X162118493Y-51400685D01*
X162122603Y-51265753D01*
X162134931Y-51162329D01*
X162155479Y-51090411D01*
X162203767Y-51027226D01*
X162274657Y-51006164D01*
X162345548Y-51027226D01*
G37*
G36*
X163030479Y-51027226D02*
G01*
X163078767Y-51090411D01*
X163099315Y-51162329D01*
X163111644Y-51265753D01*
X163115753Y-51400685D01*
X163111644Y-51535616D01*
X163099315Y-51639041D01*
X163078767Y-51710959D01*
X163030479Y-51774144D01*
X162959589Y-51795205D01*
X162888699Y-51774144D01*
X162840411Y-51710959D01*
X162819863Y-51639041D01*
X162807534Y-51535616D01*
X162803425Y-51400685D01*
X162807534Y-51265753D01*
X162819863Y-51162329D01*
X162840411Y-51090411D01*
X162888699Y-51027226D01*
X162959589Y-51006164D01*
X163030479Y-51027226D01*
G37*
G36*
X166231278Y-52227169D02*
G01*
X165945890Y-52227169D01*
X165765068Y-52227169D01*
X165325342Y-52227169D01*
X164048630Y-52227169D01*
X163721233Y-52227169D01*
X162959589Y-52227169D01*
X162274657Y-52227169D01*
X161562329Y-52227169D01*
X161332192Y-52227169D01*
X161046804Y-52227169D01*
X161046804Y-52113014D01*
X164048630Y-52113014D01*
X164610274Y-52113014D01*
X164610274Y-52014384D01*
X164048630Y-52014384D01*
X164048630Y-52113014D01*
X161046804Y-52113014D01*
X161046804Y-50914384D01*
X161332192Y-50914384D01*
X161332192Y-51886986D01*
X161407686Y-51902207D01*
X161484399Y-51911339D01*
X161562329Y-51914384D01*
X161659437Y-51906012D01*
X161738889Y-51880898D01*
X161800685Y-51839041D01*
X161844825Y-51780441D01*
X161871309Y-51705099D01*
X161880137Y-51613014D01*
X161866952Y-51521233D01*
X161827397Y-51443151D01*
X161783278Y-51400685D01*
X161973288Y-51400685D01*
X161977017Y-51520624D01*
X161988204Y-51622907D01*
X162006849Y-51707534D01*
X162048116Y-51804452D01*
X162104794Y-51867808D01*
X162179452Y-51902740D01*
X162274657Y-51914384D01*
X162369863Y-51902740D01*
X162444520Y-51867808D01*
X162501199Y-51804452D01*
X162542466Y-51707534D01*
X162561111Y-51622907D01*
X162572298Y-51520624D01*
X162576027Y-51400685D01*
X162658219Y-51400685D01*
X162661948Y-51520624D01*
X162673135Y-51622907D01*
X162691781Y-51707534D01*
X162733048Y-51804452D01*
X162789726Y-51867808D01*
X162864383Y-51902740D01*
X162959589Y-51914384D01*
X163054794Y-51902740D01*
X163129452Y-51867808D01*
X163186130Y-51804452D01*
X163227397Y-51707534D01*
X163246043Y-51622907D01*
X163257230Y-51520624D01*
X163260959Y-51400685D01*
X163257230Y-51280746D01*
X163246043Y-51178463D01*
X163227397Y-51093836D01*
X163195900Y-51019863D01*
X163363699Y-51019863D01*
X163567808Y-51019863D01*
X163567808Y-51900685D01*
X163721233Y-51900685D01*
X163721233Y-51019863D01*
X163925342Y-51019863D01*
X163925342Y-50914384D01*
X164750000Y-50914384D01*
X164750000Y-51900685D01*
X164903425Y-51900685D01*
X164903425Y-51485616D01*
X164956849Y-51485616D01*
X165039726Y-51512329D01*
X165065925Y-51550856D01*
X165088356Y-51613014D01*
X165167808Y-51900685D01*
X165325342Y-51900685D01*
X165240411Y-51621233D01*
X165196575Y-51513699D01*
X165144520Y-51445890D01*
X165144520Y-51443151D01*
X165211644Y-51403938D01*
X165226159Y-51386986D01*
X165418493Y-51386986D01*
X165423908Y-51510595D01*
X165440154Y-51617723D01*
X165467230Y-51708369D01*
X165505137Y-51782534D01*
X165553874Y-51840218D01*
X165613442Y-51881421D01*
X165683840Y-51906143D01*
X165765068Y-51914384D01*
X165856507Y-51905822D01*
X165939041Y-51880137D01*
X165939041Y-51754110D01*
X165860959Y-51785959D01*
X165788356Y-51796575D01*
X165721385Y-51785198D01*
X165666590Y-51751065D01*
X165623973Y-51694178D01*
X165593531Y-51614536D01*
X165575266Y-51512139D01*
X165569178Y-51386986D01*
X165574695Y-51271043D01*
X165591248Y-51176180D01*
X165618836Y-51102397D01*
X165657458Y-51049696D01*
X165707116Y-51018075D01*
X165767808Y-51007534D01*
X165799315Y-51013014D01*
X165799315Y-51226712D01*
X165945890Y-51226712D01*
X165945890Y-50917123D01*
X165858562Y-50894521D01*
X165760959Y-50886986D01*
X165680693Y-50894799D01*
X165611130Y-50918236D01*
X165552269Y-50957299D01*
X165504109Y-51011986D01*
X165466652Y-51082299D01*
X165439897Y-51168236D01*
X165423844Y-51269799D01*
X165418493Y-51386986D01*
X165226159Y-51386986D01*
X165259589Y-51347945D01*
X165288356Y-51275171D01*
X165297945Y-51185616D01*
X165289498Y-51091629D01*
X165264155Y-51016058D01*
X165221918Y-50958904D01*
X165161568Y-50918950D01*
X165081887Y-50894977D01*
X164982877Y-50886986D01*
X164904033Y-50890030D01*
X164826408Y-50899163D01*
X164750000Y-50914384D01*
X163925342Y-50914384D01*
X163925342Y-50900685D01*
X163363699Y-50900685D01*
X163363699Y-51019863D01*
X163195900Y-51019863D01*
X163186130Y-50996918D01*
X163129452Y-50933562D01*
X163054794Y-50898630D01*
X162959589Y-50886986D01*
X162864383Y-50898630D01*
X162789726Y-50933562D01*
X162733048Y-50996918D01*
X162691781Y-51093836D01*
X162673135Y-51178463D01*
X162661948Y-51280746D01*
X162658219Y-51400685D01*
X162576027Y-51400685D01*
X162572298Y-51280746D01*
X162561111Y-51178463D01*
X162542466Y-51093836D01*
X162501199Y-50996918D01*
X162444520Y-50933562D01*
X162369863Y-50898630D01*
X162274657Y-50886986D01*
X162179452Y-50898630D01*
X162104794Y-50933562D01*
X162048116Y-50996918D01*
X162006849Y-51093836D01*
X161988204Y-51178463D01*
X161977017Y-51280746D01*
X161973288Y-51400685D01*
X161783278Y-51400685D01*
X161767979Y-51385959D01*
X161695205Y-51356849D01*
X161695205Y-51355479D01*
X161759418Y-51327397D01*
X161809589Y-51278767D01*
X161841952Y-51213699D01*
X161852740Y-51136301D01*
X161840794Y-51046548D01*
X161804959Y-50976740D01*
X161745233Y-50926877D01*
X161661616Y-50896959D01*
X161554109Y-50886986D01*
X161441096Y-50893836D01*
X161332192Y-50914384D01*
X161046804Y-50914384D01*
X161046804Y-50772831D01*
X161332192Y-50772831D01*
X165945890Y-50772831D01*
X166231278Y-50772831D01*
X166231278Y-52227169D01*
G37*
%TO.C,kibuzzard-66C2A99F*%
G36*
X157163698Y-75632192D02*
G01*
X157204794Y-75713699D01*
X156970548Y-76120548D01*
X156967808Y-76006849D01*
X156969635Y-75909437D01*
X156975114Y-75827245D01*
X156984246Y-75760274D01*
X157003253Y-75685616D01*
X157027397Y-75639726D01*
X157099315Y-75608219D01*
X157163698Y-75632192D01*
G37*
G36*
X157229794Y-75932534D02*
G01*
X157230822Y-76006849D01*
X157228995Y-76104262D01*
X157223516Y-76186454D01*
X157214383Y-76253425D01*
X157195377Y-76328082D01*
X157171233Y-76373973D01*
X157099315Y-76405479D01*
X157030822Y-76377397D01*
X156988356Y-76280822D01*
X157226712Y-75868493D01*
X157229794Y-75932534D01*
G37*
G36*
X158332648Y-76634703D02*
G01*
X158047260Y-76634703D01*
X157739041Y-76634703D01*
X157099315Y-76634703D01*
X156715753Y-76634703D01*
X155989726Y-76634703D01*
X155469178Y-76634703D01*
X155183790Y-76634703D01*
X155183790Y-75838356D01*
X155469178Y-75838356D01*
X155469178Y-76506849D01*
X155619863Y-76506849D01*
X155619863Y-75923288D01*
X155713014Y-75893151D01*
X155814383Y-75920548D01*
X155841781Y-76020548D01*
X155841781Y-76506849D01*
X155989726Y-76506849D01*
X156160959Y-76506849D01*
X156311644Y-76506849D01*
X156311644Y-76195890D01*
X156539041Y-76506849D01*
X156715753Y-76506849D01*
X156430822Y-76136986D01*
X156539096Y-76006849D01*
X156825342Y-76006849D01*
X156828919Y-76128387D01*
X156839650Y-76231811D01*
X156857534Y-76317123D01*
X156896061Y-76414041D01*
X156947260Y-76476027D01*
X157014041Y-76509418D01*
X157099315Y-76520548D01*
X157184589Y-76509418D01*
X157251370Y-76476027D01*
X157302568Y-76414041D01*
X157329933Y-76345205D01*
X157519863Y-76345205D01*
X157519863Y-76476712D01*
X157627397Y-76509589D01*
X157739041Y-76520548D01*
X157833219Y-76512177D01*
X157910274Y-76487062D01*
X157970205Y-76445205D01*
X158013014Y-76386606D01*
X158038698Y-76311263D01*
X158047260Y-76219178D01*
X158036130Y-76122945D01*
X158002740Y-76049315D01*
X157947089Y-75998288D01*
X157869178Y-75969863D01*
X157869178Y-75968493D01*
X157941096Y-75933647D01*
X157992466Y-75881164D01*
X158023287Y-75811045D01*
X158033561Y-75723288D01*
X158016438Y-75626884D01*
X157965068Y-75554110D01*
X157881849Y-75508390D01*
X157769178Y-75493151D01*
X157694901Y-75498478D01*
X157618189Y-75514460D01*
X157539041Y-75541096D01*
X157539041Y-75668493D01*
X157645205Y-75625342D01*
X157741781Y-75610959D01*
X157820928Y-75625571D01*
X157868417Y-75669406D01*
X157884246Y-75742466D01*
X157871918Y-75819521D01*
X157834931Y-75872603D01*
X157770205Y-75903425D01*
X157674657Y-75913699D01*
X157647260Y-75913699D01*
X157647260Y-76034247D01*
X157674657Y-76034247D01*
X157777397Y-76044692D01*
X157844520Y-76076027D01*
X157881507Y-76130993D01*
X157893835Y-76212329D01*
X157883048Y-76295034D01*
X157850685Y-76354110D01*
X157796746Y-76389555D01*
X157721233Y-76401370D01*
X157619520Y-76387329D01*
X157519863Y-76345205D01*
X157329933Y-76345205D01*
X157341096Y-76317123D01*
X157358980Y-76231811D01*
X157369711Y-76128387D01*
X157373287Y-76006849D01*
X157369711Y-75885312D01*
X157358980Y-75781887D01*
X157341096Y-75696575D01*
X157302568Y-75599658D01*
X157251370Y-75537671D01*
X157184589Y-75504281D01*
X157099315Y-75493151D01*
X157014041Y-75504281D01*
X156947260Y-75537671D01*
X156896061Y-75599658D01*
X156857534Y-75696575D01*
X156839650Y-75781887D01*
X156828919Y-75885312D01*
X156825342Y-76006849D01*
X156539096Y-76006849D01*
X156715753Y-75794521D01*
X156541781Y-75794521D01*
X156311644Y-76082192D01*
X156311644Y-75479452D01*
X156160959Y-75479452D01*
X156160959Y-76506849D01*
X155989726Y-76506849D01*
X155989726Y-76027397D01*
X155975514Y-75905822D01*
X155932877Y-75831507D01*
X155882724Y-75803349D01*
X155808067Y-75786454D01*
X155708904Y-75780822D01*
X155620776Y-75787215D01*
X155540867Y-75806393D01*
X155469178Y-75838356D01*
X155183790Y-75838356D01*
X155183790Y-75365297D01*
X155469178Y-75365297D01*
X158047260Y-75365297D01*
X158332648Y-75365297D01*
X158332648Y-76634703D01*
G37*
D12*
%TO.C,SW2*%
X136745000Y-75775000D02*
X136745000Y-77275000D01*
X137995000Y-79775000D02*
X142495000Y-79775000D01*
X142495000Y-73275000D02*
X137995000Y-73275000D01*
X143745000Y-77275000D02*
X143745000Y-75775000D01*
%TO.C,C2*%
X132517164Y-61560000D02*
X132732836Y-61560000D01*
X132517164Y-62280000D02*
X132732836Y-62280000D01*
%TO.C,SW8*%
X114520000Y-84030000D02*
X114520000Y-85530000D01*
X115770000Y-88030000D02*
X120270000Y-88030000D01*
X120270000Y-81530000D02*
X115770000Y-81530000D01*
X121520000Y-85530000D02*
X121520000Y-84030000D01*
%TO.C,SW7*%
X114520000Y-75775000D02*
X114520000Y-77275000D01*
X115770000Y-79775000D02*
X120270000Y-79775000D01*
X120270000Y-73275000D02*
X115770000Y-73275000D01*
X121520000Y-77275000D02*
X121520000Y-75775000D01*
%TO.C,C1*%
X139907836Y-54890000D02*
X139692164Y-54890000D01*
X139907836Y-55610000D02*
X139692164Y-55610000D01*
%TO.C,TP4*%
X154800000Y-81000000D02*
G75*
G02*
X151200000Y-81000000I-1800000J0D01*
G01*
X151200000Y-81000000D02*
G75*
G02*
X154800000Y-81000000I1800000J0D01*
G01*
%TO.C,U3*%
X130150000Y-75900000D02*
X128200000Y-75900000D01*
X130150000Y-75900000D02*
X132100000Y-75900000D01*
X130150000Y-84770000D02*
X128200000Y-84770000D01*
X130150000Y-84770000D02*
X132100000Y-84770000D01*
X127450000Y-75965000D02*
X127210000Y-75635000D01*
X127690000Y-75635000D01*
X127450000Y-75965000D01*
G36*
X127450000Y-75965000D02*
G01*
X127210000Y-75635000D01*
X127690000Y-75635000D01*
X127450000Y-75965000D01*
G37*
%TD*%
%LPC*%
D10*
X147500000Y-48500000D02*
X150500000Y-48500000D01*
X150500000Y-51500000D01*
X147500000Y-51500000D01*
X147500000Y-48500000D01*
G36*
X147500000Y-48500000D02*
G01*
X150500000Y-48500000D01*
X150500000Y-51500000D01*
X147500000Y-51500000D01*
X147500000Y-48500000D01*
G37*
D13*
%TO.C,TP14*%
X149000000Y-51500000D03*
%TD*%
D14*
%TO.C,R5*%
X135290000Y-58700000D03*
X136310000Y-58700000D03*
%TD*%
D15*
%TO.C,R11*%
X123735000Y-68780000D03*
X123735000Y-67760000D03*
%TD*%
D13*
%TO.C,TP5*%
X153000000Y-86000000D03*
%TD*%
D16*
%TO.C,U2*%
X127610000Y-51125000D03*
X127610000Y-52395000D03*
X127610000Y-53665000D03*
X127610000Y-54935000D03*
X127610000Y-56205000D03*
X127610000Y-57475000D03*
X127610000Y-58745000D03*
X132560000Y-58745000D03*
X132560000Y-57475000D03*
X132560000Y-56205000D03*
X132560000Y-54935000D03*
X132560000Y-53665000D03*
X132560000Y-52395000D03*
X132560000Y-51125000D03*
%TD*%
D17*
%TO.C,SW1*%
X136995000Y-66020000D03*
X143495000Y-66020000D03*
X136995000Y-70520000D03*
X143495000Y-70520000D03*
%TD*%
D15*
%TO.C,R10*%
X123735000Y-61160000D03*
X123735000Y-60140000D03*
%TD*%
D14*
%TO.C,R2*%
X137290000Y-60100000D03*
X138310000Y-60100000D03*
%TD*%
D17*
%TO.C,SW3*%
X136995000Y-82530000D03*
X143495000Y-82530000D03*
X136995000Y-87030000D03*
X143495000Y-87030000D03*
%TD*%
D15*
%TO.C,R13*%
X123735000Y-85290000D03*
X123735000Y-84270000D03*
%TD*%
D17*
%TO.C,SW4*%
X114770000Y-50145000D03*
X121270000Y-50145000D03*
X114770000Y-54645000D03*
X121270000Y-54645000D03*
%TD*%
D13*
%TO.C,TP8*%
X162750000Y-81000000D03*
%TD*%
%TO.C,TP2*%
X153000000Y-71000000D03*
%TD*%
D14*
%TO.C,R3*%
X139290000Y-56250000D03*
X140310000Y-56250000D03*
%TD*%
%TO.C,R7*%
X139290000Y-58700000D03*
X140310000Y-58700000D03*
%TD*%
D13*
%TO.C,TP12*%
X164500000Y-60500000D03*
%TD*%
D18*
%TO.C,C3*%
X132145000Y-75255000D03*
X133105000Y-75255000D03*
%TD*%
D13*
%TO.C,TP3*%
X153000000Y-76000000D03*
%TD*%
D14*
%TO.C,R8*%
X135290000Y-60100000D03*
X136310000Y-60100000D03*
%TD*%
D19*
%TO.C,R4*%
X126785000Y-86050000D03*
X125765000Y-86050000D03*
%TD*%
D13*
%TO.C,TP10*%
X158750000Y-51500000D03*
%TD*%
D17*
%TO.C,SW5*%
X114695000Y-58055000D03*
X121195000Y-58055000D03*
X114695000Y-62555000D03*
X121195000Y-62555000D03*
%TD*%
D15*
%TO.C,R12*%
X123735000Y-77035000D03*
X123735000Y-76015000D03*
%TD*%
D16*
%TO.C,U1*%
X127610000Y-63190000D03*
X127610000Y-64460000D03*
X127610000Y-65730000D03*
X127610000Y-67000000D03*
X127610000Y-68270000D03*
X127610000Y-69540000D03*
X127610000Y-70810000D03*
X132560000Y-70810000D03*
X132560000Y-69540000D03*
X132560000Y-68270000D03*
X132560000Y-67000000D03*
X132560000Y-65730000D03*
X132560000Y-64460000D03*
X132560000Y-63190000D03*
%TD*%
D13*
%TO.C,TP6*%
X159000000Y-78500000D03*
%TD*%
D14*
%TO.C,R6*%
X139290000Y-57600000D03*
X140310000Y-57600000D03*
%TD*%
D20*
%TO.C,J1*%
X106590000Y-54935000D03*
D21*
X106590000Y-57475000D03*
X106590000Y-60015000D03*
X106590000Y-62555000D03*
X106590000Y-65095000D03*
X106590000Y-67635000D03*
X106590000Y-70175000D03*
X106590000Y-72715000D03*
X106590000Y-75255000D03*
X106590000Y-77795000D03*
%TD*%
D15*
%TO.C,R9*%
X123735000Y-52905000D03*
X123735000Y-51885000D03*
%TD*%
D13*
%TO.C,TP1*%
X153000000Y-66000000D03*
%TD*%
%TO.C,TP11*%
X164500000Y-54500000D03*
%TD*%
%TO.C,TP9*%
X164500000Y-76000000D03*
%TD*%
D17*
%TO.C,SW6*%
X114770000Y-66020000D03*
X121270000Y-66020000D03*
X114770000Y-70520000D03*
X121270000Y-70520000D03*
%TD*%
D13*
%TO.C,TP13*%
X158750000Y-57500000D03*
%TD*%
%TO.C,TP7*%
X159000000Y-68500000D03*
%TD*%
D18*
%TO.C,C5*%
X132145000Y-49855000D03*
X133105000Y-49855000D03*
%TD*%
D13*
%TO.C,TP15*%
X149000000Y-57500000D03*
%TD*%
D14*
%TO.C,R1*%
X137290000Y-58700000D03*
X138310000Y-58700000D03*
%TD*%
D18*
%TO.C,C4*%
X139320000Y-60100000D03*
X140280000Y-60100000D03*
%TD*%
D22*
%TO.C,D1*%
X135990000Y-53690000D03*
X135990000Y-56490000D03*
%TD*%
D17*
%TO.C,SW2*%
X136995000Y-74275000D03*
X143495000Y-74275000D03*
X136995000Y-78775000D03*
X143495000Y-78775000D03*
%TD*%
D18*
%TO.C,C2*%
X132145000Y-61920000D03*
X133105000Y-61920000D03*
%TD*%
D17*
%TO.C,SW8*%
X114770000Y-82530000D03*
X121270000Y-82530000D03*
X114770000Y-87030000D03*
X121270000Y-87030000D03*
%TD*%
%TO.C,SW7*%
X114770000Y-74275000D03*
X121270000Y-74275000D03*
X114770000Y-78775000D03*
X121270000Y-78775000D03*
%TD*%
D23*
%TO.C,C1*%
X140280000Y-55250000D03*
X139320000Y-55250000D03*
%TD*%
D13*
%TO.C,TP4*%
X153000000Y-81000000D03*
%TD*%
D16*
%TO.C,U3*%
X127675000Y-76525000D03*
X127675000Y-77795000D03*
X127675000Y-79065000D03*
X127675000Y-80335000D03*
X127675000Y-81605000D03*
X127675000Y-82875000D03*
X127675000Y-84145000D03*
X132625000Y-84145000D03*
X132625000Y-82875000D03*
X132625000Y-81605000D03*
X132625000Y-80335000D03*
X132625000Y-79065000D03*
X132625000Y-77795000D03*
X132625000Y-76525000D03*
%TD*%
%LPD*%
M02*
